<svg version="1.1" xmlns="http://www.w3.org/2000/svg" xmlns:xlink="http://www.w3.org/1999/xlink" width="29.25486" height="27.08498" viewBox="0,0,29.25486,27.08498"><g transform="translate(-225.27343,-166.06625)"><g data-paper-data="{&quot;isPaintingLayer&quot;:true}" fill="#3cff00" fill-rule="nonzero" stroke="none" stroke-width="0.5" stroke-linecap="butt" stroke-linejoin="miter" stroke-miterlimit="10" stroke-dasharray="" stroke-dashoffset="0" style="mix-blend-mode: normal"><path d="M252.39638,175.42066c0.55861,0.72548 1.00418,1.50749 1.30616,2.33812c3.22508,8.87113 -3.4662,15.83876 -11.9291,15.37013c-3.15899,-0.17493 -6.78582,0.38776 -9.38533,-1.41568c-4.73428,-3.28447 -5.09453,-5.07868 -4.27209,-7.26786c-0.23376,-0.77309 -0.4093,-1.57637 -0.52192,-2.39201c-1.4299,-1.36568 -2.32067,-3.29104 -2.32067,-5.42445c0,-3.3738 2.22768,-6.22729 5.29236,-7.16981l1.58789,-0.5293c0.83899,-0.86752 1.6104,-1.91816 2.74963,-2.22999c5.5712,-1.52492 11.88467,-0.38463 15.83043,4.37664c1.00207,1.20918 1.38257,2.74991 1.66264,4.34421z"/></g></g></svg>