<svg version="1.1" xmlns="http://www.w3.org/2000/svg" xmlns:xlink="http://www.w3.org/1999/xlink" width="71.24636" height="77.17204" viewBox="0,0,71.24636,77.17204"><g transform="translate(-283.10022,-142.65073)"><g stroke="none" stroke-miterlimit="10"><path d="" fill="#3cff00" stroke-width="0.5"/><path d="M290.95748,167.31973c-0.68403,-1.67119 -0.68403,-3.19082 -0.68403,-3.19082c0.29581,-2.17964 -0.10313,-4.57498 0.88744,-6.53893c0.85892,-1.70295 3.00833,-2.3696 4.30926,-3.76437c2.52712,-2.70941 5.65847,-7.32721 9.43318,-8.6258c3.44562,-1.18537 9.04823,-0.5709 12.87013,-0.5709c3.27336,0 10.02486,-0.77902 12.87013,0.5709c3.16323,1.50078 9.14006,8.54307 10.71804,11.34496c0.96816,1.71907 0.84115,3.91229 1.79171,5.64116c0.86761,1.57799 2.79633,2.43702 3.54922,4.07286c0.654,1.42098 0.18538,3.13137 0.47406,4.66876c0.46538,2.47849 1.45232,4.83278 2.04065,7.28499c-0.01355,1.57167 -0.12262,3.14542 -0.04065,4.71501c0.08409,1.61012 1.82824,2.682 2.4557,4.16721c2.81662,6.66696 4.56272,16.13009 -0.55556,22.33745c-1.27928,1.55149 -3.92142,1.12826 -5.60806,2.2232c-1.50374,0.97621 -2.22785,2.90978 -3.75226,3.85338c-2.90141,1.79596 -6.63963,1.64919 -10.02661,2.06393c-6.01062,0.736 -11.90733,3.05922 -18.11774,1.95935c-3.06731,-0.54322 -7.74848,-2.69519 -10.18396,-4.31884c-0.34747,-0.23165 -0.09706,-1.00012 -0.4848,-1.15522c-1.42167,-0.56867 -3.36339,0.16411 -4.5152,-0.84478c-1.44498,-1.26568 -4.95001,-9.2678 -5.91404,-11.36117c-0.08488,-1.9982 0.64549,-4.10703 0,-6c-0.48112,-1.41094 -1.63536,-2.55457 -2,-4c-0.55513,-2.20049 0.17671,-4.56018 -0.14444,-6.80677c-0.22472,-1.57198 -2.05724,-6.48215 -2.0417,-7.45034c0.04443,-2.76807 0.59751,-5.54992 1.49009,-8.17051c0.26039,-0.76448 0.70204,-1.44268 1.17944,-2.1047z" fill="#3cff00" stroke-width="0.5"/><path d="M306.77344,179.62891c-2.62328,0 -4.32901,-0.91755 -5.43813,-2.11078c-0.78316,-0.21336 -1.54563,-0.47659 -2.25711,-0.86272c-1.47842,-0.80235 -2.31788,-2.46928 -3.69009,-3.44218c-1.10435,-0.78299 -2.53199,-1.01354 -3.65682,-1.7668c-1.99232,-1.33419 -3.76204,-2.974 -5.64306,-4.461c0,0 -5.85652,-4.68521 -1.1713,-10.54173c4.68521,-5.85652 10.54173,-1.1713 10.54173,-1.1713c2.70139,2.19425 5.87592,3.73844 8.70011,5.7722c0.93226,0.67134 1.33939,1.9431 2.30991,2.55782c0.6022,0.38142 1.41585,0.16695 2.12378,0.25043l5.68098,8.27607c0,0 0,7.5 -7.5,7.5z" fill="#104400" stroke-width="0.5"/><path d="M323.27344,180.12891c-6,-4.5 -1.5,-10.5 -1.5,-10.5l2.46177,-3.17444c0.75898,-1.81808 1.2061,-3.80052 2.27693,-5.45424c1.04225,-1.60958 2.6249,-2.79626 3.95801,-4.17462c1.68684,-1.74409 2.97128,-3.84681 4.6374,-5.61071c0.16895,-0.17886 0.65079,0.2744 0.73681,0.04389c0.56557,-1.5157 -0.17141,-3.6484 1.01756,-4.74547c2.17588,-2.0077 5.39502,-2.44032 8.09252,-3.66048c0,0 7.27607,-1.81902 9.09509,5.45705c1.36477,5.4591 -2.39028,7.8463 -4.35079,8.69814c-0.67782,1.58985 -2.19724,2.67079 -3.25937,4.0349c-1.70822,2.19389 -3.35366,4.46697 -5.3626,6.38929c-0.65964,0.63119 -1.57751,1.03939 -2.04199,1.82538c-0.82442,1.39506 -1.14872,3.0305 -1.72307,4.54576l-3.53823,4.82556c0,0 -4.5,6 -10.5,1.5z" fill="#104400" stroke-width="0.5"/><path d="M293.27344,187.12891c0,-4.14214 3.35786,-7.5 7.5,-7.5c4.14214,0 7.5,3.35786 7.5,7.5c0,4.14214 -3.35786,7.5 -7.5,7.5c-4.14214,0 -7.5,-3.35786 -7.5,-7.5z" fill="#104400" stroke-width="0.5"/><path d="M343.12755,212.83711c-6.7082,3.3541 -10.06231,-3.3541 -10.06231,-3.3541l-2.22089,-4.48398c-0.49135,-1.55625 -1.16676,-3.06597 -1.47406,-4.66876c-0.18201,-0.9493 0.78334,-2.21458 0.09986,-2.89807c-0.40259,-0.40259 -1.12797,0.17002 -1.6967,0.1967c-0.30295,0.01421 -2.36024,0.01045 -4.13334,-0.01131c-0.49647,1.51111 -1.16446,2.9897 -1.43915,4.55157c-0.22866,1.30018 0.04833,2.63983 0.07249,3.95974c0,0 0,7.5 -7.5,7.5c-7.5,0 -7.5,-7.5 -7.5,-7.5c0.05282,-4.40099 1.00293,-8.77089 2.07249,-13.04026c0.52536,-2.09709 -0.09437,-4.73038 1.34319,-6.34507c1.96113,-2.20276 5.05201,-3.19078 7.88295,-4.01783c1.98442,-0.57974 4.13411,-0.07509 6.20137,-0.09684c4.97452,-0.05236 9.37125,-0.36129 13.50141,2.64691c-0.00094,-0.04886 -0.00141,-0.09783 -0.00141,-0.14691c0,-4.14214 3.35786,-7.5 7.5,-7.5c4.14214,0 7.5,3.35786 7.5,7.5c0,4.14214 -3.35786,7.5 -7.5,7.5c-0.88785,0 -1.73966,-0.15427 -2.5301,-0.43748c0.29027,0.73873 0.55977,1.48402 0.82947,2.21433c0.5651,1.53023 0.03035,3.33589 0.62973,4.85302l1.77911,3.51602c0,0 3.3541,6.7082 -3.3541,10.06231z" fill="#104400" stroke-width="0.5"/><path d="" fill="#104400" stroke-width="0.5"/><path d="" fill="#104400" stroke-width="0.5"/><path d="" fill="#104400" stroke-width="0.5"/><path d="" fill="#9966ff" stroke-width="0"/></g></g></svg>