<svg version="1.1" xmlns="http://www.w3.org/2000/svg" xmlns:xlink="http://www.w3.org/1999/xlink" width="110.96983" height="50.76388" viewBox="0,0,110.96983,50.76388"><g transform="translate(-184.10297,-172.85336)"><g data-paper-data="{&quot;isPaintingLayer&quot;:true}" fill="#1ea900" fill-rule="nonzero" stroke="none" stroke-width="0.5" stroke-linecap="butt" stroke-linejoin="miter" stroke-miterlimit="10" stroke-dasharray="" stroke-dashoffset="0" style="mix-blend-mode: normal"><path d="M192.28519,210.26896c1.1103,-0.7879 2.22445,-1.56812 3.35466,-2.31624l-1.06778,-1.22697c2.82067,-0.96412 5.59977,-2.05974 8.46202,-2.89237c0.23516,-0.06841 0.47096,-0.13375 0.70737,-0.19624c1.31456,-0.47197 2.99111,-0.83325 4.88396,-1.10975c-0.17214,-0.22477 -0.32918,-0.46307 -0.4744,-0.71199c-2.20872,0.51812 -4.41048,1.06893 -6.6105,1.60236c-1.92319,0.46631 -4.03652,0.74727 -5.60683,1.95152c0,0 -3.09182,2.06121 -6.37375,1.10564c-0.18288,-0.6865 -0.2865,-1.46445 -0.2865,-2.34602c0,-4.07835 2.21773,-5.93898 4.24127,-6.78783c-1.37932,-1.78117 -2.58951,-3.77573 -3.95,-5.58065c3.46513,-1.84881 7.41967,-3.20557 11.51241,-4.22875c0.08208,-0.24962 0.21783,-0.48476 0.41947,-0.70213c1.28768,-1.38809 3.40539,-0.95372 5.49928,-0.55259c1.97141,-0.35235 3.93614,-0.64634 5.85641,-0.89904l1.92849,-1.74249c2.56711,-0.0905 5.13784,-0.14874 7.71058,-0.18338l4.53501,-5.39546c0.00951,-0.01166 0.0192,-0.02319 0.02909,-0.03461l0.46534,-0.55363c0.02216,0.0507 0.044,0.10169 0.06554,0.15295c0.15495,-0.07732 0.31118,-0.14989 0.46861,-0.21793c-0.05161,-0.06679 -0.10216,-0.13462 -0.15161,-0.20355c-0.02686,-0.03744 -0.04791,-0.07441 -0.06358,-0.11094l0.96594,-1.14921c0.40757,-0.24321 0.84202,-0.48422 1.09764,-0.73985l2.65339,1.27943c3.19575,-0.13059 6.59446,0.50027 9.77762,0.32916c1.98951,-0.10694 3.93599,-0.51766 5.87115,-1.01698c1.07335,0.40396 2.14001,0.83346 3.20448,1.27128c2.79832,-1.90037 6.33305,-2.56442 9.62446,-3.3973c0.16937,-0.04286 0.35607,-0.09574 0.55455,-0.1538c1.39526,0.04485 2.79328,0.12607 4.18448,0.1173c0.45181,2.72158 -2.33333,5 -3.5,7.5l1.11942,2.39875c2.311,0.02672 4.61999,0.05287 6.92588,0.0719c1.47563,-0.14849 3.28253,-0.81714 4.77936,-0.99891c-0.47772,0.33226 -0.95372,0.66751 -1.42953,1.00308c1.28526,-0.06805 2.59011,-0.2566 3.87904,-0.34723c0.08499,0.10888 0.16057,0.23255 0.22583,0.37241c1.34605,-0.07821 2.73532,-0.42232 4,0c4.58442,1.5309 8.86624,3.85124 13.29937,5.77685l-10.14376,11.52698c-4.10931,1.76113 -8.02723,3.99152 -12.11115,5.80172l-5.83351,3.60312c0.06789,0.43104 0.01396,0.86155 -0.21094,1.29133c-0.55165,1.05418 -1.75409,1.03328 -3.10955,0.7596l-1.95792,1.20933c-9.68789,2.05432 -19.51239,3.47464 -29.13575,5.81267c-4.62959,1.12477 -8.95848,4.76008 -13.68156,4.13503c-1.11043,-0.14695 -2.13098,-0.53268 -3.09557,-1.06712c-0.86652,0.33996 -1.73337,0.67904 -2.60135,1.01517l-3.52256,-4.78793c-0.7723,0.04215 -1.54296,0.03888 -2.31137,-0.02729c-3.48221,0.8095 -6.94576,1.73379 -10.38302,2.8537l-11.64517,-6.48678c2.37431,-1.48065 4.65669,-3.14497 6.95556,-4.77632c-1.16602,-0.76034 -2.23288,-1.9458 -2.72525,-3.79403c-1.38066,-0.402 -2.79497,-1.3379 -4.02688,-3.18577c-4.16025,-6.24038 2.08013,-10.40063 2.08013,-10.40063c0.63054,-0.39517 1.28189,-0.77083 1.95152,-1.12811c-0.35166,-0.46654 -0.71337,-0.92042 -1.09064,-1.35466l10.92576,-5.76754c5.1038,-0.51038 10.23509,-0.82139 15.38092,-1.0028l7.12255,-6.43561c1.23225,-0.7497 2.49778,-3.05095 3.69674,-2.24909c0.90395,0.60456 1.47731,1.50327 1.92072,2.51763l0.31896,-0.37947c-0.18194,-0.42425 0.36254,-0.78914 0.96594,-1.14921l0.8436,-1.00366c3.68306,-0.43557 7.39622,-1.94744 11.04918,-1.30672c2.57297,0.45129 5.05743,1.24022 7.50702,2.16214c2.87421,-0.74163 5.72344,-1.67873 8.6516,-2.10632c1.56437,-0.22844 3.14635,-0.22446 4.73189,-0.1735c1.59624,-0.46695 3.95438,-1.26875 4.18448,0.1173l11.5,7.5c-0.73252,0.47773 -1.45589,0.97135 -2.17534,1.47174c1.03585,-0.12579 1.9232,-0.01842 2.44951,0.65585c0.09656,-0.00679 0.19303,-0.01303 0.2894,-0.01863c0.12452,0.26682 0.12972,0.92179 0.15118,1.18326l10.28525,6.70777c-2.23569,1.59692 -4.27305,3.55454 -6.49214,5.18165c0.2503,0.80021 0.3361,1.58258 -0.00786,2.31835c-0.56467,1.20786 -2.66667,0 -4,0c-2.10814,0.85465 -4.50061,0.25119 -6.81359,0.05537c0.43141,0.25815 0.85864,0.52513 1.2832,0.79775c-1.48581,1.61682 -3.09651,3.05723 -5.05131,4.01155c-1.35533,0.66167 -2.83171,0.81717 -4.3572,0.76495l0.47563,0.6118c0.60869,1.18786 1.86461,2.37849 2.74397,3.5675c-0.60298,-0.07163 -1.20286,-0.11693 -1.77271,0.03791c-2.11219,0.57394 -4.02043,3.05519 -6.02837,3.15317c-0.08078,0 -0.16155,0 -0.24233,0c-0.24132,-0.012 -0.48425,-0.06061 -0.7293,-0.15317c-0.30574,-0.11548 -0.58081,-0.26807 -0.83044,-0.45142l-1.91843,-3.59705c-0.07302,0.08281 -0.14722,0.16447 -0.22267,0.2449c-0.35006,-0.89183 -0.67016,-1.81992 -1.06445,-2.65825l-0.35894,-0.67302c-0.08841,0.01181 -0.17694,0.02308 -0.26557,0.03383l0.1525,0.25417c-0.66667,0 -1.33333,0 -2,0c-1.76956,0.61729 -3.6698,0.46824 -5.57824,0.26636l-0.42176,2.73364c-1.49015,0 -2.99064,0.10244 -4.49081,0.20165l1.99081,1.29835c-1.55444,1.1174 -3.05653,2.31701 -4.57738,3.48715c-2.66805,0.61912 -5.33803,1.17079 -8.00661,1.69002l1.08399,2.32283c-3.4226,-0.00518 -6.86171,-0.07923 -10.26351,0.29766c-3.20971,0.35561 -6.44215,1.33193 -9.65215,1.68085c-0.21429,-0.19071 -0.42894,-0.38046 -0.64446,-0.56792c-0.29721,0.06408 -0.59431,0.12883 -0.89128,0.19431l-1.54861,-2.1049l2.58169,-7.36467c0.87789,-0.36529 6.11428,-2.62748 10.91215,-4.49872c-0.39322,-0.15487 -0.78616,-0.31079 -1.17899,-0.46709c-0.36256,0.20957 -0.73907,0.38774 -1.14148,0.50868c-1.27692,0.38375 -2.71123,-0.34184 -4,0c-0.78649,0.20861 -1.15398,1.18832 -1.87825,1.55917c-3.79003,1.94065 -8.08718,3.0364 -11.94103,4.97084l-2.57069,0.46748l-2.91699,-3.35187c2.48174,-1.64273 5.04095,-3.13071 7.80697,-4.20556c0.09606,-0.03733 0.1943,-0.074 0.29464,-0.11003c1.64279,-0.43426 3.31484,-0.73092 5.0013,-0.96157c-0.03989,-0.0487 -0.07899,-0.0981 -0.11734,-0.14818c0.66188,-0.09668 1.35021,-0.183 2.05875,-0.26006l-0.50829,-0.63536c-0.13415,-0.00096 -0.2683,-0.00198 -0.40245,-0.00307c-0.30024,-0.00244 -0.60314,0.00507 -0.90807,0.02018c-0.2382,0.05502 -0.47631,0.11047 -0.71434,0.16631c-0.02183,-0.03742 -0.04339,-0.07507 -0.06469,-0.11296c-3.43964,0.29392 -7.06907,1.2892 -10.03605,-0.27417c-1.82818,-0.96331 -3.25479,-2.43327 -4.53558,-4.0872c0.94229,-0.39528 1.84247,-0.57116 2.457,-0.64943c2.32001,-1.03062 4.73583,-1.87178 7.08439,-2.80667l0.0167,-0.03292c-0.46047,-2.05155 -2.57775,-4.55014 -1.99569,-6.32039c1.95415,-0.48854 3.93981,-0.90103 5.91875,-1.25472c0.95811,0.18355 1.91124,0.36013 2.77757,0.35196c1.38917,-0.0131 2.77839,-0.0178 4.16762,-0.01814c-0.54056,-0.25786 -1.08385,-0.50683 -1.63112,-0.74283l0.54234,-0.49003c2.11837,-0.27877 4.18263,-0.50728 6.14202,-0.70842c0.89592,-0.09197 1.79262,-0.17761 2.69003,-0.25731l0.80702,-0.96014c1.30671,-0.0176 2.61395,-0.0291 3.92149,-0.03566c0.24042,-0.11028 0.48379,-0.21443 0.7307,-0.31125c0.00164,-0.00064 0.00328,-0.00129 0.00493,-0.00193c-0.27419,-1.83418 -1.00419,-3.96503 -0.1221,-5.04661l0.02909,-0.03461c0.13331,-0.15392 0.30117,-0.28536 0.50991,-0.39018c0.00699,-0.00351 0.01398,-0.00701 0.02097,-0.0105c0.61261,1.45784 0.98283,3.13135 1.68712,4.50761l0.24249,0.26377c1.46498,-0.33114 2.97387,-0.51351 4.46003,-0.71917c-2.09461,-1.30315 -4.44147,-2.35548 -5.92104,-4.27015c1.41907,-0.61339 2.93606,-0.86014 4.50177,-0.92412l9.17643,4.42476c0.09416,-0.19352 0.18822,-0.38708 0.28217,-0.5807l0.69398,1.05139l1.32468,0.63874c0.60488,0.10665 1.19418,0.1347 1.73748,-0.11239c1.76927,-0.80465 3.09006,-2.63956 5,-3c0.05805,-0.01095 0.11061,-0.00053 0.15826,0.02723c-0.2594,-0.63153 -0.42143,-1.20608 0.04367,-1.55428c0.14338,-0.10734 0.28895,-0.21103 0.43657,-0.31128c2.51854,1.03588 5.02488,2.11834 7.57878,3.01935l-1.87023,3.37655c2.09255,0.02025 4.18427,0.04489 6.27436,0.06905l0.04725,0.10125c2.11111,0 4.22222,0 6.33333,0c1,0 2,0 3,0c0.17578,0 0.35208,-0.00326 0.52882,-0.00921c0.11378,0.00058 0.22756,0.00113 0.34133,0.00165c-1.8217,1.28484 -3.64107,2.57372 -5.54437,3.71704l5.05751,2.70648c0.60156,-0.32229 1.20346,-0.64409 1.80811,-0.95962c-0.4197,0.4321 -0.82473,0.86497 -1.17033,1.30092l4.3436,2.32444c-0.95356,0.93933 -1.84198,1.97068 -2.71633,3.0219l1.35166,2.89641c-1.25217,0 -2.50556,-0.00403 -3.76,-0.01099c-0.00318,0.00366 -0.00636,0.00732 -0.00954,0.01099c-0.07682,0 -0.15364,0 -0.23046,0c-1,0 -2,0 -3,0c0.03096,0.01841 1.1555,0.03687 1.18641,0.05537c-0.39845,-0.03373 -0.79454,-0.05537 -1.18641,-0.05537c-4,0 -8,0 -12,0c-0.68791,0 -1.37621,-0.00118 -2.06487,-0.00337l0.09661,-0.18115c-0.38265,-0.00328 -0.76531,-0.00636 -1.14799,-0.00922l0.11207,0.18678c-0.46502,-0.00207 -0.9302,-0.00457 -1.39552,-0.00743c0.01641,-0.06301 0.0337,-0.12559 0.05193,-0.18774c-1.46059,-0.00895 -2.92132,-0.01417 -4.38189,-0.01395l0.10018,0.16696c-0.69919,-0.00693 -1.39865,-0.01432 -2.09833,-0.02201c-0.0098,0.02367 -0.01967,0.04739 -0.02961,0.07114c-0.18409,0 -1.05849,0 -1.24258,0l-0.1668,-0.08729c-1.63366,-0.01867 -3.26845,-0.03824 -4.90393,-0.05643c-3.24932,0.06053 -6.49522,0.16424 -9.73454,0.33006c0.53639,-0.13404 1.07296,-0.26725 1.60994,-0.39861c-0.92801,-0.00416 -1.85602,-0.00666 -2.78395,-0.00707c-0.34508,0.17441 -0.68918,0.35084 -1.03269,0.52853c-0.17652,0.01064 -0.35302,0.02147 -0.5295,0.03251c0.09689,-0.17913 0.18655,-0.36659 0.27084,-0.56023c-3.191,0.00551 -6.3807,0.03791 -9.56598,0.11417c-0.20691,-0.27114 -0.4174,-0.53724 -0.63365,-0.79523l7.85841,-5.53823c-1.15857,-0.32978 -2.28963,-0.74902 -3.40372,-1.22349c0.59219,-0.53591 1.24137,-0.9916 1.9792,-1.32251c0.93958,0.00939 1.88062,0.02202 2.82251,0.03559l-0.03907,-0.64074c0.04229,-0.0017 0.08462,-0.00315 0.12701,-0.00436c-0.04359,-0.01885 -0.08717,-0.03776 -0.13074,-0.05671l-0.02134,-0.34997c1.25706,0 2.51411,0 3.77117,0c-0.31183,0.18611 -0.62142,0.37569 -0.92849,0.56913c1.48546,0.17692 2.98715,0.43087 4.43532,0.43087c0.14594,0 0.29187,0 0.43781,0c-0.00833,0.01311 -0.01665,0.02628 -0.02495,0.03949c0.74289,-0.00549 1.48578,-0.01083 2.22868,-0.01583c0.00393,-0.00789 0.00786,-0.01577 0.01179,-0.02366c1.44889,0 2.89779,0 4.34668,0c1.74676,-0.00658 3.8445,-0.77409 5.68016,-0.96667c0.04235,-0.01113 0.08468,-0.02224 0.12702,-0.03333c0.09542,0 0.19084,0 0.28627,0c0.2378,-0.01295 0.47017,-0.01399 0.69567,0c0.37763,0 0.75526,0 1.13288,0l-0.02037,-0.02597c1.52808,0.00441 3.05614,0.01027 4.58416,0.01786l-0.00449,0.0081c0.40723,0 0.81445,0 1.22168,0c0.00307,0.00184 0.00613,0.00368 0.0092,0.00552c0.20512,0.12349 0.36007,0.26649 0.47177,0.42631c-0.73571,0.14737 -1.46993,0.30587 -2.20318,0.47183l-0.22263,0.40194c-0.02882,0.05612 -0.05635,0.11518 -0.08273,0.17683l2.18625,1.56161c-0.27959,0.55965 -0.6332,1.14809 -0.98532,1.73596c-0.97687,0.41934 -1.8236,1.10978 -2.69711,1.73947l1.48311,0.52048c-0.06347,0.15699 -0.11821,0.31059 -0.16233,0.46005l0.66665,1.11109c0.09682,-0.15817 0.2048,-0.31104 0.32535,-0.45792c0.18354,-0.22363 0.38437,-0.42655 0.59978,-0.61157l1.81331,0.63636l0.09491,-0.17796c1.70265,0 3.4583,-0.29896 5.18574,-0.43876l1.31426,0.93876c-0.72398,0.43439 -1.43524,0.89593 -2.1404,1.37048c-0.50386,-0.0058 -1.00779,-0.01151 -1.51178,-0.01707c-0.02944,0.04869 -0.0587,0.09756 -0.08779,0.14659c-0.58667,0 -1.17335,0 -1.76002,0c-2.5284,0 -5.05679,0 -7.58519,0l5.52032,-0.00337c-0.31303,-0.001 -0.62614,-0.0022 -0.93931,-0.0036l0.4983,0.8305l0.43922,-0.82353c-0.9679,0 -7.45432,0 -8.42222,0l3.04401,1.92521c0.93563,-0.17499 1.87089,-0.35174 2.80548,-0.5316c0.04901,-0.47863 0.12055,-0.94655 0.23596,-1.39361c0.00124,-0.0048 0.00248,-0.0096 0.00373,-0.0144c-1.40868,-0.00868 -2.8187,-0.02075 -4.22978,-0.03473l0.02948,0.04913c-0.31962,0 -2.52812,0 -2.84774,0c-0.3826,0.9142 -0.17662,1.88393 -0.48099,2.75544c1.49478,-0.27588 2.98979,-0.5508 4.48386,-0.83023l0.64487,1.07479c-1.73668,0 -3.47336,0 -5.21005,0c-0.07361,0.23404 -0.1316,0.45957 -0.16814,0.67338l-0.20468,1.32662c-3.69075,0 -7.3815,0 -11.07224,0c3.3886,-0.7233 6.7945,-1.36834 10.2035,-2c-4.86797,0 -9.73595,0 -14.60392,0l-1.45511,-2.18532c0.83523,-0.20888 1.67008,-0.41961 2.50537,-0.62834c-0.73592,0.03767 -1.4715,0.07854 -2.2067,0.12285c-0.15747,0.08146 -0.31481,0.16318 -0.47206,0.24509l-0.09547,-0.14338c0.0128,-0.02293 0.02548,-0.046 0.03803,-0.06921c-2.565,0.16039 -5.12531,0.36315 -7.67939,0.61772c-0.25756,0.02567 -0.5149,0.05298 -0.77203,0.08186c-0.27827,-0.38607 -0.55758,-0.77067 -0.84374,-1.14565c-0.13789,0.0033 -0.27576,0.00668 -0.41363,0.01015l-0.3723,-0.69806l0.15228,-0.10732c-0.17253,-0.20583 -0.34874,-0.40648 -0.52973,-0.60041c1.77185,-1.89841 3.08503,-4.44245 4.98442,-6.16131c-0.45976,-0.1958 -0.91663,-0.40101 -1.37134,-0.61322l0.38692,-0.72547c0.98577,0 1.97388,0.00629 2.96363,0.01618c0.0121,-0.00543 0.02423,-0.01082 0.03637,-0.01618c0.87564,-0.38631 1.79804,-0.55079 2.74706,-0.58897l-0.00372,-0.06107c-0.26451,-0.11507 -0.5285,-0.23189 -0.79211,-0.34997c0.25692,0 0.51384,0 0.77076,0l-0.00126,-0.02071c1.27295,-0.00242 2.54591,-0.0048 3.81887,-0.00696c-0.01548,0.00922 -0.03096,0.01844 -0.04644,0.02768c0.91625,0 1.83249,0 2.74874,0l0.00542,-0.03191c0.39918,-0.00056 0.79835,-0.00109 1.19753,-0.00158l0.03079,0.03349c0.89185,0 1.7837,0 2.67555,0c0.006,-0.01206 0.01201,-0.02413 0.01801,-0.03619c0.99341,-0.00073 1.98682,-0.00116 2.98023,-0.00121c-0.02461,0.0126 -0.04942,0.02495 -0.07444,0.03702c-0.00026,0.00012 -0.00052,0.00025 -0.00078,0.00037c2.24432,0 4.48864,0 6.73296,0c0.03936,-0.01032 0.07872,-0.02061 0.11807,-0.03089c0.6588,0.00139 1.31759,0.00302 1.97638,0.00492l-0.3221,-0.41063c1.81184,-0.39964 3.57006,-0.58671 5.15512,-0.0208l-0.24886,0.4493c0.40479,0.00201 0.80958,0.00414 1.21436,0.0064c0.00094,0.00057 0.00189,0.00113 0.00283,0.0017c0.12514,0 0.25028,0 0.37541,0c2.0605,-0.01166 4.49086,-0.93198 6.47291,-0.71916c0.03576,-0.63272 0.30659,-1.40279 0.24876,-1.02592c-0.05075,0.33078 -0.04665,0.68849 -0.02172,1.05568c0.56965,0.08873 1.0982,0.28127 1.56513,0.6288c-0.50591,-0.02856 -1.0122,-0.06229 -1.51807,-0.09015c0.00558,0.05595 0.01126,0.11192 0.01692,0.16786c-0.03489,-0.01722 -0.06934,-0.03509 -0.1033,-0.05361c-0.04877,-0.0266 -0.08663,-0.06959 -0.11532,-0.12502c-1.243,-0.06413 -2.48277,-0.08381 -3.70733,0.10532c-0.2706,0.04179 -0.54092,0.08568 -0.81098,0.13148l4.01716,2.8694c-1.28738,0.94855 -3.00362,1.02424 -4.67448,1.23251l2.0609,1.47207c0.67295,-0.1672 1.34472,-0.32135 1.98303,-0.4961c0.82839,-0.22679 1.72824,0.06236 2.5959,0.14406c-0.20711,0.56077 -0.38121,1.10956 -0.45258,1.62108l0.31744,0.57378c1.04318,0.01451 2.0652,0.14843 3.04723,0.50791c0.15053,0.0551 0.30016,0.1121 0.44893,0.17091c-0.76047,0.50265 -1.50878,1.03128 -2.2543,1.56587l0.09931,0.1795c-0.11458,-0.00131 -0.22917,-0.00263 -0.34377,-0.00395c-0.04064,0.02922 -0.08126,0.05844 -0.12189,0.08768c-1.31895,0.94912 -2.63399,1.90662 -3.99716,2.76125l0.18561,0.23875c-0.19075,0 -0.38151,0 -0.57226,0c-0.89588,0.54447 -1.81434,1.04067 -2.76987,1.45767l0.3254,0.54233c-0.26462,0 -0.52924,0 -0.79386,0c-0.00662,0.01292 -0.01324,0.02584 -0.01987,0.03876c-0.30798,-0.02016 -0.61428,-0.0335 -0.91832,-0.0376c-1.02506,0.34368 -2.07609,0.56613 -3.14358,0.70933c-0.04057,-0.07124 -0.08199,-0.14143 -0.12437,-0.21048c0.02399,-0.11811 0.04544,-0.23742 0.06473,-0.35776c-0.15014,0.07202 -0.30104,0.1424 -0.45277,0.21102l0.23554,0.39256c-0.50461,0.06121 -1.01269,0.10561 -1.52326,0.13759c-0.10762,0.03984 -0.21569,0.07871 -0.32424,0.11658c-1.84572,0 -3.69143,0 -5.53715,0l-0.04109,0.26636c-0.91154,-0.09643 -1.82494,-0.20491 -2.72688,-0.2477c-2.28779,0.08795 -4.58858,0.11512 -6.89408,0.11229l4.7084,3.0707c-2.8623,0.18928 -5.7234,0.36675 -8.50919,-0.20165c-1.11842,-0.2282 -2.22266,-0.50801 -3.31646,-0.82585c-0.50161,0.82093 -0.96628,1.62612 -1.18354,2.32585l2.41601,5.17717c-6.51643,1.26791 -13.02455,2.34241 -19.47613,3.73342c-0.79329,-0.69002 -1.59825,-1.34901 -2.43988,-1.91059c2.96159,-2.47221 5.47903,-5.60452 8.88478,-7.41662c2.66278,-1.41678 5.59075,-2.24368 8.54334,-2.96378c-1.00624,-0.35545 -2.00663,-0.73223 -3.0042,-1.11924c-0.14135,-0.00023 -0.28266,-0.00035 -0.42392,-0.00035l-0.11105,-0.20821c-0.13174,-0.05159 -0.26344,-0.10333 -0.39511,-0.15519c0.08637,-0.03369 0.1726,-0.06724 0.25865,-0.10066l-0.28146,-0.52775c-0.29559,-0.00044 -0.59118,-0.00087 -0.88677,-0.00129c-0.08906,0.0559 -0.1788,0.11023 -0.26941,0.16261c-0.13693,-0.05448 -0.27384,-0.10901 -0.41075,-0.16355c-1.02674,-0.00138 -2.05347,-0.00259 -3.08018,-0.00355c-2.29395,0.06179 -4.94435,1.27912 -6.82392,-0.00241c-0.39647,-0.27032 -0.73513,-0.59249 -1.03068,-0.95334c0.68632,-0.09386 1.37502,-0.17679 2.06511,-0.25362l-0.1237,-0.15462c1.45155,-0.15786 2.98795,-0.27687 4.55567,-0.36654c-0.23072,-0.08633 -0.46168,-0.17184 -0.69289,-0.25638c-1.45704,0.00076 -2.91406,-0.00205 -4.37106,-0.01244l-0.19036,-0.23795c-0.37362,0.08378 -0.747,0.16888 -1.12016,0.25507c-0.25834,0.0128 -0.51814,0.03106 -0.77903,0.05335c-0.45571,-0.81041 -0.79419,-1.72599 -1.12392,-2.64941c-2.27647,0.15314 -4.54865,0.33989 -6.81538,0.56657l2.90906,-5.73462c1.16387,-0.4633 2.31122,-0.94962 3.4222,-1.49344c0.35317,-0.17287 0.68961,-0.38075 1.01899,-0.60277c0.52327,-1.26449 1.17795,-2.4111 2.27615,-3.15987c1.76328,-1.20223 4.20494,-0.20528 6.39428,-0.02629c0.09709,-0.08118 0.19969,-0.15319 0.31059,-0.21108c0.17344,-0.09054 0.35256,-0.16778 0.53544,-0.23617c-1.02008,-0.52836 -2.04141,-1.05267 -3.07269,-1.54461c2.32894,-0.00057 4.65795,0.01111 6.98692,0.01602c0.19717,-0.11381 0.39312,-0.23005 0.58821,-0.34798c-0.34616,-0.14628 -0.69342,-0.28891 -1.04211,-0.42676l1.21025,-1.43987c1.10323,-0.09797 2.20754,-0.18697 3.31279,-0.26771c0.46313,-0.26101 0.93348,-0.5069 1.41572,-0.7281c0.25919,-0.0013 0.51839,-0.0024 0.77761,-0.00332c-0.01227,-0.10216 -0.02639,-0.20553 -0.04198,-0.30986c0.76846,-0.30101 1.56132,-0.52829 2.36748,-0.71051l0.93584,1.01796c1.48221,0.00276 2.96454,0.01038 4.44668,0.02122l0.17436,-1.02609c-0.35318,-0.25645 -0.72095,-0.49839 -1.09684,-0.73225c0.01949,-0.0027 0.03897,-0.0054 0.05844,-0.0081c0.31079,-0.04316 5.80657,-0.03881 7.34569,-0.03698c0.11782,-0.2414 0.2355,-0.48288 0.35303,-0.72442l0.97615,0.47069l0.27369,0.41464c0.35163,0.07582 0.70388,0.1629 1.05099,0.2241l0.23948,0.11547c-0.26706,0.13381 -0.53495,0.26645 -0.80353,0.39815l0.59773,0.90557c4.34895,-0.03928 8.70168,-0.01611 13.05086,0.02598l-0.09408,0.16985c0.24972,0.0003 0.4994,0.00045 0.74902,0.00045c4,0 8,0 12,0c0.17554,0 0.35774,-0.01047 0.5453,-0.02934c0.99512,0.00821 1.98966,0.0151 2.98353,0.02013c0.1219,-0.0041 0.24402,-0.00949 0.36631,-0.01596c-0.00833,0.00587 -0.01665,0.01174 -0.02498,0.01762c1.04407,0.00484 2.08738,0.00756 3.12985,0.00756l1.21475,0.79223c0.13247,1.61393 -1.53739,3.13424 -3.02334,4.66411c1.20056,-0.6265 2.41194,-1.22829 3.65299,-1.76017l1.85624,5.52698c0.25489,1.13322 0.94927,2.31411 1.30723,3.45851c-1.25493,0.92015 -2.56797,1.73461 -4.00786,2.31835c-1.58985,0 -3.17969,0 -4.76954,0c-0.25064,0.28858 -0.50387,0.57349 -0.76084,0.85312c2.00475,1.2873 3.94994,2.70052 5.99365,3.90546l-5.41881,3.34697c-1.41553,0.62743 -2.85101,1.20438 -4.32131,1.69382c-0.77292,0.25729 -1.61063,0.10837 -2.44244,0.00955c0.46884,0.63393 0.83063,1.2674 0.93024,1.89975l-3.3205,2.05093c-1.30277,-0.26304 -2.74691,-0.7596 -3.89045,-0.7596c-0.50679,0 -1.01359,0 -1.52038,0c-0.08061,0.00393 -0.16138,0.00403 -0.24233,0c-0.41243,0 -0.82486,0 -1.23729,0l-0.32245,-0.60459c-1.0188,-0.74831 -1.61393,-2.00913 -2.14109,-3.35215c-0.4687,0.4997 -0.9853,0.95225 -1.56478,1.34289c-4.0556,2.734 -9.51046,2.28959 -14.26956,3.41814c-0.25982,0.06161 -0.51965,0.12255 -0.77951,0.18285c-1.83786,1.41404 -3.70312,2.78506 -5.72125,3.91601c-2.3454,1.31434 -5.10069,1.70488 -7.62168,2.63923c-2.86824,1.06305 -5.71232,2.18987 -8.56003,3.30712c-1.76309,-0.97686 -3.33919,-2.45053 -4.93531,-3.871c-0.39657,0.04311 -0.79279,0.07664 -1.18859,0.09824l-0.34714,-0.47185c-0.65537,0.14449 -1.31012,0.2925 -1.96422,0.44456c-0.41997,-0.03616 -0.83925,-0.09112 -1.25777,-0.16772c-2.59585,-0.4751 -3.92187,-3.53208 -5.88281,-5.29811l-1.6604,-1.90794l-1.78341,0.32431c0,0 -2.40271,0 -4.48825,-1.35995zM251.30191,179.8304c0.11527,0.66545 0.11741,1.37953 0.16823,0.99521c0.04075,-0.30818 -0.04237,-0.64856 -0.16823,-0.99521z"/></g></g></svg>