<svg version="1.1" xmlns="http://www.w3.org/2000/svg" xmlns:xlink="http://www.w3.org/1999/xlink" width="99.15329" height="100.56524" viewBox="0,0,99.15329,100.56524"><g transform="translate(-193.27344,-124.33465)"><g data-paper-data="{&quot;isPaintingLayer&quot;:true}" fill-rule="nonzero" stroke="none" stroke-width="0.5" stroke-linecap="butt" stroke-linejoin="miter" stroke-miterlimit="10" stroke-dasharray="" stroke-dashoffset="0" style="mix-blend-mode: normal"><path d="M284.32565,148.5593c1.89253,6.33596 0.94779,13.57024 0.94779,20.56961c0,6.66667 0,13.33333 0,20c0,3.62445 0.84842,9.32961 0,13c-1.00225,4.33589 -0.61421,9.5953 -3.66117,12.83883c-4.26557,4.54077 -14.92668,3.70746 -20.83883,3.66117c-0.58976,-0.00462 -1.19325,0.07024 -1.76828,-0.06083c-0.17385,-0.03963 -0.18139,-0.51128 -0.3335,-0.41823c-1.14059,0.69772 -1.8619,2.06035 -3.11468,2.52756c-1.82239,0.67964 -3.87546,0.40159 -5.78126,0.7901c-7.25798,1.47957 -14.5293,1.16141 -22.00228,1.16141c-5.46369,0 -9.68359,-0.03463 -15.05692,-2.06857c-0.66897,-0.25322 -0.90471,-1.19363 -1.56538,-1.46778c-0.31018,-0.12871 -0.59302,0.56699 -0.90499,0.44269c-4.20684,-1.67602 -9.37221,-2.28063 -12.32528,-5.71369c-4.15233,-4.82724 -2.64743,-17.45071 -2.64743,-23.69265c0,-8 0,-16 0,-24c0,-2.58951 0.37164,-5.19749 0.06083,-7.76828c-0.54886,-4.53984 -1.43542,-8.59276 -1.06083,-13.23172c0.21038,-2.60535 -0.41077,-5.55278 0.95151,-7.78354c4.06079,-6.64966 7.34109,-9.18395 11.88755,-10.1424c2.05793,-0.57405 3.66095,-0.57405 3.66095,-0.57405c0.45386,0.00651 0.90714,0.023 1.35996,0.04763c1.12906,-0.03864 2.33685,-0.04763 3.64004,-0.04763c1.33333,0 2.66667,0 4,0c0.61069,0 1.30058,-0.22977 1.92457,-0.26836c0.36746,-0.36239 0.83021,-0.64086 1.29189,-0.78014c3.34199,-1.00821 10.83121,-1.6522 14.78354,-0.95151c3.47102,0.61536 7.12336,0.8498 10.30888,2.35947c0.52245,0.2476 1.04289,0.96022 1.25812,1.64424c0.15035,0.0727 0.29651,0.12858 0.43528,0.15769c1.95736,0.41059 3.99776,-0.16141 5.99772,-0.16141c6.33617,0 15.29745,-1.46936 20.57164,2.86686c3.18437,2.61806 6.49216,5.78876 7.59397,9.76122c0.9393,3.38654 0.9143,5.59227 0.3866,7.3023z" fill="#ffb466"/><path d="M265.26265,179.16383c-0.06929,-3.35025 -0.42828,-7.30383 0.23633,-10.39877c0.37688,-1.75505 1.53631,-3.26587 2,-5c0.39967,-1.4947 -0.22555,-3.08894 -0.22555,-4.63616c0,-2.16667 0,-4.33333 0,-6.5c-9.74514,0 -19.49028,0 -29.23543,0c4.09454,2.85109 7.81239,6.77449 11.66029,9.83322c4.44009,3.52948 10.05287,7.44986 12.95264,12.50804c0.49364,0.86108 -0.21147,2.13302 0.3402,2.95813c0.47579,0.71164 1.53645,0.7904 2.27152,1.23553zM249.95138,199.9044c-0.02729,-0.06699 -0.0637,-0.13003 -0.11178,-0.18807c-0.76673,-0.92551 -2,-1.33333 -3,-2c-0.33333,-1 -0.34391,-2.17498 -1,-3c-0.84227,-1.05913 -2.53416,-1.26026 -3.28386,-2.38682c-0.98025,-1.47299 -1.04339,-3.38337 -1.6598,-5.04187c-0.07911,-0.21284 0.21741,0.82013 0.03866,0.6801c-2.38928,-1.87175 -4.70185,-4.25443 -7.08603,-6.17206c-3.82403,-3.07572 -7.46751,-6.62412 -11.38402,-9.52625c-1.202,-0.89068 -2.73962,-1.16749 -4.19112,-1.61131c0,8.16065 0,16.32129 0,24.48194c2.60203,0.77571 5.03491,2.25692 7.73172,2.54967c3.26993,0.35497 6.7134,-0.34076 10,0c4.15616,0.43091 8.18641,1.45744 12.29557,2.03282c0.54083,0.07573 1.09169,0.13554 1.65066,0.18184zM214.32087,127.62891c19.15085,0 38.30171,0 57.45256,0c2.9553,0 8.95633,-0.12134 10.78354,0.95151c3.56306,2.09205 6.7635,5.15022 8.76495,8.76495c1.42654,2.57641 0.71447,5.84812 0.95151,8.78354c0.34491,4.27142 0,8.71574 0,13c0,2.28144 0.03542,8.03133 -0.22555,9.36384c-0.345,1.76159 -1.46094,3.2878 -2,5c-0.36468,1.15833 0.22555,2.42177 0.22555,3.63616c0,2.33333 0,4.66667 0,7c0,3.33333 0,6.66667 0,10c0,1 0.28367,2.04108 0,3c-0.09227,0.31191 -1.0906,-0.07758 -0.95151,0.21646c0.40316,0.85226 1.33333,1.33333 2,2c0.70164,5.73961 2.72116,14.77424 -1.88172,19.7084c-6.25823,6.70866 -15.76019,5.57514 -23.66678,5.57514c-6.68707,0 -13.89202,0.66802 -20.52729,-0.09366c-3.9176,-0.44971 -7.75503,-1.48971 -11.70443,-1.96718c-6.05657,-0.73223 -11.12772,0.30588 -17.33012,-1.45738c-1.3363,-0.37989 -2.46162,-1.34211 -3.80201,-1.70734c-0.53118,-0.14474 -1.0987,0.34487 -1.63616,0.22555c-4.65823,-1.03418 -10.26684,-0.4974 -13.83883,-3.66117c-3.09217,-2.73878 -2.44078,-7.89256 -3.66117,-11.83883c0,-22.33333 0,-44.66667 0,-67c0,0 0,-12.5 12.5,-12.5c3.98405,0 6.69829,1.26981 8.54744,3z" fill="#ff992c"/></g></g></svg>