<svg version="1.1" xmlns="http://www.w3.org/2000/svg" xmlns:xlink="http://www.w3.org/1999/xlink" width="175.32617" height="227.95263" viewBox="0,0,175.32617,227.95263"><g transform="translate(-161.44727,-58.17627)"><g data-paper-data="{&quot;isPaintingLayer&quot;:true}" fill="#000000" fill-rule="nonzero" stroke="none" stroke-width="0.5" stroke-linecap="butt" stroke-linejoin="miter" stroke-miterlimit="10" stroke-dasharray="" stroke-dashoffset="0" style="mix-blend-mode: normal"><path d="M163.77344,90.12891c0,-13.80712 11.19288,-25 25,-25c13.80712,0 25,11.19288 25,25c0,13.80712 -11.19288,25 -25,25c-13.80712,0 -25,-11.19288 -25,-25z"/><path d="M208.64844,144.62891c0.92845,1.61159 1.60525,3.42924 2.09475,5.37406c0.64874,2.18549 1.00673,4.49603 1.02913,6.88679c0.47339,6.67042 -0.18443,13.72317 0.00112,18.73702c0.1878,5.07452 3.15576,12.21856 3.15576,17.89967c0,18.27347 -0.09474,38.32909 -0.15576,56.60246c-0.05608,16.79249 -4.40647,36 -26,36c-10.76682,0 -16.75825,-3.84089 -21.875,-12.5c-5.23268,-8.8553 -2.16916,-17.52828 -2.125,-26.57764c0.08287,-16.98377 0.01528,-33.96794 0,-50.9519c-0.0051,-5.66314 -3.04001,-11.17609 -3,-16.98132c0.0339,-4.91904 -0.75312,-14.1464 0.00374,-22.42582c0.04486,-2.61917 0.49251,-5.14021 1.28366,-7.50383c0.4724,-1.69151 1.07441,-3.23474 1.8376,-4.55948c0.56395,-0.97889 1.26647,-1.85937 2.02501,-2.70006c1.05219,-1.372 2.24341,-2.63177 3.55261,-3.75824c0.98755,-1.14348 2.23025,-2.23977 3.68881,-2.63397c3.70159,-2.16617 8.01009,-3.40772 12.60856,-3.40772c4.98998,0 9.6385,1.46195 13.54062,3.98091c3.10186,1.54571 5.69746,3.94195 8.33438,8.51909z"/><path d="M295.77344,192.12891c-0.03261,0 -0.06521,-0.00006 -0.09779,-0.00019c-0.00017,0.00006 -0.00034,0.00012 -0.00051,0.00019c-0.01783,0.00655 -0.0357,0.0131 -0.05361,0.01965c-3.52615,1.90131 -7.56111,2.98035 -11.84809,2.98035c-0.42704,0 -0.85159,-0.01071 -1.27338,-0.03187c-0.2228,0.01188 -0.44535,0.0212 -0.6675,0.02784c-1.89976,0.35092 -3.59283,0.69194 -5.18023,1.00243c0.00451,3.16701 0.03739,6.33365 0.1211,9.49948c0.08327,3.14889 3.10453,14.32105 3.51452,16.59922c0.64673,3.59369 0.97826,6.98675 2.62124,10.27272c1.82907,3.47409 2.86424,7.43125 2.86424,11.63018c0,12.06853 -8.55155,22.13975 -19.92573,24.48472c-6.23456,1.40114 -13.04937,0.46785 -19.0497,-3.52158c-1.59683,-1.06168 -3.09593,-2.46797 -4.48394,-4.10313c-1.45107,-1.58783 -2.69999,-3.36352 -3.70606,-5.28634c-2.75771,-4.68104 -4.8151,-10.02204 -5.99291,-14.46996c-0.95648,-3.61209 -1.10773,-7.46305 -1.74657,-11.15272c-0.90153,-5.20686 -2.84811,-9.94858 -3.70447,-15.04473c-2.78227,-16.55701 -3.17691,-34.56683 1.60938,-50.72081c2.14904,-7.25315 -0.08745,-14.55667 4.125,-21.68544c0.54449,-0.92144 1.13127,-1.79291 1.75625,-2.6141c0.35606,-5.44858 1.84947,-10.86783 2.11875,-16.6626c0.26865,-5.78135 -0.18731,-10.64701 1.28292,-16.129c0.29697,-1.10731 0.61347,-2.34801 0.96965,-3.66147c0.14385,-1.00693 0.34771,-1.99452 0.60783,-2.95902c1.30661,-11.86168 7.32145,-24.24886 14.79586,-31.36444c14.57066,-13.87116 40.00812,-11.20803 57.34375,-10.10937c4.41484,0 8.5624,1.14437 12.16223,3.15266c4.43886,2.04298 8.31009,5.09491 9.43005,9.23878c2.16617,3.70159 3.40772,8.01009 3.40772,12.60856c0,3.13655 -0.57762,6.13819 -1.63228,8.90435c-0.44467,1.99787 -1.0954,3.89822 -2.27397,5.54877c-2.33453,3.26945 -5.41254,5.67085 -8.86983,7.35968c-3.6141,2.0297 -7.78384,3.18719 -12.22392,3.18719c-7.57466,0.62257 -15.2045,-0.24964 -22.8006,0c-0.10988,0.00361 -0.20368,0.02814 -0.2839,0.07035c-0.18933,2.3096 -0.6926,4.53029 -1.46706,6.61931c-0.18415,1.06036 -0.34286,2.17549 -0.44844,3.36728c-0.27718,3.12877 0.1336,6.33786 -0.25126,9.47859c-0.37039,3.0226 -1.53507,7.22488 -1.74874,10.54211c-0.08448,1.31155 -0.13099,2.57808 -0.19473,3.81727c3.68212,-0.77731 7.48116,-1.07864 11.19473,-0.89492c0.07449,0.00369 0.14915,0.00762 0.22398,0.01181c0.25771,-0.00786 0.5164,-0.01181 0.77602,-0.01181c13.80712,0 25,11.19288 25,25c0,13.80712 -11.19288,25 -25,25c-0.16705,0 -0.33373,-0.00164 -0.5,-0.0049c-0.16627,0.00326 -0.33295,0.0049 -0.5,0.0049z"/></g></g></svg>