<svg version="1.1" xmlns="http://www.w3.org/2000/svg" xmlns:xlink="http://www.w3.org/1999/xlink" width="200" height="200" viewBox="0,0,200,200"><g transform="translate(-220,-80)"><g stroke-miterlimit="10"><path d="M220,280v-200h200v200z" fill="#9966ff" stroke="none" stroke-width="0"/><path d="M233.51686,266v-172h172.96629v172z" fill="#9966ff" stroke="#000000" stroke-width="15"/><path d="M295.68901,145.30121c0,-1.38071 1.11929,-2.5 2.5,-2.5c1.38071,0 2.5,1.11929 2.5,2.5c0,1.38071 -1.11929,2.5 -2.5,2.5c-1.38071,0 -2.5,-1.11929 -2.5,-2.5z" fill="#9966ff" stroke="none" stroke-width="0.5"/><path d="M275.45739,141.9298l-2.2476,2.2476c-0.45241,0.45241 -1.07741,0.73224 -1.76776,0.73224c-1.38071,0 -2.5,-1.11929 -2.5,-2.5c0,-0.38813 0.08845,-0.7556 0.24629,-1.08336l2.04681,-4.50298c0.28303,-1.03307 0.6512,-2.01718 1.14752,-2.87901c-4.28873,-0.77704 -3.97775,-6.56791 -3.36191,-9.44618c0.4144,-1.93674 1.65836,-3.62467 2.81408,-5.23308c1.0992,-1.52976 2.43118,-2.90775 3.89097,-4.09831c0.48485,-0.39543 6.69106,-4.05506 7.82126,-4.72528c1.96942,-0.15779 4.27005,-1.57783 5.90824,-0.47337c1.77883,1.19928 2.03345,3.86692 1.77913,6.40657l1.85971,-1.28211c0.40805,-0.28955 0.90672,-0.45976 1.44515,-0.45976c0.84899,0 1.59913,0.42319 2.051,1.07014l0.83278,-0.60297c0.41591,-0.30881 0.93105,-0.4915 1.48886,-0.4915c1.38071,0 2.5,1.11929 2.5,2.5c0,0.52532 -0.16203,1.0128 -0.43883,1.41519l-2.75455,4.13181l-0.02839,-0.01892c-0.03786,0.07174 -0.07649,0.14313 -0.11593,0.21416c-0.02139,0.03853 -0.04328,0.07671 -0.06562,0.11453c0.02425,0.00948 0.04831,0.01932 0.07218,0.02953l1.97725,-1.41232c0.41378,-0.3034 0.92435,-0.48257 1.47677,-0.48257c1.13457,0 2.09262,0.75578 2.39814,1.79135l2.3322,-1.39932c0.3834,-0.2392 0.83629,-0.37741 1.32147,-0.37741c1.38071,0 2.5,1.11929 2.5,2.5c0,0.15625 -0.01433,0.30915 -0.04175,0.45746l-0.71515,4.29089l-0.0415,-0.00692c-0.05111,0.24922 -0.11737,0.49599 -0.20156,0.73987c-0.65721,1.90383 -2.64605,3.06213 -4.19854,4.3452c-2.97537,2.45905 -7.6011,5.13504 -11.42136,6.63341c-0.7976,0.71151 -1.60779,1.42071 -2.42348,2.14455l-0.17805,0.04835l0.03587,0.05381l-2.14023,1.42683c-0.40239,0.2768 -0.88986,0.43883 -1.41519,0.43883c-1.26937,0 -2.31779,-0.94605 -2.47861,-2.17153c-0.69698,0.02524 -1.33652,-0.01223 -1.86238,-0.14003c-0.32027,0.17928 -0.61782,0.34835 -0.87879,0.50951l-1.80835,-3.04094l-1.94879,0.95225c-0.34269,0.17659 -0.73149,0.27629 -1.14356,0.27629c-0.13072,0 -0.2591,-0.01004 -0.38441,-0.02938c-0.45904,0.46206 -0.92059,0.92397 -1.38335,1.38689zM286.22749,115.94753c0.02168,-0.09489 0.04298,-0.18985 0.06392,-0.28487c0.11358,-0.51537 0.84209,-1.26148 0.39036,-1.53433c-0.46795,-0.28264 -0.88046,0.64828 -1.32068,0.97242c-3.46519,2.16282 -6.96535,3.74085 -9.4896,7.11474c-0.81052,1.08334 -1.5788,2.24433 -2.00818,3.52738c-0.34791,1.03959 -1.07664,3.94814 -0.20572,3.28234c1.58123,-1.20881 3.18243,-2.3444 4.77099,-3.49226c0.09359,-3.97968 3.64964,-7.78946 6.93935,-9.141c0.27623,-0.11348 0.56475,-0.27041 0.85956,-0.44442z" fill="#9966ff" stroke="none" stroke-width="0.5"/><path d="M355.24068,171.90593c-3.16228,9.48684 -12.64911,6.32456 -12.64911,6.32456l-7.00639,-4.20972c-2.585,-3.50957 -5.02786,-6.67119 -7.39231,-10.34476c-1.17611,-1.82729 -2.78062,-3.45172 -3.49212,-5.50501c-0.21807,-0.62934 -0.32971,-1.28127 -0.38741,-1.94464c-0.64272,-0.64189 -1.27202,-1.29192 -1.71931,-2.07379c-0.84631,-1.47935 -0.45659,-3.58056 -1.5791,-4.86301c-0.67332,-0.76927 -1.5796,-1.33312 -2.16867,-2.16868c-0.81805,-1.16034 -0.63891,-3.09576 -1.85021,-3.83628c-0.59334,-0.36273 -1.20432,-0.72991 -1.81978,-1.10256c-4.01216,2.4823 -7.77902,1.04464 -9.96488,-0.30586c-1.18464,0 -2.36927,0 -3.55391,0c-2.67761,0 -5.52049,-0.30825 -8.17576,-0.07492c-1.87784,0.16502 -3.33925,1.45955 -4.87726,2.33848c-2.00052,1.14324 -4.36899,2.13451 -6.09892,3.67568c-0.99222,0.88395 -1.16616,2.39105 -1.83751,3.53786c-1.6857,2.87953 -2.70771,6.21044 -4.47124,9.18519c0.50831,1.38144 0.67749,2.64119 0.7338,3.32673c0.7722,2.34294 2.79007,4.53496 4.13173,6.56036c2.81232,4.24555 5.56239,8.81447 7.85269,13.36402c0.72928,1.44867 1.08444,3.11228 2.05971,4.40817c0.65965,0.8765 1.75705,1.40086 2.29937,2.35441c2.56804,4.51534 1.94444,7.84317 2.36413,5.29267c0,0 8.3205,5.547 2.7735,13.8675c-5.547,8.3205 -13.8675,2.7735 -13.8675,2.7735c-1.42227,-1.10674 -3.20333,-1.86533 -4.26682,-3.32022c-0.72535,-0.9923 -1.22804,-2.11492 -1.69124,-3.26218c-0.2931,0.30761 -0.57281,0.57134 -0.81901,0.78864c0.02546,0.07899 0.03357,0.15683 0.01618,0.21982c-0.28675,1.03877 -1.04784,1.89011 -1.44578,2.89157c-0.83163,2.09286 -0.844,4.45475 -0.82464,6.65102c0.00304,0.34483 0.01335,0.69003 0.02195,1.03521c2.02522,1.13175 3.93412,2.60635 6.38061,2.77465c6.83102,0.46994 13.56516,0.64796 20.46492,0.64796c2.72537,0 5.45284,0.19061 8.17575,0.07493c2.06171,-0.08759 3.81553,-1.64747 5.83679,-2.06316c1.34497,-0.2766 2.76288,0.13469 4.11852,-0.08378c4.25011,-0.68493 8.18997,-2.86528 12.13093,-4.44167c4.23213,-1.69285 9.34673,-3.37577 13.04753,-6.05657c0.93851,-0.67984 1.52593,-1.79403 2.51087,-2.40466c0.90881,-0.56343 2.18156,-0.39229 3.0365,-1.03455c0.85647,-0.64341 1.02871,-1.93716 1.84407,-2.63191c1.21458,-1.03492 3.31239,-1.107 4.07819,-2.50693c1.08294,-1.97968 1.93152,-4.08065 2.99104,-6.07296c0.31428,-1.39864 0.41721,-2.86225 0.94283,-4.19593c0.78724,-1.99751 3.34459,-4.46771 3.75658,-6.73894c0.36073,-1.98869 -0.18043,-4.03959 -0.18043,-6.06073c0,-2.82853 0.90864,-7.07906 -0.18162,-9.76669c-0.26457,-0.65221 -0.69757,-1.22829 -1.03472,-1.84621c-1.06931,-0.13806 -1.91233,-0.732 -3.01754,-0.87167c-2.06694,-0.26119 -3.75419,-0.10085 -5.33256,0.39911c0.86332,1.84793 1.15464,4.24483 0.13761,7.29592zM256.53434,166.83166c-1.0042,-4.34452 -1.80113,-6.08735 -0.59238,-11.10633c0.71206,-2.95666 3.63189,-5.61282 4.76313,-8.37661c2.07204,-5.06231 4.06277,-9.96998 8.05613,-14.06238c3.84478,-3.94013 10.20674,-7.70727 16.19856,-9.80454c1.79829,-2.65208 4.83693,-4.39478 8.2826,-4.39478c2.67892,0 5.11181,1.0534 6.90703,2.76859c0.50806,0.01247 1.01144,0.02057 1.50806,0.02057c2.40964,0 4.81927,0 7.22891,0l3.03048,1.55662c5.20299,-3.86928 11.19122,0.12287 11.19122,0.12287c2.53046,1.68698 5.94331,3.43814 8.03009,5.58679c1.72165,1.7727 2.47956,4.28563 3.93292,6.28421c0.60126,0.82682 1.60779,1.31395 2.16868,2.16867c1.0838,1.65157 1.96052,3.44239 2.71221,5.26921c0.0996,0.24204 0.03313,0.52416 -0.0087,0.79812c1.68288,1.1129 2.69849,2.67242 3.31141,4.14943c0.90898,-0.58217 1.70674,-1.06888 2.06808,-1.22564c9.18383,-3.98427 23.66492,-3.57743 31.62741,3.09414c4.56313,3.82333 6.93878,10.98639 7.67066,16.63189c0.43271,3.33781 0.04867,7.01159 0.04867,10.38297c0,1.57502 0.04736,8.73248 -0.18043,9.84288c-1.04269,5.08268 -4.60531,8.72412 -5.42108,13.64345c-0.69689,1.44516 -4.77615,10.06726 -5.68365,11.27644c-1.45922,1.94431 -3.28048,3.61133 -5.15689,5.15688c-0.65376,0.53849 -1.68988,0.45762 -2.33119,1.01088c-1.01418,0.87493 -1.42127,2.34817 -2.49328,3.15122c-1.22328,0.91635 -2.89902,1.04265 -4.19242,1.85702c-0.75009,0.47228 -1.10235,1.42148 -1.82648,1.93269c-1.96855,1.3897 -4.09813,2.54867 -6.25186,3.62937c-8.5181,4.27422 -18.4246,8.83614 -27.84679,10.45071c-1.02227,0.17517 -2.09161,-0.27826 -3.11039,-0.08378c-2.46452,0.47045 -4.67941,2.01763 -7.17527,2.27418c-0.85424,0.08781 -8.46493,0.07493 -10.61942,0.07493c-6.19883,0 -12.20807,-0.21102 -18.33478,-0.77156c-3.02168,-0.27645 -6.12941,-0.21347 -9.03941,-1.07303c-3.14044,-0.92762 -6.03815,-2.54437 -8.98277,-3.97686c-1.72177,-0.8376 -3.98861,-0.78717 -5.322,-2.16127c-8.3676,-8.62306 -5.79942,-23.08673 -1.67579,-32.95663c0.71055,-1.70068 0.83916,-3.69513 1.92758,-5.18259c1.23,-1.68095 3.19722,-2.67054 4.79583,-4.0058c0,0 1.24219,-0.82812 3.08661,-1.36446c-1.08889,-2.13906 -2.16758,-4.26203 -3.29715,-6.25962c-2.50769,-4.43475 -5.37439,-8.09998 -7.25493,-12.65679c-1.29651,-1.86133 -1.7492,-3.67206 -1.7492,-3.67206zM276.74626,163.19519l-0.08617,-0.49135c0.02155,0.16449 0.05048,0.32827 0.08617,0.49135z" fill="#000000" stroke="none" stroke-width="0.5"/></g></g></svg>