<svg version="1.1" xmlns="http://www.w3.org/2000/svg" xmlns:xlink="http://www.w3.org/1999/xlink" width="200" height="200" viewBox="0,0,200,200"><g transform="translate(-220,-80)"><g stroke-miterlimit="10"><path d="M220,280v-200h200v200z" fill="#9966ff" stroke="none" stroke-width="0"/><path d="M233.51686,266v-172h172.96629v172z" fill="#9966ff" stroke="#000000" stroke-width="15"/><path d="M402.32813,260.5c-8.16387,0 -9.66286,-6.66487 -9.9381,-9.11239c-1.16427,-2.99608 -2.70093,-4.92972 -4.79532,-7.54772c-1.76284,-2.20355 -3.36121,-5.29238 -5.33765,-7.26882c-1.97339,-1.97339 -3.90882,-2.1981 -6.18624,-3.56456c-0.80845,-0.48507 -1.2259,-1.46181 -2,-2c-1.46624,-1.0194 -3.52912,-0.74469 -5.1362,-1.52336c-3.06057,-1.48291 -4.5086,-2.4096 -7.76876,-3.49632c-2.21213,-0.94654 -4.35197,-0.48683 -6.83772,-0.48683c-2.19962,0 -5.26476,-0.55156 -7.39818,-0.12913c-1.03402,0.20474 -1.96001,0.82816 -3,1c-4.9077,0.81093 -10.08083,1.31097 -15,2c-1.1137,0.156 -2.12405,0.64386 -3.09133,1.21938c0.1416,0.06252 0.2806,0.13135 0.4165,0.20775c1.29309,0.72696 4.67302,4.14199 6.14408,5.63093c3.69068,3.73554 7.61121,8.14768 9.49985,13.17323c0.40264,1.07139 -0.28704,2.86565 0.74958,3.35084l1.6795,7.547c0,0 0,10 -10,10c-8.04161,0 -9.61647,-6.46675 -9.92489,-8.99963c-0.63432,-0.99377 -1.23328,-2.00423 -1.64603,-3.10253c-0.35179,-0.93608 0.2183,-2.02412 0,-3c-0.06022,-0.26922 -0.57148,-0.14016 -0.74958,-0.35084c-1.25669,-1.4865 -2.3632,-3.11058 -3.75056,-4.47593c-0.67198,-0.66131 -1.41858,-1.25782 -2,-2c-0.08144,-0.10396 0.27018,-0.32982 0.14408,-0.36907c-5.47181,-1.70332 -10.59868,-4.33737 -16.1497,-6.18707c-3.09008,-1.02967 -7.43783,-3.83683 -10.92331,-3.51493c-2.39176,0 -4.79701,-0.28856 -7.17519,-0.03407c-2.79761,0.29936 -5.44906,1.4342 -8.22298,1.90495c-3.72403,0.63199 -6.90871,0.64838 -10.34451,2.63563c-0.3645,0.21083 -0.3852,0.77444 -0.70529,1.04803c-2.4266,2.07404 -6.80119,4.16777 -8.8186,6.78535c-0.93269,1.21017 -1.58852,2.6443 -2.66235,3.73118c-0.84469,0.85495 -2.1185,1.18305 -3,2c-1.35216,1.25315 -1.81846,3.21727 -2.90767,4.70466c-1.01201,1.38196 -2.27075,2.72243 -2.67656,4.38655c0,0 -3.16228,9.48683 -12.64911,6.32456c-9.48683,-3.16228 -6.32456,-12.64911 -6.32456,-12.64911c2.07487,-5.70453 6.12252,-12.42688 10.41577,-16.90879c0.83137,-0.86791 2.14339,-1.15699 3,-2c0.62573,-0.61581 0.7793,-1.59132 1.33765,-2.26882c3.1373,-3.80683 7.41862,-6.14172 11.1814,-9.21465c1.1421,-0.93271 2.03383,-2.18742 3.29471,-2.95197c5.43047,-3.29283 11.61668,-4.38531 17.65549,-5.36437c3.29003,-0.5334 6.46528,-1.71923 9.77702,-2.09505c2.92286,-0.33169 5.88318,-0.03407 8.82481,-0.03407c5.11956,0.14365 9.14834,1.6494 13.59993,3.26275c2.4296,-2.39701 4.77933,-4.51997 8.00656,-6.2459c0.92951,-0.49711 2.05719,-0.5286 3,-1c3.90784,-1.95392 7.30969,-4.08499 11.79169,-4.88772c4.88201,-0.87438 10.1313,-1.18064 15,-2c1.03948,-0.17493 1.95735,-0.84513 3,-1c7.33095,-1.08889 16.8094,-0.72662 23.7641,1.38404c3.73712,1.24571 6.79465,2.70472 10.23124,4.50368c2.15492,1.12804 4.74249,1.28659 6.8638,2.47664c0.82226,0.46129 1.19155,1.51493 2,2c0.90388,0.54233 2.10425,0.44436 3,1c3.80969,2.36319 6.71756,5.77569 9.47611,9.16662c5.24129,6.44283 9.99145,12.06779 12.75341,20.17761l0.51317,4.16228c0,0 0,10 -10,10z" fill="#000000" stroke="none" stroke-width="0.5"/><path d="M409.32813,142.5c0,10 -10,10 -10,10l-4.42536,-0.29857c-3.5149,-0.87873 -7.99378,-3.03213 -11.57464,-2.70143c-7.53093,-0.10806 -13.9168,-2.96975 -21.22183,-4.07492c-1.54555,-0.23382 -3.20022,0.16105 -4.67601,-0.35416c-2.85788,-0.9977 -5.04926,-3.36884 -7.75765,-4.7207c-1.89743,-0.94708 -4.04206,-1.39247 -5.84942,-2.50181c-6.01925,-3.69454 -9.98797,-10.64673 -13.26115,-16.53632c-3.2601,-5.86605 -7.1701,-11.06671 -7.22658,-18.19586c-0.01577,-1.99043 1.00387,-3.85234 1.5058,-5.77851c0,0 3.16228,-9.48683 12.64911,-6.32456c9.48683,3.16228 6.32456,12.64911 6.32456,12.64911c-0.86313,0.38683 0.47238,1.61738 1.27923,3.02563c1.81165,3.16203 3.61441,7.60801 5.96736,10.4722c0.8547,1.04041 2.76142,3.50217 3.77149,3.99148c1.32375,0.64127 2.83542,0.83949 4.15058,1.49819c1.38335,0.69286 2.66743,1.58351 3.89152,2.52972c0.21827,0.16872 0.08235,0.68619 0.35084,0.74958c0.44462,0.10498 0.87114,-0.41448 1.32399,-0.35416c1.76622,0.23527 3.47154,0.80519 5.20352,1.22365c4.49244,1.08541 8.94371,2.82632 13.57464,2.70143c5.71036,0.16023 10.89178,1.91518 16.42536,3.29857l-0.42536,-0.29857c0,0 10,0 10,10z" fill="#000000" stroke="none" stroke-width="0.5"/><path d="M278.32813,129.5c0,-5.52285 4.47715,-10 10,-10c5.52285,0 10,4.47715 10,10c0,5.52285 -4.47715,10 -10,10c-5.52285,0 -10,-4.47715 -10,-10z" fill="#000000" stroke="none" stroke-width="0.5"/></g></g></svg>