<svg xmlns="http://www.w3.org/2000/svg" xmlns:xlink="http://www.w3.org/1999/xlink" version="1.1" width="410.8136413574219" height="118.65053253173828" viewBox="-0.1800000309944153 -0.18000068664550783 410.8136413574219 118.65053253173828"><g><g data-paper-data="{&quot;isPaintingLayer&quot;:true}" fill-rule="nonzero" stroke-linecap="none" stroke-linejoin="none" stroke-miterlimit="10" stroke-dasharray="" stroke-dashoffset="0" font-family="none" font-weight="none" font-size="none" text-anchor="none" style="mix-blend-mode: normal"><g data-paper-data="{&quot;index&quot;:null}" id="Platform" stroke-linejoin="miter"><path d="M 144.15 91.92 L 186.06 91.92 L 322.35 91.92 L 322.35 102.48 L 186.06 102.48 L 144.15 102.48 L 7.86 102.48 L 7.86 91.92 L 144.15 91.92 " id="Path" fill="#fdbb38" stroke-width="1.44" stroke-linecap="butt" stroke="#5e154d"/><path d="M 297.06 105.09 L 268.98 105.09 L 268.98 91.92 L 297.06 91.92 Z " id="Rectangle" fill="#fdbb38" stroke-width="1.44" stroke-linecap="butt" stroke="#5e154d"/><path d="M 288.78 105.09 L 288.78 91.92 " id="Path" fill="none" stroke-width="1.08" stroke-linecap="round" stroke="#5e154d"/><path d="M 277.23 105.09 L 277.23 91.92 " id="Path" fill="none" stroke-width="1.08" stroke-linecap="round" stroke="#5e154d"/><path d="M 160.74 105.09 L 132.66 105.09 L 132.66 91.92 L 160.74 91.92 Z " id="Rectangle" fill="#fdbb38" stroke-width="1.44" stroke-linecap="butt" stroke="#5e154d"/><g id="Group" stroke-linecap="butt"><path d="M 152.49 105.09 L 152.49 91.92 " id="Path" stroke-width="1.08" fill="none" stroke="#5e154d"/><path d="M 140.94 105.09 L 140.94 91.92 " id="Path" stroke-width="1.08" fill="none" stroke="#5e154d"/></g></g><g data-paper-data="{&quot;index&quot;:null}" id="tIRE-1"><path d="M 371.525 96.175 C 373.079 97.728 374.04 99.873 374.04 102.24 C 374.04 104.607 373.079 106.752 371.525 108.305 C 369.972 109.859 367.827 110.82 365.46 110.82 C 363.093 110.82 360.948 109.859 359.395 108.305 C 357.841 106.752 356.88 104.607 356.88 102.24 C 356.88 99.873 357.841 97.728 359.395 96.175 C 360.948 94.621 363.093 93.66 365.46 93.66 C 367.827 93.66 369.972 94.621 371.525 96.175 Z " id="Oval" fill="#f7c1d8" stroke="none" stroke-width="1" stroke-linecap="butt" stroke-linejoin="miter"/><path d="M 365.46 87.57 C 373.744 87.57 380.46 94.286 380.46 102.57 C 380.46 110.854 373.744 117.57 365.46 117.57 C 357.176 117.57 350.46 110.854 350.46 102.57 C 350.46 98.592 352.04 94.776 354.853 91.963 C 357.666 89.15 361.482 87.57 365.46 87.57 Z M 365.46 109.95 C 368.499 109.962 371.245 108.139 372.413 105.334 C 373.582 102.529 372.942 99.296 370.793 97.147 C 368.644 94.998 365.411 94.358 362.606 95.527 C 359.801 96.695 357.978 99.441 357.99 102.48 C 357.974 104.474 358.753 106.393 360.155 107.812 C 361.557 109.23 363.466 110.032 365.46 110.04 Z " id="Shape" fill="#5e154d" stroke="#5e154d" stroke-width="1.44" stroke-linecap="round" stroke-linejoin="round"/><path d="M 368.175 99.765 C 368.87 100.461 369.3 101.421 369.3 102.48 C 369.3 103.539 368.87 104.499 368.175 105.195 C 367.479 105.89 366.519 106.32 365.46 106.32 C 364.401 106.32 363.441 105.89 362.745 105.195 C 362.05 104.499 361.62 103.539 361.62 102.48 C 361.62 101.421 362.05 100.461 362.745 99.765 C 363.441 99.07 364.401 98.64 365.46 98.64 C 366.519 98.64 367.479 99.07 368.175 99.765 Z " id="Oval" fill="#ffffff" stroke="#da53d6" stroke-width="1.08" stroke-linecap="round" stroke-linejoin="round"/></g><g data-paper-data="{&quot;index&quot;:null}" id="Tire-2"><path d="M 236.04 90.48 C 242.667 90.48 248.04 95.853 248.04 102.48 C 248.04 109.107 242.667 114.48 236.04 114.48 C 229.413 114.48 224.04 109.107 224.04 102.48 C 224.04 95.853 229.413 90.48 236.04 90.48 Z " id="Path" fill="#f7c1d8" stroke="none" stroke-width="1" stroke-linecap="butt" stroke-linejoin="miter"/><path d="M 236.04 87.57 C 242.107 87.57 247.576 91.225 249.898 96.83 C 252.22 102.435 250.937 108.887 246.647 113.177 C 242.357 117.467 235.905 118.75 230.3 116.428 C 224.695 114.106 221.04 108.637 221.04 102.57 C 221.04 94.286 227.756 87.57 236.04 87.57 Z M 236.04 109.95 C 239.079 109.962 241.825 108.139 242.993 105.334 C 244.162 102.529 243.522 99.296 241.373 97.147 C 239.224 94.998 235.991 94.358 233.186 95.527 C 230.381 96.695 228.558 99.441 228.57 102.48 C 228.554 104.474 229.333 106.393 230.735 107.812 C 232.137 109.23 234.046 110.032 236.04 110.04 Z " id="Shape" fill="#5e154d" stroke="#5e154d" stroke-width="1.44" stroke-linecap="round" stroke-linejoin="round"/><path d="M 238.755 99.765 C 239.45 100.461 239.88 101.421 239.88 102.48 C 239.88 103.539 239.45 104.499 238.755 105.195 C 238.059 105.89 237.099 106.32 236.04 106.32 C 234.981 106.32 234.021 105.89 233.325 105.195 C 232.63 104.499 232.2 103.539 232.2 102.48 C 232.2 101.421 232.63 100.461 233.325 99.765 C 234.021 99.07 234.981 98.64 236.04 98.64 C 237.099 98.64 238.059 99.07 238.755 99.765 Z " id="Oval" fill="#ffffff" stroke="#da53d6" stroke-width="1.08" stroke-linecap="round" stroke-linejoin="round"/></g><g data-paper-data="{&quot;index&quot;:null}" id="Tire-3"><path d="M 192.93 90.48 C 199.557 90.48 204.93 95.853 204.93 102.48 C 204.93 109.107 199.557 114.48 192.93 114.48 C 186.303 114.48 180.93 109.107 180.93 102.48 C 180.93 95.853 186.303 90.48 192.93 90.48 Z " id="Path" fill="#f7c1d8" stroke="none" stroke-width="1" stroke-linecap="butt" stroke-linejoin="miter"/><path d="M 192.93 87.57 C 201.214 87.57 207.93 94.286 207.93 102.57 C 207.93 110.854 201.214 117.57 192.93 117.57 C 184.646 117.57 177.93 110.854 177.93 102.57 C 177.93 94.286 184.646 87.57 192.93 87.57 Z M 192.93 109.95 C 195.966 109.95 198.703 108.119 199.862 105.313 C 201.021 102.507 200.374 99.279 198.223 97.136 C 196.071 94.993 192.841 94.359 190.039 95.53 C 187.237 96.7 185.418 99.444 185.43 102.48 C 185.414 104.479 186.197 106.403 187.605 107.822 C 189.014 109.242 190.93 110.04 192.93 110.04 Z " id="Shape" fill="#5e154d" stroke="#5e154d" stroke-width="1.44" stroke-linecap="round" stroke-linejoin="round"/><path d="M 195.645 99.765 C 196.34 100.461 196.77 101.421 196.77 102.48 C 196.77 103.539 196.34 104.499 195.645 105.195 C 194.949 105.89 193.989 106.32 192.93 106.32 C 191.871 106.32 190.911 105.89 190.215 105.195 C 189.52 104.499 189.09 103.539 189.09 102.48 C 189.09 101.421 189.52 100.461 190.215 99.765 C 190.911 99.07 191.871 98.64 192.93 98.64 C 193.989 98.64 194.949 99.07 195.645 99.765 Z " id="Oval" fill="#ffffff" stroke="#da53d6" stroke-width="1.08" stroke-linecap="round" stroke-linejoin="round"/></g><path d="M 322.35 91.92 L 0.72 91.92 L 0.72 82.53 L 322.35 82.53 Z " data-paper-data="{&quot;index&quot;:null}" id="Rectangle" fill="#ffffff" stroke="#5e154d" stroke-width="1.44" stroke-linecap="round" stroke-linejoin="round"/><g data-paper-data="{&quot;index&quot;:null}" id="back-of-truck"><path d="M 322.35 82.53 L 318.39 82.53 L 318.39 14.7 L 322.35 14.7 Z " id="Rectangle" fill="#5e154d" stroke="#5e154d" stroke-width="1.08" stroke-linecap="round" stroke-linejoin="round"/><path d="M 318.39 16.77 L 142.59 16.77 " id="Path" fill="none" stroke="#fc9fe4" stroke-width="1.44" stroke-linecap="butt" stroke-linejoin="round"/><path d="M 318.39 33.51 L 142.59 33.51 " id="Path" fill="none" stroke="#fc9fe4" stroke-width="1.44" stroke-linecap="butt" stroke-linejoin="round"/><path d="M 142.59 50.25 L 318.39 50.25 " id="Path" fill="none" stroke="#fc9fe4" stroke-width="1.44" stroke-linecap="butt" stroke-linejoin="round"/><path d="M 318.39 66.99 L 142.59 66.99 " id="Path" fill="none" stroke="#fc9fe4" stroke-width="1.44" stroke-linecap="butt" stroke-linejoin="round"/><path d="M 14.82 0.72 L 318.39 0.72 L 318.39 82.53 L 5.37 82.53 L 5.37 11.91 C 5.37 3.78 9.06 0.72 14.82 0.72 Z " id="Path" fill="#da53d6" stroke="none" stroke-width="1" stroke-linecap="butt" stroke-linejoin="miter"/><path d="M 5.37 16.77 L 318.39 16.77 " id="Path" fill="none" stroke="#fc9fe4" stroke-width="1.44" stroke-linecap="butt" stroke-linejoin="round"/><path d="M 318.39 33.51 L 5.37 33.51 " id="Path" fill="none" stroke="#fc9fe4" stroke-width="1.44" stroke-linecap="butt" stroke-linejoin="round"/><path d="M 318.39 50.25 L 5.37 50.25 " id="Path" fill="none" stroke="#fc9fe4" stroke-width="1.44" stroke-linecap="butt" stroke-linejoin="round"/><path d="M 318.39 66.99 L 5.37 66.99 " id="Path" fill="none" stroke="#fc9fe4" stroke-width="1.44" stroke-linecap="butt" stroke-linejoin="round"/><path d="M 5.37 11.91 C 5.37 3.72 9.06 0.72 14.82 0.72 L 318.39 0.72 L 318.39 82.53 L 5.37 82.53 Z " id="Path" fill="none" stroke="#5e154d" stroke-width="1.44" stroke-linecap="round" stroke-linejoin="round"/><path d="M 10.08 12.72 L 10.08 10.38 C 9.912 8.875 10.456 7.378 11.55 6.331 C 12.644 5.284 14.164 4.806 15.66 5.04 L 18.87 5.04 " id="Path" fill="none" stroke="#ffffff" stroke-width="1.8" stroke-linecap="round" stroke-linejoin="round"/><path d="M 23.19 5.04 L 47.37 5.04 " id="Path" fill="none" stroke="#ffffff" stroke-width="1.8" stroke-linecap="round" stroke-linejoin="round"/></g><g data-paper-data="{&quot;index&quot;:null}" id="Front-of-truck"><path d="M 399.06 65.46 L 378.75 54.06 L 377.82 49.68 L 400.02 62.04 C 404.49 64.53 404.49 66.69 404.49 72.03 L 404.49 102.48 L 401.28 102.48 L 401.28 71.64 C 401.28 68.97 401.22 66.69 399.06 65.46 Z " id="Path" fill="#25b0b7" stroke="none" stroke-width="1" stroke-linecap="butt" stroke-linejoin="miter"/><path d="M 362.85 10.11 C 367.2 10.11 369.09 11.28 370.08 15.84 C 370.29 16.92 370.8 19.08 371.43 21.84 L 367.71 21.84 C 366.463 21.856 365.46 22.872 365.46 24.12 L 365.46 45.45 C 365.476 46.686 366.474 47.684 367.71 47.7 L 377.34 47.7 L 377.82 49.71 L 378.75 54.09 L 399.06 65.49 C 401.22 66.72 401.28 69 401.28 71.67 L 401.28 102.48 L 384.39 102.48 C 384.664 95.64 381.172 89.2 375.29 85.698 C 369.408 82.197 362.082 82.197 356.2 85.698 C 350.318 89.2 346.826 95.64 347.1 102.48 L 322.23 102.48 L 322.23 10.11 Z " id="Path" fill="#43c3d7" stroke="none" stroke-width="1" stroke-linecap="butt" stroke-linejoin="miter"/><path d="M 394.02 91.95 L 388.02 91.95 L 388.02 88.62 L 394.02 88.62 Z " id="Rectangle" fill="none" stroke="#5e154d" stroke-width="1.44" stroke-linecap="round" stroke-linejoin="round"/><path d="M 330.06 16.77 L 357.84 16.77 C 359.27 16.786 360.42 17.95 360.42 19.38 L 360.42 79.08 C 351.761 80.511 344.905 87.175 343.23 95.79 L 330.18 95.79 C 329.488 95.79 328.824 95.515 328.334 95.026 C 327.845 94.536 327.57 93.872 327.57 93.18 L 327.57 19.38 C 327.569 17.984 328.666 16.834 330.06 16.77 Z " id="Path" fill="none" stroke="#009cc6" stroke-width="1.08" stroke-linecap="round" stroke-linejoin="round"/><path d="M 356.28 62.43 L 352.8 62.43 L 352.8 55.98 L 356.28 55.98 Z " id="Rectangle" fill="none" stroke="#009cc6" stroke-width="1.08" stroke-linecap="round" stroke-linejoin="round"/><path d="M 341.1 57.09 L 331.74 57.09 L 331.74 53.55 L 341.1 53.55 Z " id="Rectangle" fill="none" stroke="#009cc6" stroke-width="1.08" stroke-linecap="round" stroke-linejoin="round"/><path d="M 331.71 21.81 L 334.56 21.81 L 343.62 47.7 L 331.71 47.7 L 331.71 21.81 " id="Path" fill="#f7c1d8" stroke="none" stroke-width="1" stroke-linecap="butt" stroke-linejoin="miter"/><path d="M 356.16 21.81 L 356.16 47.7 L 352.5 47.7 L 343.47 21.81 L 356.16 21.81 " id="Path" fill="#f7c1d8" stroke="none" stroke-width="1" stroke-linecap="butt" stroke-linejoin="miter"/><path d="M 343.47 21.81 L 352.5 47.7 L 347.97 47.7 L 338.91 21.81 L 343.47 21.81 " id="Path" fill="#ffeef6" stroke="none" stroke-width="1" stroke-linecap="butt" stroke-linejoin="miter"/><path d="M 367.71 21.81 L 371.43 21.81 C 373.23 29.82 376.23 42.81 377.43 47.67 L 374.01 47.67 L 365.58 23.67 C 365.783 22.637 366.659 21.872 367.71 21.81 Z " id="Path" fill="#f7c1d8" stroke="none" stroke-width="1" stroke-linecap="butt" stroke-linejoin="miter"/><path d="M 371.4 47.67 L 367.71 47.67 C 366.474 47.654 365.476 46.656 365.46 45.42 L 365.46 30.06 Z " id="Path" fill="#f7c1d8" stroke="none" stroke-width="1" stroke-linecap="butt" stroke-linejoin="miter"/><path d="M 365.46 24.09 C 365.445 23.93 365.445 23.77 365.46 23.61 L 373.89 47.61 L 371.37 47.61 L 365.37 30 Z " id="Path" fill="#ffeef6" stroke="none" stroke-width="1" stroke-linecap="butt" stroke-linejoin="miter"/><path d="M 338.91 21.81 L 347.97 47.7 L 345.6 47.7 L 336.57 21.81 L 338.91 21.81 " id="Path" fill="#f7c1d8" stroke="none" stroke-width="1" stroke-linecap="butt" stroke-linejoin="miter"/><path d="M 336.57 21.81 L 345.6 47.7 L 343.62 47.7 L 334.56 21.81 L 336.57 21.81 " id="Path" fill="#ffeef6" stroke="none" stroke-width="1" stroke-linecap="butt" stroke-linejoin="miter"/><path d="M 377.04 15.93 C 378.3 15.93 378.6 17.22 379.32 19.65 C 380.31 22.98 381.99 29.37 381.99 29.37 L 377.34 29.37 L 374.04 15.93 Z " id="Path" fill="#43c3d7" stroke="#5e154d" stroke-width="1.08" stroke-linecap="round" stroke-linejoin="round"/><path d="M 374.07 15.93 L 374.91 19.41 L 370.86 19.41 L 370.08 15.93 L 374.07 15.93 " id="Path" fill="#43c3d7" stroke="#5e154d" stroke-width="1.08" stroke-linecap="round" stroke-linejoin="round"/><path d="M 356.16 47.67 L 331.71 47.67 L 331.71 21.81 L 356.16 21.81 Z " id="Rectangle" fill="none" stroke="#5e154d" stroke-width="1.08" stroke-linecap="round" stroke-linejoin="round"/><path d="M 362.85 10.11 C 367.2 10.11 369.09 11.28 370.08 15.84 C 370.29 16.92 370.8 19.08 371.43 21.84 C 373.23 29.85 376.23 42.84 377.43 47.7 L 377.91 49.71 L 400.02 62.04 C 404.49 64.53 404.49 66.69 404.49 72.03 L 404.49 102.48 L 384.39 102.48 C 384.664 95.64 381.172 89.2 375.29 85.698 C 369.408 82.197 362.082 82.197 356.2 85.698 C 350.318 89.2 346.826 95.64 347.1 102.48 L 322.23 102.48 L 322.23 10.11 Z " id="Path" fill="none" stroke="#5e154d" stroke-width="1.44" stroke-linecap="butt" stroke-linejoin="round"/><path d="M 362.85 10.11 C 367.2 10.11 369.09 11.28 370.08 15.84 C 370.29 16.92 370.8 19.08 371.43 21.84 C 373.23 29.85 376.23 42.84 377.43 47.7 L 377.91 49.71 L 400.02 62.04 C 404.49 64.53 404.49 66.69 404.49 72.03 L 404.49 102.48 L 384.39 102.48 C 384.664 95.64 381.172 89.2 375.29 85.698 C 369.408 82.197 362.082 82.197 356.2 85.698 C 350.318 89.2 346.826 95.64 347.1 102.48 L 322.23 102.48 L 322.23 10.11 Z " id="Path" fill="none" stroke="#5e154d" stroke-width="1.44" stroke-linecap="round" stroke-linejoin="round"/><path d="M 365.49 23.61 C 365.725 22.569 366.643 21.825 367.71 21.81 L 371.43 21.81 C 373.23 29.82 376.23 42.81 377.43 47.67 L 367.8 47.67 C 366.564 47.654 365.566 46.656 365.55 45.42 L 365.55 24.09 C 365.515 23.932 365.495 23.772 365.49 23.61 Z " id="Path" fill="none" stroke="#5e154d" stroke-width="1.08" stroke-linecap="round" stroke-linejoin="round"/><path d="M 406.71 94.41 L 406.71 97.17 L 393.48 97.17 L 392.88 94.41 L 406.71 94.41 " id="Path" fill="#00828c" stroke="#5e154d" stroke-width="1.08" stroke-linecap="round" stroke-linejoin="round"/><path d="M 406.71 99.63 L 393.99 99.63 L 393.48 97.17 L 406.71 97.17 L 406.71 99.63 " id="Path" fill="#00828c" stroke="#5e154d" stroke-width="1.08" stroke-linecap="round" stroke-linejoin="round"/><path d="M 392.37 91.92 L 406.71 91.92 L 406.71 94.41 L 392.88 94.41 L 392.37 91.92 " id="Path" fill="#00828c" stroke="#5e154d" stroke-width="1.08" stroke-linecap="round" stroke-linejoin="round"/><path d="M 404.49 76.68 L 406.71 76.68 C 408.45 76.68 409.2 79.26 409.53 81.81 L 404.49 81.81 Z " id="Path" fill="#fdbb38" stroke="none" stroke-width="1" stroke-linecap="butt" stroke-linejoin="miter"/><path d="M 409.53 81.81 C 409.712 83.514 409.772 85.228 409.71 86.94 L 404.49 86.94 L 404.49 81.81 Z " id="Path" fill="#ffffff" stroke="none" stroke-width="1" stroke-linecap="butt" stroke-linejoin="miter"/><path d="M 406.71 76.68 C 408.45 76.68 409.2 79.26 409.53 81.81 C 409.712 83.514 409.772 85.228 409.71 86.94 L 404.49 86.94 L 404.49 76.68 Z " id="Path" fill="none" stroke="#5e154d" stroke-width="1.44" stroke-linecap="round" stroke-linejoin="round"/></g><g data-paper-data="{&quot;index&quot;:null}" id="Tire-3"><path d="M 99.75 90.48 C 106.377 90.48 111.75 95.853 111.75 102.48 C 111.75 109.107 106.377 114.48 99.75 114.48 C 93.123 114.48 87.75 109.107 87.75 102.48 C 87.75 95.853 93.123 90.48 99.75 90.48 Z " id="Path" fill="#f7c1d8" stroke="none" stroke-width="1" stroke-linecap="butt" stroke-linejoin="miter"/><path d="M 99.75 87.57 C 108.034 87.57 114.75 94.286 114.75 102.57 C 114.75 110.854 108.034 117.57 99.75 117.57 C 91.466 117.57 84.75 110.854 84.75 102.57 C 84.75 94.286 91.466 87.57 99.75 87.57 Z M 99.75 109.95 C 102.789 109.962 105.535 108.139 106.703 105.334 C 107.872 102.529 107.232 99.296 105.083 97.147 C 102.934 94.998 99.701 94.358 96.896 95.527 C 94.091 96.695 92.268 99.441 92.28 102.48 C 92.256 104.477 93.032 106.4 94.436 107.82 C 95.839 109.241 97.753 110.04 99.75 110.04 Z " id="Shape" fill="#5e154d" stroke="#5e154d" stroke-width="1.44" stroke-linecap="round" stroke-linejoin="round"/><path d="M 102.465 99.765 C 103.16 100.461 103.59 101.421 103.59 102.48 C 103.59 103.539 103.16 104.499 102.465 105.195 C 101.769 105.89 100.809 106.32 99.75 106.32 C 98.691 106.32 97.731 105.89 97.035 105.195 C 96.34 104.499 95.91 103.539 95.91 102.48 C 95.91 101.421 96.34 100.461 97.035 99.765 C 97.731 99.07 98.691 98.64 99.75 98.64 C 100.809 98.64 101.769 99.07 102.465 99.765 Z " id="Oval" fill="#ffffff" stroke="#da53d6" stroke-width="1.08" stroke-linecap="round" stroke-linejoin="round"/></g><g data-paper-data="{&quot;index&quot;:null}" id="Tire-4"><path d="M 56.61 90.48 C 63.237 90.48 68.61 95.853 68.61 102.48 C 68.61 109.107 63.237 114.48 56.61 114.48 C 49.983 114.48 44.61 109.107 44.61 102.48 C 44.61 95.853 49.983 90.48 56.61 90.48 Z " id="Path" fill="#f7c1d8" stroke="none" stroke-width="1" stroke-linecap="butt" stroke-linejoin="miter"/><path d="M 56.61 87.57 C 64.894 87.57 71.61 94.286 71.61 102.57 C 71.61 110.854 64.894 117.57 56.61 117.57 C 48.326 117.57 41.61 110.854 41.61 102.57 C 41.61 94.286 48.326 87.57 56.61 87.57 Z M 56.61 109.95 C 59.657 109.999 62.43 108.199 63.627 105.397 C 64.824 102.595 64.207 99.347 62.065 97.18 C 59.924 95.012 56.684 94.356 53.867 95.519 C 51.051 96.682 49.218 99.433 49.23 102.48 C 49.206 104.461 49.97 106.371 51.354 107.789 C 52.738 109.206 54.629 110.016 56.61 110.04 Z " id="Shape" fill="#5e154d" stroke="#5e154d" stroke-width="1.44" stroke-linecap="round" stroke-linejoin="round"/><path d="M 59.325 99.765 C 60.02 100.461 60.45 101.421 60.45 102.48 C 60.45 103.539 60.02 104.499 59.325 105.195 C 58.629 105.89 57.669 106.32 56.61 106.32 C 55.551 106.32 54.591 105.89 53.895 105.195 C 53.2 104.499 52.77 103.539 52.77 102.48 C 52.77 101.421 53.2 100.461 53.895 99.765 C 54.591 99.07 55.551 98.64 56.61 98.64 C 57.669 98.64 58.629 99.07 59.325 99.765 Z " id="Oval" fill="#ffffff" stroke="#da53d6" stroke-width="1.08" stroke-linecap="round" stroke-linejoin="round"/></g></g></g></svg>