<svg version="1.1" xmlns="http://www.w3.org/2000/svg" xmlns:xlink="http://www.w3.org/1999/xlink" width="249.77862" height="72.39161" viewBox="0,0,249.77862,72.39161"><g transform="translate(-189.86991,-2.13988)"><g stroke-miterlimit="10"><g stroke="#5e154d" stroke-linejoin="miter"><path d="M277.68057,58.2365h25.44774h82.75525v6.41203h-82.75525h-25.44774h-82.75525v-6.41203h82.75525" fill="#fdbb38" stroke-width="1.44" stroke-linecap="butt"/><path d="M370.52748,66.23332h-17.05017v-7.99682h17.05017z" fill="#fdbb38" stroke-width="1.44" stroke-linecap="butt"/><path d="M365.49987,66.23332v-7.99682" fill="none" stroke-width="1.08" stroke-linecap="round"/><path d="M358.48671,66.23332v-7.99682" fill="none" stroke-width="1.08" stroke-linecap="round"/><path d="M287.75401,66.23332h-17.05017v-7.99682h17.05017z" fill="#fdbb38" stroke-width="1.44" stroke-linecap="butt"/><g fill="none" stroke-width="1.08" stroke-linecap="butt"><path d="M282.74462,66.23332v-7.99682"/><path d="M275.73146,66.23332v-7.99682"/></g></g><g><path d="M415.74261,60.82013c0.94359,0.94298 1.52711,2.24542 1.52711,3.68267c0,1.43724 -0.58352,2.73969 -1.52711,3.68267c-0.94298,0.94359 -2.24542,1.52711 -3.68267,1.52711c-1.43724,0 -2.73969,-0.58352 -3.68267,-1.52711c-0.94359,-0.94298 -1.52711,-2.24542 -1.52711,-3.68267c0,-1.43724 0.58352,-2.73969 1.52711,-3.68267c0.94298,-0.94359 2.24542,-1.52711 3.68267,-1.52711c1.43724,0 2.73969,0.58352 3.68267,1.52711z" fill="#f7c1d8" stroke="none" stroke-width="1" stroke-linecap="butt" stroke-linejoin="miter"/><path d="M412.05995,55.59518c5.03004,0 9.108,4.07795 9.108,9.108c0,5.03004 -4.07795,9.108 -9.108,9.108c-5.03004,0 -9.108,-4.07795 -9.108,-9.108c0,-2.41544 0.95938,-4.73251 2.66743,-6.44057c1.70805,-1.70805 4.02513,-2.66743 6.44057,-2.66743zM412.05995,69.18431c1.84528,0.00729 3.51265,-1.09964 4.22186,-2.80283c0.70982,-1.7032 0.32121,-3.66627 -0.98366,-4.97114c-1.30487,-1.30487 -3.26795,-1.69348 -4.97114,-0.98366c-1.7032,0.70921 -2.81012,2.37658 -2.80283,4.22186c-0.00972,1.21076 0.46329,2.37597 1.31459,3.23759c0.85129,0.86101 2.01044,1.34798 3.22119,1.35284z" fill="#5e154d" stroke="#5e154d" stroke-width="1.44" stroke-linecap="round" stroke-linejoin="round"/><path d="M413.70849,62.99998c0.422,0.42261 0.6831,1.00552 0.6831,1.64855c0,0.64302 -0.2611,1.22594 -0.6831,1.64855c-0.42261,0.422 -1.00552,0.6831 -1.64855,0.6831c-0.64302,0 -1.22594,-0.2611 -1.64855,-0.6831c-0.422,-0.42261 -0.6831,-1.00552 -0.6831,-1.64855c0,-0.64302 0.2611,-1.22594 0.6831,-1.64855c0.42261,-0.422 1.00552,-0.6831 1.64855,-0.6831c0.64302,0 1.22594,0.2611 1.64855,0.6831z" fill="#ffffff" stroke="#da53d6" stroke-width="1.08" stroke-linecap="round" stroke-linejoin="round"/></g><g><path d="M333.47616,57.36213c4.02391,0 7.2864,3.26248 7.2864,7.2864c0,4.02391 -3.26248,7.2864 -7.2864,7.2864c-4.02391,0 -7.2864,-3.26248 -7.2864,-7.2864c0,-4.02391 3.26248,-7.2864 7.2864,-7.2864z" fill="#f7c1d8" stroke="none" stroke-width="1" stroke-linecap="butt" stroke-linejoin="miter"/><path d="M333.47616,55.59518c3.68388,0 7.00466,2.21932 8.41457,5.62267c1.40992,3.40335 0.63088,7.32101 -1.97401,9.92589c-2.60489,2.60489 -6.52254,3.38392 -9.92589,1.97401c-3.40335,-1.40992 -5.62267,-4.73069 -5.62267,-8.41457c0,-5.03004 4.07795,-9.108 9.108,-9.108zM333.47616,69.18431c1.84528,0.00729 3.51265,-1.09964 4.22186,-2.80283c0.70982,-1.7032 0.32121,-3.66627 -0.98366,-4.97114c-1.30487,-1.30487 -3.26795,-1.69348 -4.97114,-0.98366c-1.7032,0.70921 -2.81012,2.37658 -2.80283,4.22186c-0.00972,1.21076 0.46329,2.37597 1.31459,3.23759c0.85129,0.86101 2.01044,1.34798 3.22119,1.35284z" fill="#5e154d" stroke="#5e154d" stroke-width="1.44" stroke-linecap="round" stroke-linejoin="round"/><path d="M335.1247,62.99998c0.422,0.42261 0.6831,1.00552 0.6831,1.64855c0,0.64302 -0.2611,1.22594 -0.6831,1.64855c-0.42261,0.422 -1.00552,0.6831 -1.64855,0.6831c-0.64302,0 -1.22594,-0.2611 -1.64855,-0.6831c-0.422,-0.42261 -0.6831,-1.00552 -0.6831,-1.64855c0,-0.64302 0.2611,-1.22594 0.6831,-1.64855c0.42261,-0.422 1.00552,-0.6831 1.64855,-0.6831c0.64302,0 1.22594,0.2611 1.64855,0.6831z" fill="#ffffff" stroke="#da53d6" stroke-width="1.08" stroke-linecap="round" stroke-linejoin="round"/></g><g><path d="M307.29977,57.36213c4.02391,0 7.2864,3.26248 7.2864,7.2864c0,4.02391 -3.26248,7.2864 -7.2864,7.2864c-4.02391,0 -7.2864,-3.26248 -7.2864,-7.2864c0,-4.02391 3.26248,-7.2864 7.2864,-7.2864z" fill="#f7c1d8" stroke="none" stroke-width="1" stroke-linecap="butt" stroke-linejoin="miter"/><path d="M307.29977,55.59518c5.03004,0 9.108,4.07795 9.108,9.108c0,5.03004 -4.07795,9.108 -9.108,9.108c-5.03004,0 -9.108,-4.07795 -9.108,-9.108c0,-5.03004 4.07795,-9.108 9.108,-9.108zM307.29977,69.18431c1.84346,0 3.50536,-1.11178 4.20911,-2.81559c0.70374,-1.7038 0.31089,-3.66384 -0.9952,-4.96507c-1.30669,-1.30123 -3.26795,-1.68619 -4.96932,-0.97516c-1.70137,0.71042 -2.80587,2.37658 -2.79858,4.22004c-0.00972,1.21379 0.46572,2.38204 1.32066,3.24366c0.85554,0.86222 2.01894,1.34677 3.23334,1.34677z" fill="#5e154d" stroke="#5e154d" stroke-width="1.44" stroke-linecap="round" stroke-linejoin="round"/><path d="M308.94832,62.99998c0.422,0.42261 0.6831,1.00552 0.6831,1.64855c0,0.64302 -0.2611,1.22594 -0.6831,1.64855c-0.42261,0.422 -1.00552,0.6831 -1.64855,0.6831c-0.64302,0 -1.22594,-0.2611 -1.64855,-0.6831c-0.422,-0.42261 -0.6831,-1.00552 -0.6831,-1.64855c0,-0.64302 0.2611,-1.22594 0.6831,-1.64855c0.42261,-0.422 1.00552,-0.6831 1.64855,-0.6831c0.64302,0 1.22594,0.2611 1.64855,0.6831z" fill="#ffffff" stroke="#da53d6" stroke-width="1.08" stroke-linecap="round" stroke-linejoin="round"/></g><path d="M385.88356,58.2365h-195.29365v-5.70161h195.29365z" fill="#ffffff" stroke="#5e154d" stroke-width="1.44" stroke-linecap="round" stroke-linejoin="round"/><g><path d="M385.88356,52.53489h-2.40451v-41.18636h2.40451z" fill="#5e154d" stroke="#5e154d" stroke-width="1.08" stroke-linecap="round" stroke-linejoin="round"/><path d="M383.47905,12.60544h-106.74571" fill="none" stroke="#fc9fe4" stroke-width="1.44" stroke-linecap="butt" stroke-linejoin="round"/><path d="M276.73334,22.76996h106.74571" fill="none" stroke="#fc9fe4" stroke-width="1.44" stroke-linecap="butt" stroke-linejoin="round"/><path d="M276.73334,32.93448h106.74571" fill="none" stroke="#fc9fe4" stroke-width="1.44" stroke-linecap="butt" stroke-linejoin="round"/><path d="M383.47905,43.09901h-106.74571" fill="none" stroke="#fc9fe4" stroke-width="1.44" stroke-linecap="butt" stroke-linejoin="round"/><path d="M199.15143,2.85988h184.32763v49.67501h-190.06566v-42.88045c0,-4.93653 2.24057,-6.79457 5.73804,-6.79457z" fill="#da53d6" stroke="none" stroke-width="1" stroke-linecap="butt" stroke-linejoin="miter"/><path d="M193.41339,12.60544h190.06566" fill="none" stroke="#fc9fe4" stroke-width="1.44" stroke-linecap="butt" stroke-linejoin="round"/><path d="M383.47905,22.76996h-190.06566" fill="none" stroke="#fc9fe4" stroke-width="1.44" stroke-linecap="butt" stroke-linejoin="round"/><path d="M383.47905,32.93448h-190.06566" fill="none" stroke="#fc9fe4" stroke-width="1.44" stroke-linecap="butt" stroke-linejoin="round"/><path d="M383.47905,43.09901h-190.06566" fill="none" stroke="#fc9fe4" stroke-width="1.44" stroke-linecap="butt" stroke-linejoin="round"/><path d="M193.41339,9.65444c0,-4.97297 2.24057,-6.79457 5.73804,-6.79457h184.32763v49.67501h-190.06566z" fill="none" stroke="#5e154d" stroke-width="1.44" stroke-linecap="round" stroke-linejoin="round"/><path d="M196.2733,10.14628v-1.42085c-0.10201,-0.91384 0.22831,-1.82281 0.89258,-2.45855c0.66428,-0.63574 1.58722,-0.92598 2.49559,-0.78389h1.94911" fill="none" stroke="#ffffff" stroke-width="1.8" stroke-linecap="round" stroke-linejoin="round"/><path d="M204.23369,5.48298h14.68209" fill="none" stroke="#ffffff" stroke-width="1.8" stroke-linecap="round" stroke-linejoin="round"/></g><g><path d="M432.46186,42.16999l-12.33223,-6.92208l-0.5647,-2.65953l13.47983,7.50499c2.71418,1.51193 2.71418,2.82348 2.71418,6.06593v18.48923h-1.94911v-18.72604c0,-1.62122 -0.03643,-3.00564 -1.34798,-3.75249z" fill="#25b0b7" stroke="none" stroke-width="1" stroke-linecap="butt" stroke-linejoin="miter"/><path d="M410.47515,8.56149c2.64132,0 3.78893,0.71042 4.39005,3.47925c0.12751,0.65578 0.43718,1.96733 0.81972,3.6432h-2.25878c-0.75718,0.00972 -1.3662,0.62663 -1.3662,1.38442v12.95157c0.00972,0.7505 0.6157,1.35648 1.3662,1.3662h5.84733l0.29146,1.22047l0.5647,2.65953l12.33223,6.92208c1.31155,0.74686 1.34798,2.13127 1.34798,3.75249v18.70782h-10.2556c0.16637,-4.15325 -1.95397,-8.06361 -5.52552,-10.19003c-3.57155,-2.12581 -8.01989,-2.12581 -11.59144,0c-3.57155,2.12641 -5.69189,6.03678 -5.52552,10.19003h-15.10106v-56.08704z" fill="#43c3d7" stroke="none" stroke-width="1" stroke-linecap="butt" stroke-linejoin="miter"/><path d="M429.40157,58.25471h-3.6432v-2.02198h3.6432z" fill="none" stroke="#5e154d" stroke-width="1.44" stroke-linecap="round" stroke-linejoin="round"/><path d="M390.56507,12.60544h16.86801c0.8683,0.00972 1.56658,0.7165 1.56658,1.58479v36.24982c-5.25774,0.8689 -9.4207,4.91528 -10.43776,10.14631h-7.92396c-0.42018,0 -0.82336,-0.16698 -1.12089,-0.4639c-0.29692,-0.29753 -0.4639,-0.70071 -0.4639,-1.12089v-44.81134c-0.00061,-0.84765 0.66549,-1.54593 1.51193,-1.58479z" fill="none" stroke="#009cc6" stroke-width="1.08" stroke-linecap="round" stroke-linejoin="round"/><path d="M406.48585,40.33018h-2.11306v-3.91644h2.11306z" fill="none" stroke="#009cc6" stroke-width="1.08" stroke-linecap="round" stroke-linejoin="round"/><path d="M397.26856,37.08773h-5.68339v-2.14949h5.68339z" fill="none" stroke="#009cc6" stroke-width="1.08" stroke-linecap="round" stroke-linejoin="round"/><path d="M391.56695,15.66572h1.73052l5.50123,15.7204h-7.23175v-15.7204" fill="#f7c1d8" stroke="none" stroke-width="1" stroke-linecap="butt" stroke-linejoin="miter"/><path d="M406.41299,15.66572v15.7204h-2.22235l-5.48301,-15.7204h7.70536" fill="#f7c1d8" stroke="none" stroke-width="1" stroke-linecap="butt" stroke-linejoin="miter"/><path d="M398.70762,15.66572l5.48301,15.7204h-2.75061l-5.50123,-15.7204h2.76883" fill="#ffeef6" stroke="none" stroke-width="1" stroke-linecap="butt" stroke-linejoin="miter"/><path d="M413.42614,15.66572h2.25878c1.09296,4.86367 2.91456,12.75119 3.6432,15.70219h-2.07662l-5.11869,-14.57279c0.12326,-0.62724 0.65517,-1.09175 1.29334,-1.12939z" fill="#f7c1d8" stroke="none" stroke-width="1" stroke-linecap="butt" stroke-linejoin="miter"/><path d="M415.66671,31.36791h-2.24057c-0.7505,-0.00972 -1.35648,-0.6157 -1.3662,-1.3662v-9.32659z" fill="#f7c1d8" stroke="none" stroke-width="1" stroke-linecap="butt" stroke-linejoin="miter"/><path d="M412.05995,17.05014c-0.00911,-0.09715 -0.00911,-0.1943 0,-0.29146l5.11869,14.57279h-1.53014l-3.6432,-10.69279z" fill="#ffeef6" stroke="none" stroke-width="1" stroke-linecap="butt" stroke-linejoin="miter"/><path d="M395.93879,15.66572l5.50123,15.7204h-1.43906l-5.48301,-15.7204h1.42085" fill="#f7c1d8" stroke="none" stroke-width="1" stroke-linecap="butt" stroke-linejoin="miter"/><path d="M394.51795,15.66572l5.48301,15.7204h-1.20226l-5.50123,-15.7204h1.22047" fill="#ffeef6" stroke="none" stroke-width="1" stroke-linecap="butt" stroke-linejoin="miter"/><path d="M419.09132,12.09539c0.76507,0 0.94723,0.78329 1.38442,2.25878c0.60113,2.02198 1.62122,5.90198 1.62122,5.90198h-2.82348l-2.00376,-8.16076z" fill="#43c3d7" stroke="#5e154d" stroke-width="1.08" stroke-linecap="round" stroke-linejoin="round"/><path d="M417.28794,12.09539l0.51005,2.11306h-2.45916l-0.47362,-2.11306h2.42273" fill="#43c3d7" stroke="#5e154d" stroke-width="1.08" stroke-linecap="round" stroke-linejoin="round"/><path d="M406.41299,31.36791h-14.84603v-15.70219h14.84603z" fill="none" stroke="#5e154d" stroke-width="1.08" stroke-linecap="round" stroke-linejoin="round"/><path d="M410.47515,8.56149c2.64132,0 3.78893,0.71042 4.39005,3.47925c0.12751,0.65578 0.43718,1.96733 0.81972,3.6432c1.09296,4.86367 2.91456,12.75119 3.6432,15.70219l0.29146,1.22047l13.42519,7.48677c2.71418,1.51193 2.71418,2.82348 2.71418,6.06593v18.48923h-12.20471c0.16637,-4.15325 -1.95397,-8.06361 -5.52552,-10.19003c-3.57155,-2.12581 -8.01989,-2.12581 -11.59144,0c-3.57155,2.12641 -5.69189,6.03678 -5.52552,10.19003h-15.10106v-56.08704z" fill="none" stroke="#5e154d" stroke-width="1.44" stroke-linecap="butt" stroke-linejoin="round"/><path d="M410.47515,8.56149c2.64132,0 3.78893,0.71042 4.39005,3.47925c0.12751,0.65578 0.43718,1.96733 0.81972,3.6432c1.09296,4.86367 2.91456,12.75119 3.6432,15.70219l0.29146,1.22047l13.42519,7.48677c2.71418,1.51193 2.71418,2.82348 2.71418,6.06593v18.48923h-12.20471c0.16637,-4.15325 -1.95397,-8.06361 -5.52552,-10.19003c-3.57155,-2.12581 -8.01989,-2.12581 -11.59144,0c-3.57155,2.12641 -5.69189,6.03678 -5.52552,10.19003h-15.10106v-56.08704z" fill="none" stroke="#5e154d" stroke-width="1.44" stroke-linecap="round" stroke-linejoin="round"/><path d="M412.07816,16.75868c0.14269,-0.63209 0.7001,-1.08385 1.34798,-1.09296h2.25878c1.09296,4.86367 2.91456,12.75119 3.6432,15.70219h-5.84733c-0.7505,-0.00972 -1.35648,-0.6157 -1.3662,-1.3662v-12.95157c-0.02125,-0.09594 -0.0334,-0.19309 -0.03643,-0.29146z" fill="none" stroke="#5e154d" stroke-width="1.08" stroke-linecap="round" stroke-linejoin="round"/><path d="M437.10693,59.74842v1.67587h-8.03325l-0.36432,-1.67587h8.39757" fill="#00828c" stroke="#5e154d" stroke-width="1.08" stroke-linecap="round" stroke-linejoin="round"/><path d="M437.10693,62.91801h-7.72358l-0.30967,-1.49371h8.03325v1.49371" fill="#00828c" stroke="#5e154d" stroke-width="1.08" stroke-linecap="round" stroke-linejoin="round"/><path d="M428.39969,58.2365h8.70724v1.51193h-8.39757l-0.30967,-1.51193" fill="#00828c" stroke="#5e154d" stroke-width="1.08" stroke-linecap="round" stroke-linejoin="round"/><path d="M435.75895,48.98277h1.34798c1.05653,0 1.51193,1.56658 1.7123,3.11493h-3.06029z" fill="#fdbb38" stroke="none" stroke-width="1" stroke-linecap="butt" stroke-linejoin="miter"/><path d="M438.81924,52.09771c0.11051,1.03467 0.14694,2.07541 0.1093,3.11493h-3.16958v-3.11493z" fill="#ffffff" stroke="none" stroke-width="1" stroke-linecap="butt" stroke-linejoin="miter"/><path d="M437.10693,48.98277c1.05653,0 1.51193,1.56658 1.7123,3.11493c0.11051,1.03467 0.14694,2.07541 0.1093,3.11493h-3.16958v-6.22987z" fill="none" stroke="#5e154d" stroke-width="1.44" stroke-linecap="round" stroke-linejoin="round"/></g><g><path d="M250.7209,57.36213c4.02391,0 7.2864,3.26248 7.2864,7.2864c0,4.02391 -3.26248,7.2864 -7.2864,7.2864c-4.02391,0 -7.2864,-3.26248 -7.2864,-7.2864c0,-4.02391 3.26248,-7.2864 7.2864,-7.2864z" fill="#f7c1d8" stroke="none" stroke-width="1" stroke-linecap="butt" stroke-linejoin="miter"/><path d="M250.7209,55.59518c5.03004,0 9.108,4.07795 9.108,9.108c0,5.03004 -4.07795,9.108 -9.108,9.108c-5.03004,0 -9.108,-4.07795 -9.108,-9.108c0,-5.03004 4.07795,-9.108 9.108,-9.108zM250.7209,69.18431c1.84528,0.00729 3.51265,-1.09964 4.22186,-2.80283c0.70982,-1.7032 0.32121,-3.66627 -0.98366,-4.97114c-1.30487,-1.30487 -3.26795,-1.69348 -4.97114,-0.98366c-1.7032,0.70921 -2.81012,2.37658 -2.80283,4.22186c-0.01457,1.21258 0.45661,2.38022 1.30912,3.24245c0.8519,0.86283 2.01408,1.34798 3.22666,1.34798z" fill="#5e154d" stroke="#5e154d" stroke-width="1.44" stroke-linecap="round" stroke-linejoin="round"/><path d="M252.36945,62.99998c0.422,0.42261 0.6831,1.00552 0.6831,1.64855c0,0.64302 -0.2611,1.22594 -0.6831,1.64855c-0.42261,0.422 -1.00552,0.6831 -1.64855,0.6831c-0.64302,0 -1.22594,-0.2611 -1.64855,-0.6831c-0.422,-0.42261 -0.6831,-1.00552 -0.6831,-1.64855c0,-0.64302 0.2611,-1.22594 0.6831,-1.64855c0.42261,-0.422 1.00552,-0.6831 1.64855,-0.6831c0.64302,0 1.22594,0.2611 1.64855,0.6831z" fill="#ffffff" stroke="#da53d6" stroke-width="1.08" stroke-linecap="round" stroke-linejoin="round"/></g><g><path d="M224.52631,57.36213c4.02391,0 7.2864,3.26248 7.2864,7.2864c0,4.02391 -3.26248,7.2864 -7.2864,7.2864c-4.02391,0 -7.2864,-3.26248 -7.2864,-7.2864c0,-4.02391 3.26248,-7.2864 7.2864,-7.2864z" fill="#f7c1d8" stroke="none" stroke-width="1" stroke-linecap="butt" stroke-linejoin="miter"/><path d="M224.52631,55.59518c5.03004,0 9.108,4.07795 9.108,9.108c0,5.03004 -4.07795,9.108 -9.108,9.108c-5.03004,0 -9.108,-4.07795 -9.108,-9.108c0,-5.03004 4.07795,-9.108 9.108,-9.108zM224.52631,69.18431c1.85014,0.02975 3.5339,-1.06321 4.26072,-2.76458c0.72682,-1.70137 0.35218,-3.67356 -0.94845,-4.98936c-1.30001,-1.31641 -3.26734,-1.71473 -4.97782,-1.00856c-1.70987,0.70617 -2.82287,2.37658 -2.81559,4.22672c-0.01457,1.20286 0.44933,2.36261 1.28969,3.22362c0.84036,0.8604 1.98858,1.35223 3.19144,1.36681z" fill="#5e154d" stroke="#5e154d" stroke-width="1.44" stroke-linecap="round" stroke-linejoin="round"/><path d="M226.17485,62.99998c0.422,0.42261 0.6831,1.00552 0.6831,1.64855c0,0.64302 -0.2611,1.22594 -0.6831,1.64855c-0.42261,0.422 -1.00552,0.6831 -1.64855,0.6831c-0.64302,0 -1.22594,-0.2611 -1.64855,-0.6831c-0.422,-0.42261 -0.6831,-1.00552 -0.6831,-1.64855c0,-0.64302 0.2611,-1.22594 0.6831,-1.64855c0.42261,-0.422 1.00552,-0.6831 1.64855,-0.6831c0.64302,0 1.22594,0.2611 1.64855,0.6831z" fill="#ffffff" stroke="#da53d6" stroke-width="1.08" stroke-linecap="round" stroke-linejoin="round"/></g></g></g></svg>