<svg version="1.1" xmlns="http://www.w3.org/2000/svg" xmlns:xlink="http://www.w3.org/1999/xlink" width="484.99999" height="50.04517" viewBox="0,0,484.99999,50.04517"><g transform="translate(-120.77345,-178.49697)"><g fill="#65ff47" stroke="none" stroke-width="0.5" stroke-miterlimit="10"><path d="M605.77344,189.64376c0,1.315 -0.16054,2.60017 -0.46687,3.84381c1.01423,4.77827 0.01536,9.99942 -3.43939,14.80737c-3.90314,5.43197 -13.61464,8.37965 -21.09375,8.38743c-98.24268,0.1022 -196.48592,-0.21922 -294.72829,0c-14.56309,0.03249 -29.19747,-0.46841 -43.67911,0.75513c-15.31874,1.29427 -30.31808,4.36813 -45.42329,6.77306c-6.8353,1.08826 -12.69976,2.76796 -19.30103,3.37725c-10.33694,0.95409 -28.21915,2.2992 -39.22706,-2.23767c-4.07059,-0.99556 -7.69818,-2.79543 -10.58951,-5.16638c-3.26682,-1.61552 -6.74779,-6.66872 -6.52333,-9.75421c-0.34631,-1.31857 -0.52836,-2.6851 -0.52836,-4.08545c0,-4.82132 2.15803,-9.24181 5.74784,-12.68391c0.972,-1.37135 2.1891,-2.58176 3.81135,-3.52483l-0.00001,-0.00002c4.71091,-2.73861 8.14641,-3.47043 11.5237,-3.42996c1.27621,-0.1597 2.58448,-0.24262 3.91711,-0.24262c3.47586,0 6.78605,0.56411 9.79369,1.5835c0.08732,0.00255 0.17506,0.00489 0.26325,0.00701c5.34473,0.12832 10.72661,0.46655 16.0415,0c6.73388,-0.59111 10.06446,-2.05569 15.29434,-2.84048c10.62872,-1.59495 21.25528,-3.19939 31.88705,-4.78148c0.58536,0.0687 0.94673,0.0687 0.94673,0.0687c19.33333,0 38.66667,0 58,0c24.66667,0 49.33333,0 74,0c10,0 20,0 30,0c0.33333,0 0.66667,0 1,0c13.66667,0 27.33333,0 41,0c5.93231,0 12.36681,0.51873 18.22183,-0.07492c2.3774,-0.24105 4.90844,-1.06196 7.30787,-1.92812c2.31151,1.00303 4.4703,1.00303 4.4703,1.00303c23.66667,0 47.33333,0 71,0c25.33333,0 50.66667,0 76,0c0.42837,0 0.85599,0.00193 1.28291,0.00507c2.21731,2.96858 3.49053,6.43539 3.49053,10.13869z"/></g></g></svg>