<svg version="1.1" xmlns="http://www.w3.org/2000/svg" xmlns:xlink="http://www.w3.org/1999/xlink" width="51.67005" height="103.01142" viewBox="0,0,51.67005,103.01142"><g transform="translate(-293.02401,-124.06416)"><g fill="#000000" stroke="none" stroke-width="0.5" stroke-miterlimit="10"><path d="M333.05278,127.97041c3.77617,2.69635 6.3894,6.29332 8.16768,10.43571c0.87925,1.86287 1.53516,3.85185 1.93319,5.9324c3.33645,13.98063 0.23144,31.56984 0.11468,42.55562c-0.12332,11.60327 2.10935,29.04307 -10.54687,36.27519c-4.33302,2.47601 -9.46256,3.90625 -14.45312,3.90625c-4.99056,0 -10.1201,-1.43024 -14.45312,-3.90625c-14.32227,-8.18415 -10.28381,-29.13889 -10.21555,-42.02634c0.05664,-10.69279 -0.69053,-21.40821 0,-32.07883c0,-4.41923 1.14665,-8.57065 3.15865,-12.17297c2.04084,-4.43388 5.08857,-8.29925 9.23278,-9.41931c3.70159,-2.16617 8.01009,-3.40772 12.60856,-3.40772c3.13655,0 6.13819,0.57762 8.90435,1.63228c1.99787,0.44467 3.89822,1.0954 5.54877,2.27397z"/></g></g></svg>