<svg version="1.1" xmlns="http://www.w3.org/2000/svg" xmlns:xlink="http://www.w3.org/1999/xlink" width="50" height="39.76407" viewBox="0,0,50,39.76407"><g transform="translate(-295,-155)"><g fill="#65ff47" stroke="none" stroke-width="0.5" stroke-miterlimit="10"><path d="M295,180c0,-13.80712 11.19288,-25 25,-25c13.80712,0 25,11.19288 25,25c0,5.46868 -1.7559,10.52725 -4.73468,14.64266c-2.75642,-0.07565 -5.81987,0.22125 -7.13061,0.08524c-4.92395,-0.51091 -9.6949,-2.02362 -14.58482,-2.75759c-4.58144,-0.68767 -9.3507,-0.17463 -13.98624,-0.56302c-1.81206,-0.15182 -3.58454,-0.51923 -5.34798,-0.66454c-0.42955,-0.05632 -0.86768,-0.08537 -1.31259,-0.08537c-0.17372,0 -0.34641,0.00443 -0.51796,0.01318c-1.52965,-3.23621 -2.38511,-6.85349 -2.38511,-10.67057z"/></g></g></svg>