<svg version="1.1" xmlns="http://www.w3.org/2000/svg" xmlns:xlink="http://www.w3.org/1999/xlink" width="316" height="453.265" viewBox="0,0,316,453.265"><g transform="translate(18.22656,52.38361)"><g fill="#9966ff" stroke="none" stroke-width="0.5" stroke-miterlimit="10"><path d="M290.77344,-9.03634c-0.22919,4.09603 0.26258,27.78129 2,36.3173c0.96189,4.72581 2.96437,9.42662 3,14.34795c0.07481,10.33306 0.04911,20.66678 0,31c-0.04816,10.13425 -1.4762,18.68409 -1,29.49863c0.15407,3.49888 1.95455,6.87982 2,10.50137c0.14117,11.24943 -0.83389,17.08164 -1,26.47549c-0.10678,6.03858 1.00711,21.06916 -0.34015,30.63449c-0.63276,4.49245 -3.13334,9.67567 -3.65985,13.79172c-1.6393,12.81545 -0.91449,26.48294 -1,39.0983c-0.01823,2.69008 -0.9837,5.43013 -1,8.06906c-0.21179,34.28664 -0.19123,68.57512 0,102.86187c0.03935,7.05514 2.59282,14.72347 4.29998,21.55623c3.24865,13.00243 2.12114,28.06651 -6.62231,38.1905c-1.02348,1.18508 -1.86678,2.63609 -3.22454,3.41608c-1.53905,0.88413 -3.50053,0.71005 -5.14035,1.38928c-1.63982,0.67924 -2.9037,2.18931 -4.61715,2.6524c-1.37802,0.37244 -4.09549,-0.24767 -5.75168,-0.42085c-12.29728,-1.28592 -19.37659,-7.81851 -26.74521,-17.84708c-0.57467,-0.78212 -1.05029,-1.63335 -1.61509,-2.42263c-1.59845,-2.23374 -3.34303,-4.36225 -4.6149,-6.80425c-0.6969,-1.33805 -0.45307,-3.63809 -1.88434,-4.11505c-2.93459,-0.97792 -6.06064,-1.47506 -9.15347,-1.52558c-28.07789,-0.45863 -56.18841,-1.18786 -84.24491,0c-10.60265,0.44889 -14.40645,3.57794 -22.02231,4.73009c-8.70081,1.31628 -17.46172,2.26638 -26.1144,3.8688c-8.77197,1.62451 -17.41074,3.90059 -26.12605,5.80579c-6.95069,1.51945 -15.46327,1.94193 -21.45781,3.13979c-5.94986,1.18893 -11.7216,3.14175 -17.60312,4.6324c-12.43634,3.15194 -33.92306,4.45905 -41.45608,-8.72374c-2.47601,-4.33302 -3.90625,-9.46256 -3.90625,-14.45312c0,-4.99056 1.7222,-9.96585 3.90625,-14.45312c1.04029,-2.13734 4.32121,-2.5414 5.39704,-4.66108c1.16068,-2.28686 0.54574,-5.10011 0.84962,-7.64659c0.72198,-6.05014 1.39827,-9.83884 0.84709,-16.76372c-0.33324,-4.18669 -1.97938,-8.22226 -2,-12.47549c-0.07774,-16.0359 0.21219,-32.07359 0,-48.10828c-0.04838,-3.65554 -0.21717,-7.32765 -0.78141,-10.93971c-0.72126,-4.61727 -2.71273,-9.27626 -3.14495,-14.0346c-5.92828,-65.26474 -1.08162,-202.25286 -1.07364,-209.91741c0.00476,-4.57369 1.43562,-8.9813 2,-13.47549c0.89568,-7.13227 1.60986,-15.42568 6.03686,-21.49994c4.50305,-6.17861 11.63303,-10.38643 19.05689,-11.63395c3.23184,-0.54308 8.5202,0.32408 11.41976,-0.39062c0.48717,-0.12008 0.06272,-1.07518 0.39274,-1.45313c2.05898,-2.35799 4.27145,-4.59452 6.64063,-6.64062c5.1569,-4.45369 15.71501,-4.72353 22.51652,-3.15981c5.99775,1.37892 14.02954,2.78283 19.45328,5.66419c3.13189,1.66381 5.50868,5.46 9.05272,5.58937c32.78836,1.19691 65.62047,-0.06701 98.43061,0c6.93624,0.01417 13.90966,1.89032 20.73344,2.86515c2.46972,0.35282 5.11075,2.03246 7.42557,2.13485c5.13742,0.22725 8.73832,1.21248 13.61662,2.78443c3.28554,1.05871 7.27978,0.39891 10.73616,1.45735c2.57623,0.78892 3.92162,1.03742 6.18384,1.62279c0.48544,0.12561 1.21062,1.2419 1.30437,0.74932c0.81032,-4.25777 -0.35085,-9.10772 0.39063,-13.52013c1.03391,-6.15269 6.19055,-14.93012 11.77088,-21.30878c1.36341,-1.77505 2.95969,-3.36189 4.74315,-4.71483c1.32906,-1.11246 2.62223,-2.00405 3.828,-2.60483c12.65212,-6.30406 33.31733,-0.41086 35.33879,15.76087c0.60498,2.15426 0.92856,4.42625 0.92856,6.77382c0,0.51598 -0.01563,1.0283 -0.04645,1.53653c-0.03497,0.65452 -0.08955,1.22646 -0.16814,1.7537c-0.52516,3.99457 -1.99338,7.6921 -4.17376,10.86167c-0.39827,0.98724 -2.56167,3.28961 -2.61166,4.18284z"/></g></g></svg>