<svg version="1.1" xmlns="http://www.w3.org/2000/svg" xmlns:xlink="http://www.w3.org/1999/xlink" width="210.24977" height="212.16854" viewBox="0,0,210.24977,212.16854"><g transform="translate(-136.69034,-55.04532)"><g data-paper-data="{&quot;isPaintingLayer&quot;:true}" fill-rule="nonzero" stroke-linejoin="miter" stroke-miterlimit="10" stroke-dasharray="" stroke-dashoffset="0" style="mix-blend-mode: normal"><path d="M151.77344,71.12891l1,180l179,1l-2,-182z" fill="#00ffff" stroke="#000000" stroke-width="30" stroke-linecap="round"/><path d="M152.32031,256.22266c-23.00779,-16.42859 -4.74546,-53.0083 13.45313,-65.09375c9.22449,-6.12587 19.08479,-13.42413 29.26955,-17.93902c8.91441,-3.95175 18.60938,-5.96127 28.22284,-7.65456c31.86107,-5.61192 62.84856,-14.40713 96.41386,-6.0158c6.54521,1.6363 13.43943,3.59713 17.1875,10.15625c7.38525,12.92419 4.25294,28.7369 -8.59375,36.32813c-2.71888,1.60661 -8.70278,3.0989 -12.5,3.125c-17.64037,0.12126 -35.28177,-0.08293 -52.92236,0c-7.59847,0.03572 -15.74929,2.97844 -23.00127,4.58177c-4.96078,1.09677 -10.27964,1.21915 -15.28426,2.29772c-1.63113,0.35153 -2.9481,1.57187 -4.48028,2.23262c-1.95484,0.84302 -4.46675,0.78996 -6.28708,1.7286c-4.35991,2.24815 -8.01526,5.41367 -11.59251,8.34945c-2.15005,1.76451 -7.80732,3.8364 -9.0797,6.00643c-0.67236,1.14671 -1.13909,2.38082 -1.51295,3.65102c-0.25671,2.26409 -0.81584,4.43647 -1.63602,6.47578c-0.33926,1.1109 -0.75551,2.18187 -1.32858,3.1766c-0.56395,0.97889 -1.26647,1.85937 -2.02501,2.70006c-1.97175,2.57106 -4.43175,4.748 -7.24142,6.39222c-3.70159,2.16617 -8.01009,3.40772 -12.60856,3.40772c-3.13655,0 -6.13819,-0.57762 -8.90435,-1.63228c-1.99787,-0.44467 -3.89822,-1.0954 -5.54877,-2.27397z" fill="#000000" stroke="none" stroke-width="0.5" stroke-linecap="butt"/><path d="M148.67969,122.67578c2.48417,-3.47901 5.60168,-5.86424 9.10215,-7.48854c3.56001,-1.94976 7.64634,-3.05834 11.9916,-3.05834c0.23553,0 0.47031,0.00326 0.70428,0.00973c7.59322,-0.65254 15.55965,0.08001 22.23878,-0.00973c1.24134,-0.01668 5.16623,-2.90337 5.41632,-3.03125c2.39869,-1.22657 5.01968,-1.76215 7.54842,-2.63156c3.46439,-1.1911 -1.17668,0.44982 -3.21459,-7.70806c-0.91734,-3.67217 -1.82454,-7.67312 -0.82864,-11.32476c2.76214,-10.12783 10.31197,-17.67767 20.43981,-20.43981c9.21358,-2.51279 12.83946,2.32424 20.0917,5.591c4.30782,1.94045 7.40104,4.27415 10.69768,8.09131c4.9829,5.76968 5.0602,25.18418 4.90625,31.45313c-0.03213,1.30818 -0.21363,2.6097 -0.39062,3.90625c-1.59783,11.70499 -11.09102,25.66769 -21.34203,31.62845c-2.79566,1.62562 -6.06906,3.53586 -9.08701,4.82598c-0.82095,0.35094 -6.73423,2.00449 -7.34821,2.34548c-7.10504,3.94592 -15.68667,7.3416 -23.84299,7.29384c-4.62928,-0.02711 -16.45172,1.00459 -26.46429,-0.00443c-2.73927,-0.05106 -5.37081,-0.5427 -7.82673,-1.40703c-1.57798,-0.4582 -2.99814,-1.02222 -4.19812,-1.71355c-0.97889,-0.56395 -1.85937,-1.26647 -2.70006,-2.02501c-1.372,-1.05219 -2.63177,-2.24341 -3.75824,-3.55261c-1.14348,-0.98755 -2.23977,-2.23025 -2.63397,-3.68881c-2.16617,-3.70159 -3.40772,-8.01009 -3.40772,-12.60856c0,-3.13655 0.57762,-6.13819 1.63228,-8.90435c0.44467,-1.99787 1.0954,-3.89822 2.27397,-5.54877z" fill="#000000" stroke="none" stroke-width="0.5" stroke-linecap="butt"/></g></g></svg>