<svg version="1.1" xmlns="http://www.w3.org/2000/svg" xmlns:xlink="http://www.w3.org/1999/xlink" width="791.39294" height="474.45027" viewBox="0,0,791.39294,474.45027"><g transform="translate(100.35261,78.37957)"><g fill="#4fff75" stroke="none" stroke-width="0.5" stroke-miterlimit="10"><path d="M-44.6566,20.13492c0,-2.13979 0.38392,-4.21679 1.10615,-6.19907l-0.03896,-1.90305l2.17912,-2.32828c1.494,-2.27568 3.46176,-4.36728 5.8148,-6.21284l0.89482,-0.95607l1.21807,-0.56659c4.29116,-2.84198 9.58877,-4.94652 15.47927,-6.02402l9.23783,-1.84817l2.70242,-0.34167l2.67748,-0.42718l11.42485,-1l2.21935,-0.03837l2.20901,-0.15468h29.31117l1.49433,-0.20927l2.17562,-0.50781l1.79624,-0.28401l1.74894,-0.40358l9.42101,-1.46597l8.24114,-17.88911l-0.14287,-0.63779l0.69613,-1.91935l0.08417,-0.58936l0.64212,-1.41313l2.56925,-7.08381l2.4876,-1.55137l8.80521,-7.13919l3.79358,-0.71794l0.8803,-0.54899l8.04395,-1.13993l7.92276,-1.49939l1.13799,0.21537l3.85162,-0.54582l6.85128,1.99894l3.76246,-9.40923l0.07216,-0.12926l0.1741,-1.09721l1.41835,-1.75505l0.37671,-0.67473l1.21925,-1.30008l4.97221,-6.15255l2.7735,-0.96549l11.62031,-5.39439l3.80652,0.02411l0.94541,-0.32911l8.30513,0.3877l8.32323,0.05272l0.9072,0.37818l3.79823,0.17731l11.00515,5.99365l2.66142,1.10944l4.29426,6.39798l1.07551,1.36086l0.30284,0.69273l1.22496,1.82506l0.05524,1.10328l0.05802,0.13271l2.85621,10l0.31438,2.24539l0.37399,2.24091l0.53355,22.41661h19.45994l1.36863,-1.49457l1.68264,-1.48765l1.22786,-1.55548l8.30588,-4.52828l2.1763,-1.26432l0.23055,-0.04787l2.08254,-1.13537l4.37736,-0.2059l8.85667,-1.83891l5.29886,1.17308l2.80019,-0.13171l5.95167,2.06924l6.33581,1.40265l1.88544,1.45566l4.97759,1.73057l4.5537,5.62807l2.9474,2.27554l0.37399,1.82947l0.10178,0.12579h91.88062l7.48493,-0.74874l2.52972,-0.07485l2.51941,-0.17642h6.98752l0.80684,-0.17976l0.51673,-0.18092l5.23908,-1.39754l2.62096,-0.28789l2.52813,-0.56327l5.57854,-0.39062h0.57773l1.41811,-0.15576l0.87589,0.15576h1.3017l1.44846,-0.25356l2.74709,-0.2815l0.33353,-0.07431l1.2368,-0.0866l1.22986,-0.12603l0.34931,0.01545l2.76257,-0.19344h13.60201l3.67392,-0.51452l3.50127,-0.24036l3.5006,-0.24512h54.11501l3.77841,-0.84183l4.04478,-1.46497l3.28619,-0.16837l0.60238,-0.13421l5.57854,-0.39062h4.06249l2.64337,-0.13544l0.33669,0.13544h67.20343l0.87589,-0.15576l1.41811,0.15576h0.57773l5.57854,0.39063l2.52813,0.56327l2.62096,0.28789l2.8424,0.75822h3.56724l3.89372,0.27265l0.3974,-0.00828l0.64015,0.08093l0.64727,0.04532l0.37886,0.08441l3.85087,0.48687l5.18881,1.0381h12.13694l5.57854,0.39063l0.11856,0.02641l0.1244,0.00119l5.46867,0.86469l4.28432,1l5.11586,1.60584l0.67301,0.34346l3.56155,0.67403l3.8061,3.08596l2.36746,1.20819l1.94247,2.28625l2.48319,2.01335l0.88824,1.95475l2.97731,3.50424l-0.21307,2.57907l0.2525,0.55569l0.55786,3.90625v31.61537l1.20973,7.62384l0.02172,1.38379l0.19665,1.377v3.2233l0.92913,4.55423l0.9926,3.47524l3.96077,10.16929l0.41983,1.74841l0.56249,1.72865l1.42811,8l0.0548,1.55405l0.2209,1.54681v57.89286l0.25672,0.56497l0.25837,0.36183l1.99583,3.66855l0.41114,1.83527l0.80441,1.77027l0.55786,3.90625v0.40454l0.22244,0.993l-0.22244,0.61332v49.98913l-0.55785,3.90625l-0.3567,0.78498l-0.08516,0.8216l-1.55386,3.77194l-2.178,3.81276l-1.68456,4.12853l-0.72438,3.55064v3.2233l-0.55785,3.90625l-0.3567,0.78498l-0.08516,0.8216l-1.55386,3.77194l-0.30264,0.52979v16.18544l-0.19665,1.377l-0.02172,1.38379l-1.20973,7.62384v33.61537l-0.19665,1.377l-0.02172,1.38379l-2.85621,18l-0.37739,1.23785l-0.00151,0.07773l-0.40638,1.26019l-0.38519,1.26345l-0.04514,0.07102l-0.39814,1.23466l-0.19262,0.40464l2.49669,4.19581l-0.6498,2.2483l0.17788,1.24556v19l-0.17788,1.24556l0.6498,2.2483l-3.56397,5.98941l-1.3708,3.01673l-0.81982,0.6647l-0.48241,0.81072l-3.24034,2.20766l-6.05664,4.91067l-3.16244,0.59849l-1.51145,0.66844l-5.71242,2l-2.36513,0.63091l-0.26326,0.10921l-1.31414,0.31157l-1.29653,0.34586l-0.3023,0.0332l-2.39725,0.56835l-37.13075,6l-0.52252,0.04677l-0.50369,0.10797l-14.28106,2l-3.50127,0.24036l-3.5006,0.24512h-2.17716l-3.67392,0.51452l-3.50127,0.24036l-3.5006,0.24512h-27.13401l-1.61219,-0.11289l-1.62017,0.01022l-15.70916,-1l-2.11144,-0.28485l-2.13693,-0.16742l-16.29509,-2.44506h-40.48893l-1.18483,-0.08296l-1.19008,0.02759l-21.42159,-1l-0.08383,-0.00985l-0.08497,0.00169l-19.99348,-1l-3.32497,-0.402l-3.33056,-0.3786l-21.42159,-4l-0.51725,-0.13644l-0.54259,-0.07377l-27.31701,-5.73844l-11.21324,-1.74485l-13.51088,-1.89214l-4.23043,-0.52275l-2.33829,2.75213l-1.23463,0.63007l-1.36093,1.70791l-6.45668,2.2817l-1.35589,0.69196l-5.11586,1.60584l-0.08983,0.02097l-1.45878,0.51551l-0.92513,0.04091l-1.81058,0.42261l-1.33901,0.21172l-1.29199,0.32476l-3.3617,0.58849l-4.89078,1.36986l-1.84727,0.37313l-0.13196,0.04731l-1.70757,0.32425l-1.69993,0.34337l-0.14787,0.00751l-1.85557,0.35236l-6.5741,0.76723l-8.05249,1.61102l-1.04996,0.13275l-1.01333,0.23383l-12.85295,2l-1.67341,0.1401l-1.64321,0.26217l-11.42485,1l-2.21935,0.03837l-2.20901,0.15468h-83.03428l-1.21382,1.53771l-1.68664,0.91953l-2.71146,2.54666l-3.55078,0.86745l-4.84639,2.6422l-7.39242,0.34772l-4.39822,1.07448l-4.73223,-0.64501l-4.8102,0.22626l-4.17223,-1.45057l-7.27259,-0.99126l-4.33737,-3.04521l-3.36833,-1.17108l-2.23619,-2.76378l-0.13546,-0.0951h-40.04273l-2.76257,-0.19344l-0.34931,0.01545l-1.22986,-0.12603l-1.2368,-0.0866l-0.33353,-0.07431l-2.74709,-0.2815l-13.88663,-2.43095l-2.49681,-0.07387l-9.99674,-1l-0.96433,-0.16637l-0.98842,-0.06786l-6.57601,-0.92094l-8.00076,-0.93373l-0.5575,-0.10587l-0.57488,-0.03947l-13.00193,-1.82086l-7.92487,-0.69365h-0.61793l-0.87589,0.15576l-1.41811,-0.15576h-0.57773l-5.57854,-0.39062l-2.52813,-0.56327l-0.41978,-0.04611h-0.04219l-5.57854,-0.39062l-2.52813,-0.56327l-2.62096,-0.28789l-5.23908,-1.39754l-0.51673,-0.18092l-1.36788,-0.30476l-0.68393,-0.41361l-0.30473,-0.10669l-4.559,-0.3547h-3.73502l-2.93059,-0.20521l-2.93888,-0.13494l-6.09536,-0.71136l-1.06662,0.05151l-1.38126,-0.33719l-0.02538,-0.00296l-5.41092,-1.02749l-2.59295,-0.92962l-2.75069,-0.67149l-4.79754,-2.03125l-0.02058,-0.01081l-0.03787,-0.01358l-4.93992,-1.10061l-0.60983,-0.36879l-2.17945,-0.41246l-4.3948,-3.56326l-5.08871,-3.07736l-0.58904,-1.52611l-0.52667,-0.42702l-3.90497,-8.59375l-0.55785,-3.90625v-2l0.55786,-3.90625l1.23237,-2.7121l0.32535,-3.41728l2.07722,-1.87011l0.27003,-0.59426l3.92335,-3.18101l3.68517,-3.31774l0.77922,-0.30195l2.21148,-1.79305l4.72166,-0.89358l3.55627,-1.37807l5.36081,-1.14912l5.93474,-0.83113l14.52282,-2.77344l0.51947,-0.06116l0.49722,-0.1218l8.14137,-1.37606l-1.01368,-0.82188l-0.78951,-1.73751l-0.97721,-1.45065l-0.92298,-2.73114l-1.21526,-2.67445l-0.22793,-1.59598l-0.59963,-1.77434l0.2697,-1.08754v-26.44839l0.16883,-1.18217l-0.008,-1.18806l2.85621,-21l0.19966,-0.70928l0.05467,-0.72192l2.85621,-13l0.05595,-0.15196l0.01467,-0.15659l5.22665,-21.95909v-43.93094l0.09364,-0.65572l-0.0443,-0.65826l1.42811,-19l0.52009,-2.37347l0.49655,-2.37595l3.21832,-9.01425v-92.62247l-1.87306,-0.60797l-1.41957,-1.6498c-6.77246,-4.54986 -10.98843,-10.95124 -10.98843,-18.04213zM445.91028,292.61911l2.51774,-0.66112l-1.26393,0.13844l-2.15877,0.08398z"/></g></g></svg>