<svg version="1.1" xmlns="http://www.w3.org/2000/svg" xmlns:xlink="http://www.w3.org/1999/xlink" width="554.1557" height="474.45027" viewBox="0,0,554.1557,474.45027"><g transform="translate(54.22648,84.38558)"><g data-paper-data="{&quot;isPaintingLayer&quot;:true}" fill="#f5ff4f" fill-rule="nonzero" stroke="none" stroke-width="0.5" stroke-linecap="butt" stroke-linejoin="miter" stroke-miterlimit="10" stroke-dasharray="" stroke-dashoffset="0" style="mix-blend-mode: normal"><path d="M-15.22656,14.12891c0,-2.13979 0.26883,-4.21679 0.77456,-6.19907l-0.02728,-1.90305l1.52588,-2.32828c1.04614,-2.27568 2.42402,-4.36728 4.07169,-6.21284l0.62658,-0.95607l0.85293,-0.56659c3.00479,-2.84198 6.71433,-4.94652 10.83902,-6.02402l6.46859,-1.84817l1.89231,-0.34167l1.87485,-0.42718l8,-1l1.55405,-0.03837l1.54681,-0.15468h20.52451l1.04637,-0.20927l1.52343,-0.50781l1.25778,-0.28401l1.22466,-0.40358l6.59686,-1.46597l5.77068,-17.88911l-0.10004,-0.63779l0.48745,-1.91935l0.05894,-0.58936l0.44963,-1.41313l1.79906,-7.08381l1.74189,-1.55137l6.16566,-7.13919l2.65637,-0.71794l0.61641,-0.54899l5.6326,-1.13993l5.54774,-1.49939l0.79685,0.21537l2.69701,-0.54582l4.79746,1.99894l2.63458,-9.40923l0.05053,-0.12926l0.12191,-1.09721l0.99317,-1.75505l0.26378,-0.67473l0.85375,-1.30008l3.48168,-6.15255l1.94208,-0.96549l8.13687,-5.39439l2.66543,0.02411l0.662,-0.32911l5.81549,0.3877l5.82816,0.05272l0.63525,0.37818l2.65963,0.17731l7.70612,5.99365l1.8636,1.10944l3.00696,6.39798l0.7531,1.36086l0.21206,0.69273l0.85775,1.82506l0.03868,1.10328l0.04063,0.13271l2,10l0.22014,2.24539l0.26188,2.24091l0.37361,22.41661h13.6264l0.95835,-1.49457l1.17823,-1.48765l0.85978,-1.55548l5.81601,-4.52828l1.52391,-1.26432l0.16144,-0.04787l1.45825,-1.13537l3.06515,-0.2059l6.20169,-1.83891l3.71041,1.17308l1.96077,-0.13171l4.16753,2.06924l4.43651,1.40265l1.32024,1.45566l3.48545,1.73057l3.18863,5.62807l2.06385,2.27554l0.26188,1.82947l0.07127,0.12579h64.33741l5.24116,-0.74874l1.77138,-0.07485l1.76416,-0.17642h4.89286l0.56497,-0.17976l0.36183,-0.18092l3.66855,-1.39754l1.83527,-0.28789l1.77027,-0.56327l3.90625,-0.39062h0.40454l0.993,-0.15576l0.61332,0.15576h0.91149l1.01425,-0.25356l1.92359,-0.2815l0.23355,-0.07431l0.86604,-0.0866l0.86118,-0.12603l0.2446,0.01545l1.93443,-0.19344h9.52451l2.57258,-0.51452l2.45169,-0.24036l2.45122,-0.24512h37.89286l2.64575,-0.84183l2.83227,-1.46497l2.30108,-0.16837l0.4218,-0.13421l3.90625,-0.39062h2.84467l1.85096,-0.13544l0.23576,0.13544h47.05774l0.61332,-0.15576l0.993,0.15576h0.40454l3.90625,0.39063l1.77027,0.56327l1.83527,0.28789l1.99033,0.75822h2.49788l2.72649,0.27265l0.27827,-0.00828l0.44825,0.08093l0.45324,0.04532l0.26529,0.08441l2.69649,0.48687l3.63335,1.0381h8.49863l3.90625,0.39063l0.08302,0.02641l0.08711,0.00119l3.82932,0.86469l3,1l3.58227,1.60584l0.47126,0.34346l2.4939,0.67403l2.66514,3.08596l1.65776,1.20819l1.36017,2.28625l1.7388,2.01335l0.62197,1.95475l2.0848,3.50424l-0.1492,2.57907l0.17681,0.55569l0.39063,3.90625v31.61537l0.84709,7.62384l0.01521,1.38379l0.1377,1.377v3.2233l0.6506,4.55423l0.69505,3.47524l2.77344,10.16929l0.29398,1.74841l0.39387,1.72865l1,8l0.03837,1.55405l0.15468,1.54681v57.89286l0.17976,0.56497l0.18092,0.36183l1.39754,3.66855l0.28789,1.83527l0.56327,1.77027l0.39063,3.90625v0.40454l0.15576,0.993l-0.15576,0.61332v49.98913l-0.39062,3.90625l-0.24977,0.78498l-0.05963,0.8216l-1.08806,3.77194l-1.5251,3.81276l-1.17958,4.12853l-0.50723,3.55064v3.2233l-0.39062,3.90625l-0.24977,0.78498l-0.05963,0.8216l-1.08806,3.77194l-0.21192,0.52979v16.18544l-0.1377,1.377l-0.01521,1.38379l-0.84709,7.62384v33.61537l-0.1377,1.377l-0.01521,1.38379l-2,18l-0.26426,1.23785l-0.00106,0.07773l-0.28456,1.26019l-0.26972,1.26345l-0.03161,0.07102l-0.27879,1.23466l-0.13488,0.40464l1.74825,4.19581l-0.45501,2.2483l0.12456,1.24556v19l-0.12456,1.24556l0.45501,2.2483l-2.49559,5.98941l-0.95987,3.01673l-0.57406,0.6647l-0.3378,0.81072l-2.26898,2.20766l-4.24103,4.91067l-2.21443,0.59849l-1.05836,0.66844l-4,2l-1.65613,0.63091l-0.18434,0.10921l-0.9202,0.31157l-0.90787,0.34586l-0.21168,0.0332l-1.67862,0.56835l-26,6l-0.36588,0.04677l-0.3527,0.10797l-10,2l-2.45169,0.24036l-2.45122,0.24512h-1.52451l-2.57258,0.51452l-2.45169,0.24036l-2.45122,0.24512h-19l-1.1289,-0.11289l-1.13449,0.01022l-11,-1l-1.47849,-0.28485l-1.49634,-0.16742l-11.41028,-2.44506h-28.35149l-0.82965,-0.08296l-0.83333,0.02759l-15,-1l-0.0587,-0.00985l-0.0595,0.00169l-14,-1l-2.32824,-0.402l-2.33215,-0.3786l-15,-4l-0.36219,-0.13644l-0.37994,-0.07377l-19.12814,-5.73844l-7.85183,-1.74485l-9.4607,-1.89214l-2.96227,-0.52275l-1.63734,2.75213l-0.86452,0.63007l-0.95296,1.70791l-4.52115,2.2817l-0.94943,0.69196l-3.58227,1.60584l-0.0629,0.02097l-1.02148,0.51551l-0.6478,0.04091l-1.26782,0.42261l-0.93761,0.21172l-0.90469,0.32476l-2.35396,0.58849l-3.42466,1.36986l-1.29351,0.37313l-0.0924,0.04731l-1.19569,0.32425l-1.19034,0.34337l-0.10354,0.00751l-1.29932,0.35236l-4.60337,0.76723l-5.63858,1.61102l-0.73521,0.13275l-0.70956,0.23383l-9,2l-1.17177,0.1401l-1.15062,0.26217l-8,1l-1.55405,0.03837l-1.54681,0.15468h-58.14295l-0.84995,1.53771l-1.18103,0.91953l-1.89864,2.54666l-2.48636,0.86745l-3.39358,2.6422l-5.17638,0.34772l-3.07976,1.07448l-3.31364,-0.64501l-3.36824,0.22626l-2.92151,-1.45057l-5.09247,-0.99126l-3.03715,-3.04521l-2.3586,-1.17108l-1.56584,-2.76378l-0.09485,-0.0951h-28.03905l-1.93443,-0.19344l-0.2446,0.01545l-0.86118,-0.12603l-0.86604,-0.0866l-0.23355,-0.07431l-1.92359,-0.2815l-9.72381,-2.43095l-1.74834,-0.07387l-7,-1l-0.67525,-0.16637l-0.69212,-0.06786l-4.60471,-0.92094l-5.60236,-0.93373l-0.39038,-0.10587l-0.40255,-0.03947l-9.10432,-1.82086l-5.54922,-0.69365h-0.43269l-0.61332,0.15576l-0.993,-0.15576h-0.40454l-3.90625,-0.39062l-1.77027,-0.56327l-0.29394,-0.04611h-0.02954l-3.90625,-0.39062l-1.77027,-0.56327l-1.83527,-0.28789l-3.66855,-1.39754l-0.36183,-0.18092l-0.95783,-0.30476l-0.47891,-0.41361l-0.21338,-0.10669l-3.19234,-0.3547h-2.61537l-2.05208,-0.20521l-2.05789,-0.13494l-4.26814,-0.71136l-0.74688,0.05151l-0.9672,-0.33719l-0.01777,-0.00296l-3.78888,-1.02749l-1.81566,-0.92962l-1.92611,-0.67149l-3.35937,-2.03125l-0.01441,-0.01081l-0.02652,-0.01358l-3.45907,-1.10061l-0.42702,-0.36879l-1.52611,-0.41246l-3.07736,-3.56326l-3.56326,-3.07736l-0.41246,-1.52611l-0.36879,-0.42702l-2.73437,-8.59375l-0.39062,-3.90625v-2l0.39063,-3.90625l0.86294,-2.7121l0.22782,-3.41728l1.45453,-1.87011l0.18908,-0.59426l2.74724,-3.18101l2.58046,-3.31774l0.54563,-0.30195l1.54854,-1.79305l3.30624,-0.89358l2.4902,-1.37807l3.75379,-1.14912l4.15567,-0.83113l10.16929,-2.77344l0.36375,-0.06116l0.34817,-0.1218l5.70082,-1.37606l-0.70981,-0.82188l-0.55284,-1.73751l-0.68427,-1.45065l-0.6463,-2.73114l-0.85096,-2.67445l-0.1596,-1.59598l-0.41988,-1.77434l0.18885,-1.08754v-26.44839l0.11822,-1.18217l-0.0056,-1.18806l2,-21l0.13981,-0.70928l0.03828,-0.72192l2,-13l0.03918,-0.15196l0.01027,-0.15659l3.65985,-21.95909v-43.93094l0.06557,-0.65572l-0.03102,-0.65826l1,-19l0.36418,-2.37347l0.3477,-2.37595l2.25356,-9.01425v-92.62247l-1.31157,-0.60797l-0.99402,-1.6498c-4.74227,-4.54986 -7.69441,-10.95124 -7.69441,-18.04213zM328.28223,286.6131l1.76299,-0.66112l-0.88504,0.13844l-1.51163,0.08398z"/></g></g></svg>