<svg version="1.1" xmlns="http://www.w3.org/2000/svg" xmlns:xlink="http://www.w3.org/1999/xlink" width="751.89349" height="530.61972" viewBox="0,0,751.89349,530.61972"><g transform="translate(92.3847,102.4036)"><g fill="#ff4e4e" stroke="none" stroke-width="0.5" stroke-miterlimit="10"><path d="M-39.46855,7.77387c0,-2.39312 0.36476,-4.71601 1.05094,-6.93297l-0.03701,-2.12835l2.07036,-2.60392c1.41943,-2.54509 3.28898,-4.88432 5.52458,-6.94837l0.85016,-1.06926l1.15728,-0.63367c4.07698,-3.17844 9.11019,-5.53213 14.70668,-6.73719l8.77676,-2.06697l2.56754,-0.38212l2.54385,-0.47775l10.85462,-1.11839l2.10858,-0.04291l2.09875,-0.17299h27.84821l1.41974,-0.23405l2.06703,-0.56793l1.70659,-0.31763l1.66165,-0.45136l8.9508,-1.63952l7.82982,-20.00697l-0.13574,-0.7133l0.66139,-2.14658l0.07997,-0.65913l0.61007,-1.58043l2.44101,-7.92245l2.36344,-1.73503l8.36573,-7.98439l3.60423,-0.80294l0.83636,-0.61398l7.64246,-1.27488l7.52732,-1.6769l1.08119,0.24087l3.65938,-0.61044l6.50932,2.23559l3.57467,-10.52317l0.06856,-0.14456l0.16541,-1.22711l1.34756,-1.96283l0.3579,-0.75461l1.15839,-1.45399l4.72404,-6.88094l2.63507,-1.07979l11.04033,-6.03302l3.61653,0.02696l0.89822,-0.36807l7.89061,0.4336l7.90781,0.05896l0.86192,0.42295l3.60866,0.1983l10.45587,6.70323l2.52858,1.24078l4.07992,7.15543l1.02183,1.52197l0.28773,0.77474l1.16382,2.04113l0.05248,1.2339l0.05513,0.14842l2.71365,11.18388l0.29869,2.51122l0.35533,2.50621l0.50692,25.07048h18.48867l1.30032,-1.67151l1.59865,-1.66377l1.16657,-1.73963l7.89132,-5.06438l2.06768,-1.414l0.21905,-0.05354l1.97859,-1.26978l4.15888,-0.23028l8.41462,-2.05662l5.03438,1.31196l2.66043,-0.1473l5.65462,2.31421l6.01958,1.56871l1.79134,1.62799l4.72915,1.93545l4.32642,6.29437l2.80029,2.54494l0.35533,2.04606l0.0967,0.14068h87.29474l7.11135,-0.83738l2.40346,-0.08371l2.39366,-0.19731h6.63877l0.76657,-0.20104l0.49094,-0.20234l4.97759,-1.56299l2.49014,-0.32197l2.40195,-0.62995l5.30011,-0.43686h0.54889l1.34733,-0.1742l0.83217,0.1742h1.23673l1.37616,-0.28358l2.60998,-0.31483l0.31689,-0.08311l1.17507,-0.09685l1.16847,-0.14095l0.33188,0.01728l2.62469,-0.21634h12.92311l3.49055,-0.57543l3.32652,-0.26882l3.32588,-0.27414h51.41406l3.58983,-0.94149l3.8429,-1.63841l3.12217,-0.1883l0.57231,-0.1501l5.30011,-0.43686h3.85973l2.51143,-0.15147l0.31989,0.15147h63.84922l0.83217,-0.1742l1.34733,0.1742h0.54889l5.30011,0.43688l2.40195,0.62995l2.49014,0.32197l2.70053,0.84798h3.38919l3.69938,0.30493l0.37756,-0.00926l0.6082,0.09051l0.61497,0.05069l0.35995,0.0944l3.65867,0.54451l4.92983,1.161h11.53117l5.30011,0.43688l0.11264,0.02954l0.11819,0.00133l5.19573,0.96706l4.07048,1.11839l4.86052,1.79595l0.63942,0.38412l3.38379,0.75383l3.61613,3.4513l2.24929,1.35123l1.84552,2.55692l2.35925,2.25171l0.84391,2.18617l2.82871,3.9191l-0.20244,2.8844l0.2399,0.62148l0.53002,4.36871v35.35827l1.14935,8.52641l0.02064,1.54761l0.18684,1.54002v3.6049l0.88275,5.0934l0.94306,3.88667l3.76308,11.37322l0.39888,1.9554l0.53441,1.9333l1.35683,8.94711l0.05206,1.73803l0.20987,1.72993v64.74671l0.2439,0.63186l0.24548,0.40467l1.89622,4.10286l0.39062,2.05254l0.76426,1.97985l0.53002,4.36871v0.45243l0.21134,1.11056l-0.21134,0.68593v55.90727l-0.53,4.36871l-0.33889,0.87791l-0.08091,0.91887l-1.47631,4.21849l-2.0693,4.26415l-1.60049,4.6173l-0.68822,3.97099v3.6049l-0.53,4.36871l-0.33889,0.87791l-0.08091,0.91887l-1.47631,4.21849l-0.28754,0.59251v18.10161l-0.18684,1.54002l-0.02064,1.54761l-1.14935,8.52641v37.59504l-0.18684,1.54002l-0.02064,1.54761l-2.71365,20.13099l-0.35856,1.3844l-0.00144,0.08693l-0.3861,1.40938l-0.36596,1.41303l-0.04289,0.07943l-0.37827,1.38083l-0.18301,0.45254l2.37207,4.69255l-0.61737,2.51447l0.16901,1.39302v21.24938l-0.16901,1.39302l0.61737,2.51447l-3.38608,6.69849l-1.30238,3.37388l-0.7789,0.74339l-0.45834,0.9067l-3.07861,2.46902l-5.75434,5.49204l-3.0046,0.66934l-1.43601,0.74758l-5.42731,2.23678l-2.24708,0.7056l-0.25012,0.12214l-1.24855,0.34846l-1.23182,0.38681l-0.28721,0.03713l-2.2776,0.63564l-35.27751,6.71033l-0.49644,0.05231l-0.47855,0.12075l-13.56827,2.23678l-3.32652,0.26882l-3.32588,0.27414h-2.0685l-3.49055,0.57543l-3.32652,0.26882l-3.32588,0.27414h-25.77972l-1.53172,-0.12625l-1.53931,0.01143l-14.9251,-1.11839l-2.00606,-0.31857l-2.03027,-0.18724l-15.48178,-2.73453h-38.46807l-1.12569,-0.09278l-1.13068,0.03086l-20.35241,-1.11839l-0.07965,-0.01102l-0.08073,0.00189l-18.99558,-1.11839l-3.15902,-0.44959l-3.16432,-0.42342l-20.35241,-4.47355l-0.49143,-0.15259l-0.51551,-0.0825l-25.95358,-6.41781l-10.65358,-1.95142l-12.83653,-2.11615l-4.01929,-0.58464l-2.22159,3.07795l-1.173,0.70466l-1.293,1.91011l-6.13442,2.55183l-1.28821,0.77388l-4.86052,1.79595l-0.08534,0.02345l-1.38597,0.57654l-0.87895,0.04575l-1.72021,0.47264l-1.27217,0.23679l-1.22751,0.36321l-3.19392,0.65816l-4.64667,1.53204l-1.75507,0.4173l-0.12537,0.05291l-1.62234,0.36264l-1.61509,0.38402l-0.14049,0.0084l-1.76295,0.39408l-6.24598,0.85806l-7.65058,1.80175l-0.99755,0.14847l-0.96275,0.26151l-12.21144,2.23678l-1.58989,0.15669l-1.56119,0.29321l-10.85462,1.11839l-2.10858,0.04291l-2.09875,0.17299h-78.88993l-1.15324,1.71976l-1.60245,1.02839l-2.57613,2.84816l-3.37356,0.97015l-4.6045,2.95501l-7.02345,0.38889l-4.1787,1.20169l-4.49604,-0.72137l-4.57012,0.25305l-3.96398,-1.6223l-6.9096,-1.10861l-4.12089,-3.40573l-3.20021,-1.30972l-2.12457,-3.09098l-0.1287,-0.10636h-38.04414l-2.62469,-0.21634l-0.33188,0.01728l-1.16847,-0.14095l-1.17507,-0.09685l-0.31689,-0.08311l-2.60998,-0.31483l-13.19353,-2.71875l-2.3722,-0.08262l-9.49779,-1.11839l-0.9162,-0.18607l-0.93909,-0.07589l-6.2478,-1.02997l-7.60143,-1.04427l-0.52968,-0.1184l-0.54619,-0.04414l-12.35299,-2.03643l-7.52933,-0.77577h-0.58709l-0.83217,0.1742l-1.34733,-0.1742h-0.54889l-5.30011,-0.43686l-2.40195,-0.62995l-0.39883,-0.05157h-0.04008l-5.30011,-0.43686l-2.40195,-0.62995l-2.49014,-0.32197l-4.97759,-1.56299l-0.49094,-0.20234l-1.29961,-0.34084l-0.6498,-0.46258l-0.28952,-0.11932l-4.33145,-0.39669h-3.5486l-2.78432,-0.2295l-2.7922,-0.15092l-5.79113,-0.79558l-1.01339,0.05761l-1.31232,-0.37711l-0.02411,-0.00331l-5.14086,-1.14913l-2.46354,-1.03968l-2.6134,-0.75099l-4.55808,-2.27173l-0.01955,-0.01209l-0.03598,-0.01519l-4.69336,-1.23091l-0.57939,-0.41245l-2.07067,-0.46129l-4.17545,-3.98511l-4.83473,-3.44168l-0.55964,-1.70678l-0.50038,-0.47757l-3.71007,-9.61115l-0.53,-4.36871v-2.23678l0.53002,-4.36871l1.17086,-3.03318l0.30911,-3.82185l1.97355,-2.09151l0.25655,-0.66461l3.72753,-3.5576l3.50124,-3.71052l0.74033,-0.3377l2.1011,-2.00533l4.486,-0.99937l3.37877,-1.54122l5.09324,-1.28516l5.63853,-0.92953l13.79797,-3.10178l0.49355,-0.0684l0.47241,-0.13622l7.73503,-1.53897l-0.96309,-0.91918l-0.75011,-1.94321l-0.92844,-1.62239l-0.87692,-3.05448l-1.15461,-2.99107l-0.21655,-1.78493l-0.5697,-1.9844l0.25624,-1.21629v-29.57958l0.1604,-1.32213l-0.0076,-1.32871l2.71365,-23.48616l0.1897,-0.79325l0.05194,-0.80739l2.71365,-14.53905l0.05316,-0.16995l0.01393,-0.17513l4.96578,-24.55879v-49.13186l0.08897,-0.73335l-0.04209,-0.73619l1.35683,-21.24938l0.49413,-2.65446l0.47177,-2.65724l3.05769,-10.08143v-103.58791l-1.77957,-0.67995l-1.34871,-1.84512c-6.43444,-5.08851 -10.43998,-12.24774 -10.43998,-20.17811zM426.6135,312.51706l2.39207,-0.73939l-1.20085,0.15483l-2.05102,0.09392z"/></g></g></svg>