<svg version="1.1" xmlns="http://www.w3.org/2000/svg" xmlns:xlink="http://www.w3.org/1999/xlink" width="260.35327" height="126.84734" viewBox="0,0,260.35327,126.84734"><g transform="translate(-119.70882,-69.19423)"><g data-paper-data="{&quot;isPaintingLayer&quot;:true}" fill-rule="nonzero" stroke-linejoin="miter" stroke-miterlimit="10" stroke-dasharray="" stroke-dashoffset="0" style="mix-blend-mode: normal"><path d="M132.77344,186.04157l233,-2.03494" fill="none" stroke="#000000" stroke-width="20" stroke-linecap="round"/><path d="M355.77344,167.12891c0,-4.33333 0,-11.66667 0,-16c0,0 0,-0.41447 0.08438,-1.07465c-1.15399,0.0633 -2.33484,-0.21843 -3.48256,-0.05447c-1.0435,0.14907 -1.95735,0.84513 -3,1c-6.58655,0.97832 -14.28248,0.14269 -20.89935,-0.13838c-3.40299,-2.15839 -7.80388,-3.24183 -10.20898,-6.47518c-0.2136,-0.28715 -0.40469,-0.58001 -0.57525,-0.87801c-4.6315,-1.95538 -5.72405,-7.41814 -5.72405,-7.41814l-0.91169,-4.75596c-0.26302,-0.08536 -0.49059,-0.22497 -0.61972,-0.4107c-1.58818,-2.28428 -2.15715,-5.12962 -3.17771,-7.7178c-2.09728,-5.31878 -2.48507,-8.55788 -2.48507,-14.07669c0,-0.94863 -0.38179,-2.0554 -0.49346,-3.05028c-1.43825,-1.48106 -2.50654,-3.68124 -2.50654,-6.94972c0,-1.41159 0.19926,-2.62392 0.54152,-3.66512c-0.01635,-0.0256 -0.03236,-0.05145 -0.04803,-0.07757c-0.70919,-1.18241 -0.85557,-2.63282 -1.47664,-3.8638c-0.37748,-0.74816 -1.00999,-1.37202 -1.50697,-2.05406c-1.85717,0.26266 -4.27669,0.54448 -4.90806,0.53142c-10.06103,3.92586 -22.9025,2.12913 -33.60182,2.12913c-20,0 -40,0 -60,0c-1.66667,0 -3.33333,0 -5,0c-0.8388,0 -2.86288,0.13891 -3.1997,-0.14073c-0.33679,0.47212 -0.92538,1.28554 -0.92942,1.74256c-0.00999,1.12813 0.20654,2.26245 0.08046,3.38355c-0.49665,4.41634 -1.18117,8.84535 -2.44151,13.10707c-0.34645,1.17148 -1.40658,2.04107 -1.77734,3.20509c-0.17218,0.54057 0.29148,1.12519 0.21884,1.68785c-0.37829,2.93037 -1.61664,5.69839 -2.08046,8.61645c-0.50233,3.16036 -0.57183,6.45897 -1.72573,9.44371c-0.29219,0.75578 -1.34884,1.07399 -1.57422,1.85231c-0.19893,0.68694 0.38595,1.38829 0.42908,2.10216c0.12461,2.06249 -0.1067,12.15329 -0.42908,12.89784c-1.48966,3.44044 -4.56823,5.94594 -6.85234,8.9189c-3.06985,0.52904 -6.03253,1.6166 -9.11676,2.05413c-2.23924,0.31766 -4.69751,-0.52606 -6.77499,0.36792c-1.39897,0.60201 -2.47518,1.87828 -3.92899,2.33212c-3.38794,1.05764 -7.80555,0.71254 -11.29602,1.29995c-0.93737,0.15775 -1.87607,0.39242 -2.81626,0.59957c0.18426,2.2852 -0.36199,4.66871 0.08532,6.92773c0.62596,3.16128 1.06611,6.37978 1.12913,9.60182c0,0 0,10 -10,10c-10,0 -10,-10 -10,-10c0.08173,-2.15084 -0.55464,-4.26914 -0.87087,-6.39818c-0.22546,-1.51789 -0.20971,-3.0694 -0.12913,-4.60182c0.0207,-0.3937 0.57007,-0.73399 0.42908,-1.10216c-0.42981,-1.12237 -1.85501,-1.80693 -2,-3c-0.43147,-3.55048 -0.9887,-7.40089 0.33212,-10.72468c1.27761,-3.21503 4.19591,-5.62802 6.98148,-7.67967c2.92941,-2.15759 7.05384,-1.84984 10.65549,-2.36437c3.43471,-0.49067 6.88335,-1.63003 10.37999,-2.0542c0.45352,-0.05502 0.89793,0.51902 1.32399,0.35416c0.82664,-0.31987 1.23208,-1.38178 2.07101,-1.66788c3.43982,-1.17307 7.18024,-1.10085 10.78881,-1.57224c-0.04756,-1.3951 -0.00839,-2.79374 0.03803,-4.18897c0.08766,-2.63504 -0.17894,-5.33241 0.42908,-7.89784c0.36937,-1.55848 1.71298,-2.71339 2.42578,-4.14769c0.67713,-1.36253 0.017,-3.05668 0.27427,-4.55629c0.23358,-1.3615 0.8583,-2.62791 1.20588,-3.96486c0.65309,-2.51212 0.26038,-5.22375 0.93251,-7.73085c0.45618,-1.70159 1.70918,-3.10974 2.22266,-4.79491c1.33172,-4.37047 0.81272,-9.14011 1.63895,-13.50938c1.45703,-7.70506 7.40058,-15.35088 14.97303,-17.9691c3.41695,-1.18143 10.24831,-0.42908 13.89784,-0.42908c18.33333,0 36.66667,0 55,0c11.60246,0 24.23081,1.52559 35.39818,-1.87087c8.14039,-0.13054 15.04486,-3.62188 22.67289,2.79981c1.95552,1.64626 1.91711,4.74613 3.07408,7.02553c0.48681,0.95909 1.36229,1.68739 1.83801,2.65202c0.32426,0.65752 0.14598,1.50766 0.52336,2.1362c0.36671,0.61077 1.21597,0.814 1.60591,1.41021c1.7604,2.69158 2.74886,5.82631 4.39409,8.58979c1.24129,2.085 3.0606,3.84956 3.98032,6.09503c0.57822,1.41171 0.12571,3.05695 0.38404,4.56046c0.4361,2.53814 1.26968,5.00524 2.2056,7.40449c1.21674,3.11913 3.87768,5.64348 4.65601,8.8998c0.56587,2.36746 0.2043,4.86421 0.26751,7.29753c0.01809,0.69648 0.01097,1.39329 0.00499,2.09009c3.17701,0.09909 6.44458,0.62288 9.39318,0.03904c1.03402,-0.20474 1.9565,-0.85093 3,-1c1.31993,-0.18856 2.67801,0.17353 4,0c1.56601,-0.20556 3.0312,-1.29577 4.60182,-1.12913c8.50963,0.90288 16.14376,7.50054 19.57092,15.10216c0.28736,0.63737 -0.59718,1.42404 -0.33212,2.07101c0.35743,0.87243 1.71852,1.10019 2,2c1.13199,3.61867 1.54122,13.24843 0.24804,16.98911c-0.54456,1.57519 -2.09366,2.60132 -3,4c-0.09756,0.15056 0.48124,-0.33882 0.51317,-0.16228c0.3559,1.96808 0,4 0,6c0,1.33333 0,2.66667 0,4v1c0,0 0,10 -10,10c-10,0 -10,-10 -10,-10c0,-1.33333 0,-3.66667 0,-5c0,-1.13565 -0.06182,-2.4421 -0.11058,-3.80124c-0.88942,-2.20622 -0.88942,-4.19876 -0.88942,-4.19876z" fill="#000000" stroke="none" stroke-width="0.5" stroke-linecap="butt"/><path d="M212.77478,176.12891c-1.97749,2.36171 -4.31296,4.26558 -6.93794,4.64291l-2.40264,1.60176c-1.60955,1.10723 -3.55947,1.75534 -5.66076,1.75534c-4.83792,0 -8.87342,-3.43552 -9.79996,-8c-5.06668,0 -10.13336,0 -15.20004,0c-2.16379,0 -4.32758,0 -6.49138,0c-0.6246,0.5747 -1.00079,1.51023 -1.79005,1.81675c-0.06836,0.02655 -11.73187,3.6094 -13.94041,2.10833c-0.36273,-0.24654 -0.71862,-0.50154 -1.06842,-0.76407l-0.1351,0.54042l-3.79706,-0.94927c-4.45321,-1.01058 -7.77758,-4.99315 -7.77758,-9.75216c0,-5.52285 4.47715,-10 10,-10h1.90401c1.44163,-0.95442 2.78795,-2.12065 4.42665,-2.63715c2.78501,-0.8778 6.49514,-0.78697 10.01178,-0.6038c1.17792,-0.70267 2.00993,-1.49589 3.63829,-2.40815c2.13478,-1.19598 4.69655,-1.54526 6.76196,-2.85741c0.7958,-0.50557 1.15816,-1.57552 2,-2c1.77468,-0.89485 3.66502,-1.57074 5.588,-2.0915c-0.09485,-0.13823 -0.18887,-0.2771 -0.28203,-0.41662c-0.73771,-1.10492 -0.03941,-2.65685 -0.04867,-3.98538c-0.02493,-3.57795 -0.61431,-8.68705 0.20422,-12.01066c0.60706,-2.46494 2.1999,-4.59079 3,-7c0.6695,-2.01595 0.06939,-4.60976 1.27044,-6.29355c0.17504,-1.30991 0.36471,-2.61759 0.60026,-3.91763c0.41909,-2.31302 0.93051,-4.63186 1.77993,-6.8237c0.6503,-1.67804 2.31064,-3.16245 2.14514,-4.95446c0,0 0,-10 10,-10c0.88549,0 1.69256,0.07841 2.42818,0.22134c3.16904,-0.58856 6.36137,-0.89359 8.58645,-1.17267c1.01489,-0.12729 2.2427,-0.36781 3.05839,0.24933c1.03338,-0.8456 1.83299,-2.11581 3.10015,-2.5368c2.17293,-0.7219 4.54185,-0.61414 6.82683,-0.7612c4.9344,-0.31759 10.05087,0 15,0c3.0916,0 7.03922,-0.11082 9.82683,0.7612c0.89981,0.28148 1.19028,1.51704 2,2c0.20897,0.12464 -0.08408,-0.73092 0.15854,-0.71254c2.10146,0.15922 4.14997,0.74336 6.2085,1.19496c2.75269,0.60387 5.61183,0.53375 8.40794,0.8855c3.1989,0.40242 4.0375,1.26844 7.4128,0.91954c3.65256,-0.37756 6.78258,-2.49214 10.38355,-2.91954c0.62368,-0.07403 1.15775,0.74815 1.77499,0.63208c2.78402,-0.52355 5.41624,-1.66246 8.12436,-2.49369c0.75549,0.98084 1.56125,1.92979 2.37742,2.87215c2.09041,0.35252 3.9605,1.35366 5.39612,2.78927l2,2l-0.28734,0.28734c0.22335,0.40924 0.41893,0.83581 0.58422,1.27718l1.33406,0.57956c0.51227,1.70005 0.82392,3.47399 1.5368,5.10015c0.94125,2.14709 2.61364,3.94838 3.39835,6.1575c0.45458,1.27974 0.00817,2.7283 0.23373,4.06751c0.0179,0.10625 0.03868,0.21242 0.06183,0.31852c7.2076,1.10029 14.35491,3.92832 9.01157,16.75544c-1.22733,2.9463 -2.84395,4.80641 -4.66398,5.87517c0.81023,1.87607 1.70681,4.56164 1.78681,6.74952c1.31016,0.00685 2.62198,-0.09683 3.93289,-0.09683c3.33333,0 6.66667,0 10,0c2.60894,0.25373 5.36081,-0.12745 7.82683,0.7612c1.69805,0.61191 2.52765,2.65078 4.10015,3.5368c0.99819,0.56242 2.34525,0.16166 3.37073,0.67262c1.49174,0.74329 2.59012,2.11117 4,3c0.48958,0.30864 1.09399,0.24848 1.70228,0.15595v-0.12657h4c5.52285,0 10,4.47715 10,10c0,5.52285 -4.47715,10 -10,10h-0.83304c-0.38831,0.50309 -0.77024,1.01084 -1.34013,1.2388c-0.92848,0.37139 -2.07152,-0.37139 -3,0c-0.87538,0.35015 -1.12462,1.64985 -2,2c-0.92848,0.37139 -2.07152,-0.37139 -3,0c-0.87538,0.35015 -1.10019,1.71852 -2,2c-2.94164,0.9202 -6.18214,0.14118 -9.22501,0.63208c-1.04064,0.16788 -1.96016,0.82726 -3,1c-0.89153,0.1481 -1.83455,-0.27275 -2.71075,-0.05131c-1.74034,0.43982 -3.24717,1.61293 -5,2c-1.39622,0.30832 -2.87404,-0.1528 -4.28925,0.05131c-1.0433,0.15047 -1.95487,0.86281 -3,1c-8.57727,1.1259 -17.9625,0.12913 -26.60182,0.12913c-11.0483,0 -22.07185,0.43144 -32.98538,-1.04867c-4.09858,-0.55585 -8.11675,0.62321 -12.31215,-0.21884c-1.14364,-0.22954 -2.07126,-1.06591 -3.10565,-1.62117c-1.74433,2.92751 -4.94155,4.88868 -8.59682,4.88868c-4.10064,0 -7.6248,-2.46819 -9.16791,-6c-3.61025,0 -7.2205,0 -10.83074,0zM305.60504,160.14482c0.31471,0.01115 0.63654,0.02744 0.9633,0.04658c-0.30046,-0.15701 -0.59888,-0.32072 -0.89453,-0.49097c-0.02087,0.15052 -0.04381,0.29864 -0.06877,0.44439zM250.06263,159.56328c0.1843,0.01743 0.37347,0.02911 0.56676,0.03587l-0.05829,-0.46632c-0.16817,0.14619 -0.33754,0.29007 -0.50847,0.43046z" fill="#fb00ff" stroke="none" stroke-width="0.5" stroke-linecap="butt"/></g></g></svg>