<svg version="1.1" xmlns="http://www.w3.org/2000/svg" xmlns:xlink="http://www.w3.org/1999/xlink" width="738.84038" height="474.45027" viewBox="0,0,738.84038,474.45027"><g transform="translate(71.82408,85.88708)"><g fill="#4fe7ff" stroke="none" stroke-width="0.5" stroke-miterlimit="10"><path d="M-19.82657,12.62741c0,-2.13979 0.35842,-4.21679 1.0327,-6.19907l-0.03637,-1.90305l2.03441,-2.32828c1.39479,-2.27568 3.23188,-4.36728 5.42867,-6.21284l0.8354,-0.95607l1.13719,-0.56659c4.0062,-2.84198 8.95203,-4.94652 14.45136,-6.02402l8.62439,-1.84817l2.52296,-0.34167l2.49969,-0.42718l10.66618,-1l2.07197,-0.03837l2.06232,-0.15468h27.36476l1.3951,-0.20927l2.03115,-0.50781l1.67696,-0.28401l1.63281,-0.40358l8.79541,-1.46597l7.69389,-17.88911l-0.13338,-0.63779l0.6499,-1.91935l0.07858,-0.58936l0.59948,-1.41313l2.39864,-7.08381l2.32241,-1.55137l8.2205,-7.13919l3.54166,-0.71794l0.82184,-0.54899l7.50979,-1.13993l7.39665,-1.49939l1.06242,0.21537l3.59585,-0.54582l6.39632,1.99894l3.51261,-9.40923l0.06737,-0.12926l0.16254,-1.09721l1.32417,-1.75505l0.35169,-0.67473l1.13828,-1.30008l4.64203,-6.15255l2.58932,-0.96549l10.84866,-5.39439l3.55374,0.02411l0.88263,-0.32911l7.75363,0.3877l7.77052,0.05272l0.84696,0.37818l3.54601,0.17731l10.27436,5.99365l2.48469,1.10944l4.0091,6.39798l1.00409,1.36086l0.28273,0.69273l1.14361,1.82506l0.05157,1.10328l0.05417,0.13271l2.66654,10l0.29351,2.24539l0.34916,2.24091l0.49812,22.41661h18.1677l1.27774,-1.49457l1.5709,-1.48765l1.14632,-1.55548l7.75432,-4.52828l2.03179,-1.26432l0.21524,-0.04787l1.94424,-1.13537l4.08668,-0.2059l8.26854,-1.83891l4.94699,1.17308l2.61424,-0.13171l5.55645,2.06924l5.91508,1.40265l1.76024,1.45566l4.64705,1.73057l4.25131,5.62807l2.75167,2.27554l0.34916,1.82947l0.09502,0.12579h85.77928l6.98789,-0.74874l2.36173,-0.07485l2.35211,-0.17642h6.52351l0.75326,-0.17976l0.48242,-0.18092l4.89118,-1.39754l2.44691,-0.28789l2.36025,-0.56327l5.20809,-0.39062h0.53936l1.32394,-0.15576l0.81772,0.15576h1.21526l1.35227,-0.25356l2.56467,-0.2815l0.31139,-0.07431l1.15467,-0.0866l1.14819,-0.12603l0.32612,0.01545l2.57912,-0.19344h12.69876l3.42995,-0.51452l3.26877,-0.24036l3.26814,-0.24512h50.5215l3.5275,-0.84183l3.77619,-1.46497l3.06797,-0.16837l0.56237,-0.13421l5.20809,-0.39062h3.79272l2.46783,-0.13544l0.31433,0.13544h62.74078l0.81772,-0.15576l1.32394,0.15576h0.53936l5.20809,0.39063l2.36025,0.56327l2.44691,0.28789l2.65365,0.75822h3.33035l3.63515,0.27265l0.37101,-0.00828l0.59764,0.08093l0.60429,0.04532l0.3537,0.08441l3.59516,0.48687l4.84424,1.0381h11.33099l5.20809,0.39063l0.11069,0.02641l0.11614,0.00119l5.10553,0.86469l3.99982,1l4.77614,1.60584l0.62832,0.34346l3.32505,0.67403l3.55336,3.08596l2.21025,1.20819l1.81348,2.28625l2.31829,2.01335l0.82926,1.95475l2.77961,3.50424l-0.19892,2.57907l0.23574,0.55569l0.52082,3.90625v31.61537l1.1294,7.62384l0.02028,1.38379l0.18359,1.377v3.2233l0.86743,4.55423l0.92669,3.47524l3.69775,10.16929l0.39196,1.74841l0.52514,1.72865l1.33327,8l0.05116,1.55405l0.20623,1.54681v57.89286l0.23967,0.56497l0.24122,0.36183l1.8633,3.66855l0.38384,1.83527l0.75099,1.77027l0.52082,3.90625v0.40454l0.20767,0.993l-0.20767,0.61332v49.98913l-0.5208,3.90625l-0.33301,0.78498l-0.0795,0.8216l-1.45068,3.77194l-2.03337,3.81276l-1.5727,4.12853l-0.67628,3.55064v3.2233l-0.5208,3.90625l-0.33301,0.78498l-0.0795,0.8216l-1.45068,3.77194l-0.28255,0.52979v16.18544l-0.18359,1.377l-0.02028,1.38379l-1.1294,7.62384v33.61537l-0.18359,1.377l-0.02028,1.38379l-2.66654,18l-0.35233,1.23785l-0.00141,0.07773l-0.3794,1.26019l-0.35961,1.26345l-0.04214,0.07102l-0.3717,1.23466l-0.17983,0.40464l2.33089,4.19581l-0.60665,2.2483l0.16607,1.24556v19l-0.16607,1.24556l0.60665,2.2483l-3.3273,5.98941l-1.27977,3.01673l-0.76538,0.6647l-0.45038,0.81072l-3.02517,2.20766l-5.65445,4.91067l-2.95244,0.59849l-1.41108,0.66844l-5.33309,2l-2.20807,0.63091l-0.24578,0.10921l-1.22688,0.31157l-1.21044,0.34586l-0.28223,0.0332l-2.23806,0.56835l-34.66508,6l-0.48782,0.04677l-0.47025,0.10797l-13.33272,2l-3.26877,0.24036l-3.26814,0.24512h-2.03259l-3.42995,0.51452l-3.26877,0.24036l-3.26814,0.24512h-25.33217l-1.50513,-0.11289l-1.51258,0.01022l-14.66599,-1l-1.97123,-0.28485l-1.99503,-0.16742l-15.21301,-2.44506h-37.80025l-1.10615,-0.08296l-1.11106,0.02759l-19.99908,-1l-0.07826,-0.00985l-0.07933,0.00169l-18.66581,-1l-3.10418,-0.402l-3.10939,-0.3786l-19.99908,-4l-0.4829,-0.13644l-0.50656,-0.07377l-25.50302,-5.73844l-10.46863,-1.74485l-12.61369,-1.89214l-3.94951,-0.52275l-2.18302,2.75213l-1.15264,0.63007l-1.27056,1.70791l-6.02792,2.2817l-1.26585,0.69196l-4.77614,1.60584l-0.08386,0.02097l-1.36191,0.51551l-0.86369,0.04091l-1.69035,0.42261l-1.25009,0.21172l-1.2062,0.32476l-3.13847,0.58849l-4.566,1.36986l-1.7246,0.37313l-0.12319,0.04731l-1.59418,0.32425l-1.58705,0.34337l-0.13805,0.00751l-1.73235,0.35236l-6.13755,0.76723l-7.51776,1.61102l-0.98024,0.13275l-0.94604,0.23383l-11.99945,2l-1.56229,0.1401l-1.53409,0.26217l-10.66618,1l-2.07197,0.03837l-2.06232,0.15468h-77.52038l-1.13321,1.53771l-1.57463,0.91953l-2.5314,2.54666l-3.31499,0.86745l-4.52457,2.6422l-6.90152,0.34772l-4.10616,1.07448l-4.41798,-0.64501l-4.49078,0.22626l-3.89517,-1.45057l-6.78965,-0.99126l-4.04935,-3.04521l-3.14466,-1.17108l-2.08769,-2.76378l-0.12646,-0.0951h-37.38369l-2.57912,-0.19344l-0.32612,0.01545l-1.14819,-0.12603l-1.15467,-0.0866l-0.31139,-0.07431l-2.56467,-0.2815l-12.96449,-2.43095l-2.33101,-0.07387l-9.33291,-1l-0.90029,-0.16637l-0.92278,-0.06786l-6.13933,-0.92094l-7.46947,-0.93373l-0.52048,-0.10587l-0.53671,-0.03947l-12.13854,-1.82086l-7.39862,-0.69365h-0.57689l-0.81772,0.15576l-1.32394,-0.15576h-0.53936l-5.20809,-0.39062l-2.36025,-0.56327l-0.3919,-0.04611h-0.03938l-5.20809,-0.39062l-2.36025,-0.56327l-2.44691,-0.28789l-4.89118,-1.39754l-0.48242,-0.18092l-1.27705,-0.30476l-0.63852,-0.41361l-0.28449,-0.10669l-4.25626,-0.3547h-3.487l-2.73598,-0.20521l-2.74373,-0.13494l-5.69059,-0.71136l-0.99579,0.05151l-1.28954,-0.33719l-0.02369,-0.00296l-5.05161,-1.02749l-2.42077,-0.92962l-2.56803,-0.67149l-4.47895,-2.03125l-0.01921,-0.01081l-0.03536,-0.01358l-4.61188,-1.10061l-0.56933,-0.36879l-2.03472,-0.41246l-4.10296,-3.56326l-4.7508,-3.07736l-0.54992,-1.52611l-0.4917,-0.42702l-3.64566,-8.59375l-0.5208,-3.90625v-2l0.52082,-3.90625l1.15053,-2.7121l0.30375,-3.41728l1.93928,-1.87011l0.2521,-0.59426l3.66282,-3.18101l3.44046,-3.31774l0.72747,-0.30195l2.06463,-1.79305l4.40812,-0.89358l3.32011,-1.37807l5.00482,-1.14912l5.54064,-0.83113l13.55843,-2.77344l0.48498,-0.06116l0.46421,-0.1218l7.60074,-1.37606l-0.94637,-0.82188l-0.73709,-1.73751l-0.91232,-1.45065l-0.86169,-2.73114l-1.13456,-2.67445l-0.21279,-1.59598l-0.55981,-1.77434l0.25179,-1.08754v-26.44839l0.15762,-1.18217l-0.00747,-1.18806l2.66654,-21l0.1864,-0.70928l0.05104,-0.72192l2.66654,-13l0.05224,-0.15196l0.01369,-0.15659l4.87958,-21.95909v-43.93094l0.08742,-0.65572l-0.04136,-0.65826l1.33327,-19l0.48555,-2.37347l0.46358,-2.37595l3.00461,-9.01425v-92.62247l-1.74868,-0.60797l-1.3253,-1.6498c-6.32274,-4.54986 -10.25874,-10.95124 -10.25874,-18.04213zM438.16415,285.1116l2.35055,-0.66112l-1.18,0.13844l-2.01541,0.08398z"/></g></g></svg>