<svg version="1.1" xmlns="http://www.w3.org/2000/svg" xmlns:xlink="http://www.w3.org/1999/xlink" width="122.0992" height="120.8097" viewBox="0,0,122.0992,120.8097"><g transform="translate(-179.23903,-117.27546)"><g data-paper-data="{&quot;isPaintingLayer&quot;:true}" fill-rule="nonzero" stroke="none" stroke-width="0.5" stroke-linecap="butt" stroke-linejoin="miter" stroke-miterlimit="10" stroke-dasharray="" stroke-dashoffset="0" style="mix-blend-mode: normal"><path d="M215.9928,229.91803c-8.33598,2.08399 -13.88558,-5.64894 -18.7597,-11.26884c-1.72096,-1.98428 -4.52181,-6.26684 -4.61256,-9.09383c-0.094,-2.92835 3.77887,-9.7919 5.77232,-13.39963c-9.87904,-0.34153 -15.32353,-0.93034 -18.52419,-10.33258c-1.50478,-4.42044 0.06994,-9.68465 0.77105,-14.05318c0.09233,-0.5753 1.56244,-2.88164 1.33297,-3.63611c-0.2538,-0.83447 -1.57591,-1.44505 -1.29821,-2.27187c1.06953,-3.18447 2.62463,-6.37463 5,-8.75c3.08445,-3.08445 4.86962,-0.25406 7.74578,-1.35381c0.70403,-0.2692 1.39279,-0.41368 2.08248,-0.51116c-2.10102,-3.3377 -2.54125,-7.66174 -2.68444,-12.27152c-0.01644,-0.52911 -0.35506,-1.12853 -0.08809,-1.58565c0.33556,-0.57454 1.12638,-0.71092 1.66083,-1.10722c0.55287,-0.40996 -0.27349,-1.46614 0.06799,-2.06373c0.04884,-0.08548 4.23302,-6.23412 4.88212,-6.77358c2.0285,-1.68585 14.22587,-4.52721 16,-4.25c1.91632,0.29942 4.23338,0.22872 5.59017,1.61475c0.7776,0.79435 1.45778,1.57825 2.05103,2.36474c0.02555,-0.17967 0.05286,-0.35934 0.08201,-0.53899c0.49903,-3.07519 0.60447,-7.18975 2.76638,-9.16033c7.78263,-7.09388 18.60574,-3.51374 27.54833,-1.41178c3.42038,0.80397 8.22851,-0.07041 10.68192,2.62121c2.06993,2.2709 3.48353,5.43481 3.61349,8.51041c0.01302,0.30801 0.02321,0.61316 0.03069,0.91564c3.2387,-0.82819 6.2867,-1.18973 7.82287,-0.80963c0.74003,0.18311 0.84649,1.43293 1.57467,1.6586c0.63585,0.19705 1.44163,-0.02812 1.95828,0.39166c2.52994,2.05557 3.62005,6.18114 5.89136,8.33955c0.62962,0.59832 2.17612,1.77397 2.47214,2.50419c1.41153,3.48191 1.34389,6.62445 0.5,10c-0.1177,0.47079 -0.31785,0.93188 -0.58735,1.38168c4.30606,0.6018 8.60708,1.7273 9.84776,3.89848c0.02531,0.04429 1.98363,8.47858 1.97642,9.88212c-0.00152,0.29685 -0.81975,0.3413 -0.66367,0.59381c0.32165,0.5204 1.30355,0.37188 1.59351,0.91058c2.37965,4.42104 0.74336,16.65837 0.07017,20.49561c-1.00937,5.75346 -6.67591,7.95213 -12.83571,8.71544c1.99029,3.21411 3.41156,6.72784 4.09108,9.57458c1.25018,5.23744 -2.94942,7.12818 -5.3711,10.22982c-5.1333,6.57461 -13.21998,13.2415 -21.09095,6.49496c-0.74686,-0.64017 -1.14491,-1.38406 -1.53144,-2.14984c0.0089,1.29541 -0.01778,2.33861 -0.08205,2.97276c-0.17323,1.7092 -0.39765,3.50839 -1.25,5c-0.45455,0.79545 -1.73854,0.71581 -2.38636,1.36364c-0.64783,0.64783 -0.56818,1.93182 -1.36364,2.38636c-6.66635,3.80935 -15.32354,1.40301 -23,1.25c-7.68581,-0.1532 -10.66919,-5.9397 -11.69331,-12.77318c-2.43149,2.75449 -5.07822,4.85169 -7.65504,5.4959zM221.7324,168.77073c-0.88386,1.4913 -1.39125,3.23202 -1.39125,5.09124c0,0.57276 0.04815,1.13427 0.14063,1.68071c-0.04914,0.63877 0.19355,1.23575 0.49146,1.82592c0.20756,0.55424 0.4629,1.08515 0.761,1.58771c0.78956,2.29783 0.17916,4.41667 1.19025,7.239c0.95066,2.65363 4.55149,6.39207 7.15983,8.05192c0.75604,0.48111 1.54773,0.88776 2.36668,1.22363l1.14815,2.00927c0.77187,1.35078 5.93247,1.67688 7.74201,1.38184c7.93786,-1.29422 18.22436,-5.98835 18.39564,-15.22568c0.00513,-0.27653 -0.14938,-0.61012 -0.374,-0.9542c0.01096,-0.04219 0.02173,-0.08443 0.03231,-0.12675c0.46727,-1.86909 -1.02234,-4.02866 -1.05394,-5.69338c-0.1103,-5.80951 -1.89825,-11.18485 -6.40983,-15.05192c-1.81162,-1.55282 -6.02287,-2.62993 -8.24265,-2.61475c-10.68027,0.07306 -18.46776,0.901 -21.95627,9.57542z" fill="#4c4c4c"/><path d="M258.09115,189.86198l-0.34284,0.19591l-0.0219,0.39426l-0.96672,0.82862c0.58157,-0.6812 1.09446,-1.40981 1.52358,-2.18722z" fill="#ffffff"/><path d="M222.18765,183.35759l-0.03007,-0.39095l-0.18452,-0.34597l-0.33333,-1.33333v-0.3976l-0.04857,-0.02776l-0.06966,-0.27864l-0.12461,-0.24922l-0.49845,-2.24301l-0.55728,-2.22912v-0.27864l-0.06231,-0.28038l0.06231,-0.09346v-1.34752c0,0.57276 0.04815,1.13427 0.14063,1.68071c-0.04914,0.63877 0.19355,1.23575 0.49146,1.82592c0.20756,0.55424 0.4629,1.08515 0.761,1.58771c0.56753,1.65167 0.41175,3.21085 0.65475,5.00528z" fill="#ffffff"/><path d="M258.40278,176.10853l0.66108,1.1018l-0.2012,0.73773l0.47848,1.91392v0.77652c-0.30307,-1.32351 -0.97882,-2.6611 -1,-3.77652c-0.00755,-0.39754 -0.02295,-0.79305 -0.04654,-1.18618z" fill="#ffffff"/><path d="M220.98132,170.31869l-0.02955,-0.10837l0.14777,-0.24629l0.08811,-0.26434l0.24405,-0.3835c-0.19137,0.37432 -0.35984,0.76229 -0.50357,1.16206z" fill="#ffffff"/><path d="M221.59115,168.86198l0.13184,-0.07534c-0.07022,0.11898 -0.13805,0.23954 -0.20341,0.36162z" fill="#ffffff"/><path d="M255.42448,165.86198l0.01288,0.05152c-0.01392,-0.02273 -0.0279,-0.04544 -0.04193,-0.06812z" fill="#ffffff"/></g></g></svg>