<svg version="1.1" xmlns="http://www.w3.org/2000/svg" xmlns:xlink="http://www.w3.org/1999/xlink" width="746.34789" height="516.873" viewBox="0,0,746.34789,516.873"><g transform="translate(82.33459,105.4066)"><g fill="#9966ff" stroke="none" stroke-width="0.5" stroke-miterlimit="10"><path d="M-29.80872,1.91651c0,-2.33112 0.36207,-4.59383 1.04319,-6.75336l-0.03674,-2.07321l2.05509,-2.53646c1.40896,-2.47916 3.26472,-4.75778 5.48383,-6.76836l0.84389,-1.04156l1.14874,-0.61725c4.04691,-3.09609 9.04299,-5.38881 14.59821,-6.56265l8.71203,-2.01342l2.5486,-0.37222l2.52509,-0.46538l10.77456,-1.08941l2.09303,-0.0418l2.08327,-0.16851h27.64282l1.40927,-0.22798l2.05179,-0.55322l1.694,-0.3094l1.6494,-0.43967l8.88478,-1.59705l7.77207,-19.48866l-0.13474,-0.69482l0.65651,-2.09097l0.07938,-0.64206l0.60557,-1.53948l2.42301,-7.71721l2.34601,-1.69008l8.30403,-7.77754l3.57765,-0.78213l0.83019,-0.59808l7.5861,-1.24186l7.47181,-1.63346l1.07321,0.23463l3.63239,-0.59462l6.46131,2.17767l3.5483,-10.25055l0.06805,-0.14082l0.16419,-1.19532l1.33762,-1.91198l0.35526,-0.73506l1.14985,-1.41633l4.6892,-6.70268l2.61563,-1.05182l10.9589,-5.87673l3.58985,0.02627l0.89159,-0.35854l7.83242,0.42237l7.84948,0.05743l0.85557,0.41199l3.58204,0.19316l10.37876,6.52957l2.50993,1.20864l4.04983,6.97005l1.01429,1.48254l0.28561,0.75467l1.15523,1.98825l0.05209,1.20193l0.05472,0.14458l2.69364,10.89414l0.29649,2.44616l0.35271,2.44128l0.50319,24.42098h18.35231l1.29072,-1.62821l1.58686,-1.62067l1.15797,-1.69456l7.83312,-4.93317l2.05243,-1.37737l0.21743,-0.05215l1.964,-1.23689l4.1282,-0.22431l8.35256,-2.00334l4.99725,1.27797l2.6408,-0.14349l5.61291,2.25426l5.97518,1.52807l1.77813,1.58582l4.69427,1.88531l4.29451,6.1313l2.77963,2.47901l0.35271,1.99305l0.09599,0.13704h86.6509l7.0589,-0.81569l2.38573,-0.08154l2.37601,-0.19219h6.5898l0.76091,-0.19583l0.48732,-0.1971l4.94088,-1.5225l2.47178,-0.31363l2.38423,-0.61363l5.26102,-0.42555h0.54484l1.33739,-0.16969l0.82603,0.16969h1.22761l1.36601,-0.27623l2.59073,-0.30667l0.31455,-0.08095l1.1664,-0.09434l1.15985,-0.1373l0.32943,0.01683l2.60533,-0.21074h12.8278l3.4648,-0.56053l3.30198,-0.26185l3.30135,-0.26704h51.03486l3.56335,-0.9171l3.81456,-1.59596l3.09914,-0.18342l0.56809,-0.14621l5.26102,-0.42555h3.83126l2.49291,-0.14755l0.31753,0.14755h63.3783l0.82603,-0.16969l1.33739,0.16969h0.54484l5.26102,0.42556l2.38423,0.61363l2.47178,0.31363l2.68062,0.82602h3.36419l3.67209,0.29703l0.37478,-0.00902l0.60371,0.08817l0.61043,0.04937l0.3573,0.09196l3.63169,0.5304l4.89347,1.13092h11.44612l5.26102,0.42556l0.11181,0.02877l0.11732,0.0013l5.1574,0.94201l4.04046,1.08941l4.82467,1.74943l0.6347,0.37417l3.35883,0.7343l3.58946,3.36189l2.2327,1.31622l1.8319,2.49067l2.34185,2.19337l0.83768,2.12953l2.80785,3.81757l-0.20095,2.80968l0.23813,0.60538l0.52611,4.25553v34.44224l1.14088,8.30552l0.02049,1.50752l0.18546,1.50012v3.51151l0.87624,4.96144l0.93611,3.78598l3.73532,11.07857l0.39594,1.90474l0.53047,1.88322l1.34682,8.71532l0.05168,1.693l0.20833,1.68512v63.06932l0.2421,0.61549l0.24367,0.39418l1.88223,3.99657l0.38774,1.99937l0.75862,1.92856l0.52611,4.25553v0.44071l0.20978,1.08179l-0.20978,0.66816v54.45888l-0.52609,4.25553l-0.3364,0.85517l-0.08031,0.89506l-1.46542,4.10921l-2.05403,4.15368l-1.58868,4.49768l-0.68315,3.86812v3.51151l-0.52609,4.25553l-0.3364,0.85517l-0.08031,0.89506l-1.46542,4.10921l-0.28542,0.57716v17.63265l-0.18546,1.50012l-0.02049,1.50752l-1.14088,8.30552v36.62107l-0.18546,1.50012l-0.02049,1.50752l-2.69364,19.60946l-0.35591,1.34853l-0.00143,0.08468l-0.38325,1.37287l-0.36326,1.37642l-0.04257,0.07737l-0.37548,1.34506l-0.18166,0.44082l2.35458,4.57098l-0.61282,2.44933l0.16776,1.35693v20.69888l-0.16776,1.35693l0.61282,2.44933l-3.36111,6.52495l-1.29277,3.28647l-0.77316,0.72413l-0.45496,0.88321l-3.05591,2.40506l-5.7119,5.34976l-2.98244,0.652l-1.42542,0.72821l-5.38728,2.17883l-2.23051,0.68732l-0.24827,0.11897l-1.23934,0.33943l-1.22274,0.37678l-0.28509,0.03617l-2.2608,0.61917l-35.01732,6.53649l-0.49277,0.05095l-0.47502,0.11762l-13.4682,2.17883l-3.30198,0.26185l-3.30135,0.26704h-2.05324l-3.4648,0.56053l-3.30198,0.26185l-3.30135,0.26704h-25.58958l-1.52042,-0.12298l-1.52795,0.01113l-14.81502,-1.08941l-1.99126,-0.31032l-2.0153,-0.18239l-15.36759,-2.66368h-38.18435l-1.11739,-0.09038l-1.12235,0.03006l-20.2023,-1.08941l-0.07906,-0.01073l-0.08014,0.00184l-18.85548,-1.08941l-3.13572,-0.43794l-3.14099,-0.41245l-20.2023,-4.35766l-0.4878,-0.14864l-0.51171,-0.08037l-25.76216,-6.25154l-10.575,-1.90086l-12.74186,-2.06132l-3.98964,-0.56949l-2.2052,2.99821l-1.16435,0.68641l-1.28347,1.86062l-6.08917,2.48572l-1.27871,0.75383l-4.82467,1.74943l-0.08471,0.02285l-1.37575,0.5616l-0.87247,0.04457l-1.70753,0.4604l-1.26279,0.23065l-1.21845,0.3538l-3.17036,0.64111l-4.6124,1.49235l-1.74212,0.40649l-0.12445,0.05154l-1.61038,0.35324l-1.60317,0.37407l-0.13945,0.00818l-1.74995,0.38387l-6.19991,0.83583l-7.59415,1.75507l-0.9902,0.14462l-0.95565,0.25474l-12.12138,2.17883l-1.57816,0.15263l-1.54968,0.28561l-10.77456,1.08941l-2.09303,0.0418l-2.08327,0.16851h-78.30808l-1.14473,1.6752l-1.59063,1.00175l-2.55713,2.77437l-3.34868,0.94501l-4.57054,2.87845l-6.97165,0.37881l-4.14788,1.17055l-4.46288,-0.70268l-4.53641,0.24649l-3.93475,-1.58027l-6.85864,-1.07989l-4.09049,-3.3175l-3.17661,-1.27579l-2.1089,-3.0109l-0.12775,-0.1036h-37.76355l-2.60533,-0.21074l-0.32943,0.01683l-1.15985,-0.1373l-1.1664,-0.09434l-0.31455,-0.08095l-2.59073,-0.30667l-13.09622,-2.64831l-2.3547,-0.08048l-9.42774,-1.08941l-0.90944,-0.18125l-0.93216,-0.07393l-6.20171,-1.00329l-7.54537,-1.01722l-0.52577,-0.11534l-0.54216,-0.043l-12.26188,-1.98367l-7.4738,-0.75567h-0.58276l-0.82603,0.16969l-1.33739,-0.16969h-0.54484l-5.26102,-0.42555l-2.38423,-0.61363l-0.39588,-0.05023h-0.03979l-5.26102,-0.42555l-2.38423,-0.61363l-2.47178,-0.31363l-4.94088,-1.5225l-0.48732,-0.1971l-1.29002,-0.33201l-0.64501,-0.45059l-0.28738,-0.11623l-4.29951,-0.38642h-3.52243l-2.76378,-0.22356l-2.77161,-0.14701l-5.74842,-0.77497l-1.00591,0.05612l-1.30264,-0.36734l-0.02393,-0.00322l-5.10294,-1.11936l-2.44537,-1.01274l-2.59412,-0.73153l-4.52447,-2.21287l-0.01941,-0.01178l-0.03572,-0.01479l-4.65874,-1.19902l-0.57512,-0.40177l-2.0554,-0.44934l-4.14465,-3.88187l-4.79907,-3.35252l-0.55551,-1.66257l-0.49669,-0.4652l-3.6827,-9.36216l-0.52609,-4.25553v-2.17883l0.52611,-4.25553l1.16222,-2.9546l0.30683,-3.72283l1.95899,-2.03732l0.25466,-0.6474l3.70004,-3.46544l3.47541,-3.61439l0.73487,-0.32895l2.0856,-1.95337l4.45291,-0.97348l3.35385,-1.50129l5.05568,-1.25187l5.59694,-0.90545l13.6962,-3.02143l0.48991,-0.06663l0.46892,-0.13269l7.67798,-1.4991l-0.95599,-0.89537l-0.74458,-1.89287l-0.92159,-1.58036l-0.87045,-2.97534l-1.14609,-2.91358l-0.21495,-1.73868l-0.5655,-1.93299l0.25435,-1.18478v-28.81326l0.15922,-1.28787l-0.00754,-1.29429l2.69364,-22.8777l0.1883,-0.7727l0.05156,-0.78647l2.69364,-14.16239l0.05277,-0.16555l0.01383,-0.17059l4.92916,-23.92255v-47.859l0.08831,-0.71435l-0.04178,-0.71712l1.34682,-20.69888l0.49048,-2.58569l0.46829,-2.58839l3.03514,-9.82025v-100.90426l-1.76645,-0.66233l-1.33877,-1.79732c-6.38698,-4.95668 -10.36298,-11.93044 -10.36298,-19.65536zM432.83573,298.76474l2.37443,-0.72023l-1.19199,0.15082l-2.03589,0.09149z"/></g></g></svg>