<svg version="1.1" xmlns="http://www.w3.org/2000/svg" xmlns:xlink="http://www.w3.org/1999/xlink" width="783.88543" height="511.98781" viewBox="0,0,783.88543,511.98781"><g transform="translate(115.36762,88.89009)"><g fill="#4f78ff" stroke="none" stroke-width="0.5" stroke-miterlimit="10"><path d="M-60.19997,17.41867c0,-2.30909 0.38028,-4.55041 1.09566,-6.68953l-0.03859,-2.05362l2.15845,-2.51249c1.47983,-2.45573 3.42892,-4.71281 5.75964,-6.70439l0.88633,-1.03171l1.20652,-0.61142c4.25045,-3.06683 9.49781,-5.33788 15.33242,-6.50063l9.1502,-1.99439l2.67678,-0.3687l2.65208,-0.46098l11.31646,-1.07912l2.19829,-0.04141l2.18805,-0.16692h29.03311l1.48015,-0.22583l2.15498,-0.54799l1.7792,-0.30648l1.73235,-0.43551l9.33164,-1.58195l8.16296,-19.30446l-0.14151,-0.68825l0.68953,-2.07121l0.08337,-0.63599l0.63603,-1.52493l2.54487,-7.64427l2.464,-1.67411l8.72168,-7.70403l3.75759,-0.77474l0.87195,-0.59242l7.96764,-1.23012l7.8476,-1.61802l1.12719,0.23241l3.81508,-0.589l6.78629,2.15709l3.72677,-10.15367l0.07148,-0.13949l0.17245,-1.18402l1.4049,-1.89391l0.37313,-0.72811l1.20768,-1.40294l4.92504,-6.63933l2.74718,-1.04188l11.51008,-5.82118l3.77041,0.02602l0.93644,-0.35515l8.22635,0.41837l8.24427,0.05689l0.8986,0.4081l3.7622,0.19134l10.90075,6.46786l2.63617,1.19722l4.25352,6.90418l1.0653,1.46853l0.29997,0.74754l1.21334,1.96946l0.05472,1.19057l0.05747,0.14321l2.82912,10.79118l0.3114,2.42304l0.37044,2.41821l0.52849,24.19017h19.27533l1.35564,-1.61282l1.66667,-1.60535l1.21621,-1.67855l8.22708,-4.88655l2.15566,-1.36435l0.22837,-0.05166l2.06278,-1.2252l4.33583,-0.22219l8.77265,-1.9844l5.24859,1.26589l2.77362,-0.14213l5.89521,2.23295l6.2757,1.51362l1.86756,1.57083l4.93037,1.86749l4.5105,6.07335l2.91944,2.45558l0.37044,1.97421l0.10082,0.13574h91.009l7.41393,-0.80798l2.50572,-0.08077l2.49551,-0.19038h6.92123l0.79918,-0.19398l0.51183,-0.19523l5.18938,-1.50811l2.5961,-0.31067l2.50415,-0.60783l5.52562,-0.42153h0.57225l1.40466,-0.16808l0.86758,0.16808h1.28936l1.43472,-0.27362l2.72103,-0.30377l0.33037,-0.08019l1.22506,-0.09345l1.21819,-0.136l0.346,0.01667l2.73636,-0.20874h13.47297l3.63906,-0.55523l3.46806,-0.25938l3.46739,-0.26451h53.60165l3.74257,-0.90843l4.00641,-1.58088l3.25501,-0.18169l0.59666,-0.14483l5.52562,-0.42153h4.02395l2.61829,-0.14616l0.3335,0.14616h66.56591l0.86758,-0.16808l1.40466,0.16808h0.57225l5.52562,0.42154l2.50415,0.60783l2.5961,0.31067l2.81544,0.81821h3.5334l3.85678,0.29422l0.39363,-0.00894l0.63408,0.08733l0.64113,0.04891l0.37527,0.09109l3.81434,0.52539l5.13958,1.12023h12.02181l5.52562,0.42154l0.11744,0.0285l0.12322,0.00128l5.4168,0.9331l4.24367,1.07912l5.06733,1.73289l0.66662,0.37063l3.52777,0.72736l3.77,3.33011l2.345,1.30378l1.92404,2.46713l2.45963,2.17264l0.87981,2.10941l2.94907,3.78149l-0.21105,2.78312l0.25011,0.59966l0.55257,4.2153v34.11671l1.19826,8.22702l0.02152,1.49327l0.19478,1.48595v3.47832l0.92031,4.91455l0.98319,3.75019l3.92319,10.97386l0.41585,1.88674l0.55715,1.86542l1.41456,8.63294l0.05428,1.677l0.2188,1.66919v62.47322l0.25428,0.60967l0.25592,0.39046l1.9769,3.9588l0.40724,1.98047l0.79678,1.91033l0.55257,4.2153v0.43655l0.22033,1.07156l-0.22033,0.66184v53.94417l-0.55255,4.2153l-0.35331,0.84709l-0.08435,0.8866l-1.53912,4.07037l-2.15734,4.11442l-1.66858,4.45517l-0.71751,3.83156v3.47832l-0.55255,4.2153l-0.35331,0.84709l-0.08435,0.8866l-1.53912,4.07037l-0.29977,0.57171v17.466l-0.19478,1.48595l-0.02152,1.49327l-1.19826,8.22702v36.27495l-0.19478,1.48595l-0.02152,1.49327l-2.82912,19.42412l-0.37381,1.33579l-0.0015,0.08388l-0.40253,1.35989l-0.38153,1.36341l-0.04471,0.07664l-0.39436,1.33234l-0.1908,0.43665l2.473,4.52777l-0.64364,2.42618l0.1762,1.34411v20.50324l-0.1762,1.34411l0.64364,2.42618l-3.53016,6.46328l-1.35779,3.25541l-0.81204,0.71729l-0.47784,0.87486l-3.2096,2.38233l-5.99918,5.29919l-3.13244,0.64584l-1.49711,0.72133l-5.65823,2.15824l-2.34269,0.68083l-0.26076,0.11785l-1.30168,0.33622l-1.28423,0.37322l-0.29943,0.03583l-2.37451,0.61332l-36.77851,6.47471l-0.51756,0.05047l-0.49891,0.11651l-14.14558,2.15824l-3.46806,0.25938l-3.46739,0.26451h-2.15651l-3.63906,0.55523l-3.46806,0.25938l-3.46739,0.26451h-26.8766l-1.59689,-0.12182l-1.6048,0.01103l-15.56014,-1.07912l-2.09141,-0.30739l-2.11666,-0.18067l-16.1405,-2.63851h-40.10483l-1.17359,-0.08952l-1.17879,0.02977l-21.21837,-1.07912l-0.08303,-0.01063l-0.08417,0.00182l-19.80381,-1.07912l-3.29343,-0.43381l-3.29896,-0.40855l-21.21837,-4.31647l-0.51234,-0.14723l-0.53745,-0.07961l-27.05787,-6.19245l-11.10687,-1.8829l-13.38271,-2.04184l-4.1903,-0.56411l-2.31611,2.96987l-1.22291,0.67992l-1.34802,1.84304l-6.39543,2.46222l-1.34302,0.74671l-5.06733,1.73289l-0.08898,0.02263l-1.44494,0.5563l-0.91635,0.04415l-1.79341,0.45605l-1.3263,0.22847l-1.27974,0.35045l-3.32981,0.63505l-4.84438,1.47824l-1.82975,0.40265l-0.13071,0.05105l-1.69137,0.3499l-1.68381,0.37054l-0.14646,0.0081l-1.83796,0.38024l-6.51173,0.82793l-7.9761,1.73848l-1.04,0.14325l-1.00371,0.25233l-12.73102,2.15824l-1.65754,0.15118l-1.62762,0.28291l-11.31646,1.07912l-2.19829,0.04141l-2.18805,0.16692h-82.24658l-1.2023,1.65937l-1.67064,0.99228l-2.68574,2.74815l-3.5171,0.93608l-4.80042,2.85125l-7.32229,0.37523l-4.3565,1.15949l-4.68734,-0.69604l-4.76457,0.24416l-4.13265,-1.56534l-7.20359,-1.06969l-4.29623,-3.28614l-3.33638,-1.26373l-2.21497,-2.98244l-0.13417,-0.10262h-39.66287l-2.73636,-0.20874l-0.346,0.01667l-1.21819,-0.136l-1.22506,-0.09345l-0.33037,-0.08019l-2.72103,-0.30377l-13.75489,-2.62328l-2.47313,-0.07971l-9.90191,-1.07912l-0.95518,-0.17953l-0.97904,-0.07323l-6.51363,-0.9938l-7.92486,-1.0076l-0.55222,-0.11425l-0.56943,-0.04259l-12.87859,-1.96492l-7.84969,-0.74853h-0.61207l-0.86758,0.16808l-1.40466,-0.16808h-0.57225l-5.52562,-0.42153l-2.50415,-0.60783l-0.4158,-0.04976h-0.04179l-5.52562,-0.42153l-2.50415,-0.60783l-2.5961,-0.31067l-5.18938,-1.50811l-0.51183,-0.19523l-1.35491,-0.32887l-0.67745,-0.44633l-0.30184,-0.11513l-4.51575,-0.38276h-3.69959l-2.90279,-0.22145l-2.911,-0.14562l-6.03753,-0.76764l-1.05651,0.05559l-1.36816,-0.36387l-0.02514,-0.00319l-5.35959,-1.10878l-2.56836,-1.00317l-2.72459,-0.72462l-4.75202,-2.19196l-0.02038,-0.01167l-0.03751,-0.01465l-4.89306,-1.18769l-0.60404,-0.39797l-2.15877,-0.44509l-4.3531,-3.84518l-5.04044,-3.32083l-0.58345,-1.64685l-0.52167,-0.4608l-3.86793,-9.27367l-0.55255,-4.2153v-2.15824l0.55257,-4.2153l1.22068,-2.92668l0.32226,-3.68765l2.05752,-2.01807l0.26746,-0.64128l3.88613,-3.43269l3.65021,-3.58023l0.77183,-0.32584l2.1905,-1.93491l4.67687,-0.96428l3.52253,-1.4871l5.30995,-1.24004l5.87844,-0.89689l14.38505,-2.99287l0.51455,-0.066l0.49251,-0.13144l8.06414,-1.48493l-1.00407,-0.88691l-0.78202,-1.87498l-0.96794,-1.56542l-0.91423,-2.94722l-1.20373,-2.88605l-0.22576,-1.72225l-0.59394,-1.91472l0.26714,-1.17358v-28.54093l0.16723,-1.2757l-0.00792,-1.28206l2.82912,-22.66148l0.19777,-0.7654l0.05415,-0.77904l2.82912,-14.02853l0.05542,-0.16398l0.01453,-0.16898l5.17707,-23.69645v-47.40667l0.09275,-0.7076l-0.04388,-0.71034l1.41456,-20.50324l0.51515,-2.56125l0.49184,-2.56393l3.18779,-9.72744v-99.95057l-1.85529,-0.65607l-1.4061,-1.78033c-6.70822,-4.90984 -10.88419,-11.81768 -10.88419,-19.46959zM425.71317,311.46125l2.49385,-0.71343l-1.25194,0.14939l-2.13829,0.09062z"/></g></g></svg>