<svg version="1.1" xmlns="http://www.w3.org/2000/svg" xmlns:xlink="http://www.w3.org/1999/xlink" width="238.05266" height="149.27561" viewBox="0,0,238.05266,149.27561"><g transform="translate(-116.52083,-111.97805)"><g data-paper-data="{&quot;isPaintingLayer&quot;:true}" fill-rule="nonzero" stroke="none" stroke-width="0.5" stroke-linecap="butt" stroke-linejoin="miter" stroke-miterlimit="10" stroke-dasharray="" stroke-dashoffset="0" style="mix-blend-mode: normal"><path d="M124.27344,123.00391c3.25699,-1.89923 6.93295,-2.49675 10.42793,-2.03089c5.80509,-2.42316 14.08114,-4.07827 18.60608,-4.64002c2.51854,-0.31267 5.68232,0.29336 8.03182,-0.20409c3.83932,-0.81289 9.78779,-3.9426 14.43416,-4c14.99886,-0.18529 30.00156,-0.21639 45,0c2.54998,0.03679 5.48279,1.96538 7.88874,2c20.70161,0.2979 41.41502,-0.55746 62.11126,0c2.57601,0.06939 5.19511,0.72256 7.5,1.875c0.90494,0.45247 1.72833,0.9958 2.47017,1.6136c2.30598,0.45898 4.67427,1.14063 7.46399,1.5114c4.76443,0.63322 9.73881,0.7166 14.50758,1.29129c2.49697,0.30091 5.71303,1.66747 8.1403,1.70871c2.97222,0.0505 5.96451,-0.3373 8.91796,0c4.20439,0.48016 11.76112,2.45366 13.125,7.5c4.37461,16.18607 -1.08232,30.62289 -2.125,46.5c-0.25298,3.85218 -1.95268,7.60896 -2,11.48529c-0.2218,18.17022 0.54916,36.35144 0,54.51471c-0.09049,2.99297 -0.38659,6.40569 -2.34375,8.67188c-6.57867,7.61741 -15.14268,8.48915 -24.80967,9.32813c-1.88025,0.16318 -3.9553,0.98482 -5.84658,1c-17.99942,0.14449 -36.00097,0.18683 -54,0c-4.72179,-0.04901 -12.8729,-2.77505 -15.22912,-6.73551c-3.06979,-5.15985 -2.95184,-7.61701 -2.00113,-14.0079c0.17558,-1.1803 1.18636,-2.16934 1.23025,-3.36182c0.36297,-9.86306 1.61593,-19.4399 1,-29.4606c-0.11321,-1.8419 -1.47077,-4.36584 -1.84924,-6.31284c-0.39565,-2.0354 0.95736,-5.9191 -1.10625,-6.12132c-2.93182,-0.2873 -5.99118,-0.75895 -8.8376,0c-0.8052,0.21469 -0.18564,1.6637 -0.411,2.46598c-0.17994,0.64058 -0.73412,1.16809 -0.79591,1.83059c-0.33975,3.64297 0.00474,7.42369 -1.05551,10.92548c-3.05543,10.09139 -4.03018,20.77648 -7.215,30.85999c-1.94581,6.16067 -1.30868,7.47285 -6.05762,11.57421c-4.70037,4.05941 -11.04861,1.36252 -16.10604,1.34375c-20.45296,-0.07589 -40.90623,-0.03097 -61.35932,0c-3.00208,0.00455 -16.37907,-3.20147 -18.87839,-5.34375c-3.83397,-3.28626 -6.32141,-7.6795 -6.32812,-12.65625c-0.0414,-30.66664 -0.54708,-61.33821 0,-92c0,0 0,0 0,0c0,-1.38521 0.18777,-2.72656 0.53923,-4c-0.35147,-1.27344 -0.53923,-2.61479 -0.53923,-4c0,-2.99972 0.88053,-5.79378 2.39723,-8.13781c0.92501,-1.844 2.35943,-3.38748 5.10277,-4.98719zM234.27344,144.25391c-0.14164,0.03541 -0.28334,0.07042 -0.4251,0.10504c-2.10762,1.12943 -4.51646,1.76996 -7.0749,1.76996c-0.59022,0 -1.17248,-0.03409 -1.74492,-0.10041c-18.58193,2.58296 -37.90839,-0.11199 -56.76979,0.10041c-3.45898,0.03895 -7.13669,2.25378 -10.44523,3.08091c-2.89697,0.72424 -5.97243,-0.1375 -8.95802,-0.08091c-0.72776,0.01379 -1.44604,0.06154 -2.15709,0.12791c-1.18766,25.43852 -13.60678,53.97989 0.07505,74.87209c9.56738,14.60943 34.9318,0.41813 52.39019,0c0.41801,-0.01001 -0.11159,-0.84328 -0.033,-1.25396c0.78397,-4.09686 2.07178,-8.09941 2.64281,-12.23134c0.41477,-3.0013 1.88911,-6.23784 2,-9.15944c0.29184,-7.68945 1.95596,-20.84957 4.875,-27.85526c5.4501,-13.08023 35.61947,-8.63524 42.125,-8.5c16.4968,0.34293 20.66157,17.47958 23.65796,30.53972c0.68626,2.99115 2.25897,6.28704 2.34204,9.46028c0.17447,6.66438 0.09554,13.33402 0,20c-0.03168,2.21035 -1.17138,5.96421 -0.79309,6c12.59262,1.19126 25.29887,0.17391 37.94651,0c0.75877,-0.01043 1.45665,-0.44976 2.20855,-0.55214c0.87375,-0.11897 2.62234,0.68381 2.63803,-0.19786c0.16083,-9.03225 -2.20976,-35.58601 1,-51.25c1.28413,-6.26668 0.63383,-12.85224 2,-19c0.4984,-2.24282 1.02636,-4.47927 1.58359,-6.7082c0.11548,-0.46192 1.32729,-2.01585 0.86427,-2.39626c-1.4285,-1.17365 -5.66786,-0.62543 -7.44786,-0.89553c-8.07099,-1.22472 -20.89533,-1.03729 -28.57529,-5.93114c-11.63669,0.28133 -23.27917,0.16825 -34.92166,0.05436c-0.00102,0.00059 -0.00203,0.00119 -0.00305,0.00178c-5.35091,3.12024 -11.83265,2.72703 -16.78486,-0.12285c-0.69015,-0.00141 -1.38028,-0.00215 -2.07041,-0.00215z" fill="#000000"/><path d="M234.42052,144.07896c0.69012,0 1.38261,0.00091 2.07275,0.00232c4.95221,2.84988 11.45086,3.24778 16.80176,0.12753c0.00102,-0.00059 0.00203,-0.00118 0.00305,-0.00178c11.64249,0.11389 23.30274,0.24124 34.93943,-0.04009c7.67996,4.89385 20.51057,4.71681 28.58156,5.94153c1.78,0.2701 6.02012,-0.27632 7.44862,0.89733c0.46302,0.38041 -0.74843,1.93525 -0.86392,2.39717c-0.55723,2.22893 -1.08419,4.46827 -1.5826,6.71109c-1.36617,6.14776 -0.71387,12.74316 -1.998,19.00984c-3.20976,15.66399 -0.84404,42.2448 -1.00488,51.27705c-0.0157,0.88167 -1.7646,0.07953 -2.63835,0.1985c-0.7519,0.10238 -1.45015,0.54242 -2.20892,0.55286c-12.64764,0.17391 -25.36256,1.20304 -37.95517,0.01178c-0.37829,-0.03579 0.68757,-3.85696 0.71925,-6.0673c0.09554,-6.66598 0.16617,-13.32157 -0.0083,-19.98596c-0.08307,-3.17324 -1.65833,-6.46011 -2.34459,-9.45127c-2.9964,-13.06015 -7.14342,-30.14884 -23.64022,-30.49177c-6.50553,-0.13524 -36.60065,-4.59332 -42.05075,8.48691c-2.91904,7.00569 -4.58082,20.11858 -4.87266,27.80802c-0.11089,2.9216 -1.59026,6.14976 -2.00504,9.15106c-0.57102,4.13193 -1.86452,8.12806 -2.64849,12.22492c-0.07859,0.41068 0.38277,1.31704 -0.03524,1.32705c-17.45839,0.41813 -42.83507,14.59206 -52.40245,-0.01737c-13.68183,-20.89219 -1.26223,-49.47361 -0.07458,-74.91214c0.71105,-0.06637 1.42955,-0.11461 2.15732,-0.12841c2.98559,-0.05659 6.06202,0.80318 8.959,0.07893c3.30854,-0.82713 6.98873,-3.04623 10.44772,-3.08518c18.86139,-0.21239 38.22113,2.4606 56.80305,-0.12235c0.57244,0.06632 1.15669,0.1001 1.74691,0.1001c2.55844,0 4.97561,-0.64094 7.08323,-1.77037c0.14176,-0.03462 0.28394,-0.06961 0.42558,-0.10502z" data-paper-data="{&quot;noHover&quot;:false,&quot;origItem&quot;:[&quot;Path&quot;,{&quot;applyMatrix&quot;:true,&quot;segments&quot;:[[[234.27344,144.25391],[0,0],[-0.14164,0.03541]],[[233.84834,144.35895],[0.14176,-0.03462],[-2.10762,1.12943]],[[226.77344,146.12891],[2.55844,0],[-0.59022,0]],[[225.02852,146.0285],[0.57244,0.06632],[-18.58193,2.58296]],[[168.25873,146.12891],[18.86139,-0.21239],[-3.45898,0.03895]],[[157.8135,149.20982],[3.30854,-0.82713],[-2.89697,0.72424]],[[148.85548,149.12891],[2.98559,-0.05659],[-0.72776,0.01379]],[[146.69839,149.25682],[0.71105,-0.06637],[-1.18766,25.43852]],[[146.77344,224.12891],[-13.68183,-20.89219],[9.56738,14.60943]],[[199.16363,224.12891],[-17.45839,0.41813],[0.41801,-0.01001]],[[199.13063,222.87495],[-0.07859,0.41068],[0.78397,-4.09686]],[[201.77344,210.64361],[-0.57102,4.13193],[0.41477,-3.0013]],[[203.77344,201.48417],[-0.11089,2.9216],[0.29184,-7.68945]],[[208.64844,173.62891],[-2.91904,7.00569],[5.4501,-13.08023]],[[250.77344,165.12891],[-6.50553,-0.13524],[16.4968,0.34293]],[[274.4314,195.66863],[-2.9964,-13.06015],[0.68626,2.99115]],[[276.77344,205.12891],[-0.08307,-3.17324],[0.17447,6.66438]],[[276.77344,225.12891],[0.09554,-6.66598],[-0.03168,2.21035]],[[275.98034,231.12891],[-0.37829,-0.03579],[12.59262,1.19126]],[[313.92685,231.12891],[-12.64764,0.17391],[0.75877,-0.01043]],[[316.1354,230.57677],[-0.7519,0.10238],[0.87375,-0.11897]],[[318.77344,230.37891],[-0.0157,0.88167],[0.16083,-9.03225]],[[319.77344,179.12891],[-3.20976,15.66399],[1.28413,-6.26668]],[[321.77344,160.12891],[-1.36617,6.14776],[0.4984,-2.24282]],[[323.35703,153.4207],[-0.55723,2.22893],[0.11548,-0.46192]],[[324.2213,151.02444],[0.46302,0.38041],[-1.4285,-1.17365]],[[316.77344,150.12891],[1.78,0.2701],[-8.07099,-1.22472]],[[288.19815,144.19777],[7.67996,4.89385],[-11.63669,0.28133]],[[253.27649,144.25213],[11.64249,0.11389],[-0.00102,0.00059]],[[253.27344,144.25391],[0.00102,-0.00059],[-5.35091,3.12024]],[[236.48858,144.13106],[4.95221,2.84988],[-0.69015,-0.00141]],[[234.41817,144.12891],[0.69012,0],[0,0]]],&quot;closed&quot;:true}]}" fill="#ff7b00"/></g></g></svg>