<svg version="1.1" xmlns="http://www.w3.org/2000/svg" xmlns:xlink="http://www.w3.org/1999/xlink" width="334.09309" height="289.41532" viewBox="0,0,334.09309,289.41532"><g transform="translate(-71.27837,-29.86935)"><g data-paper-data="{&quot;isPaintingLayer&quot;:true}" fill="#000000" fill-rule="nonzero" stroke="none" stroke-width="0.5" stroke-linecap="butt" stroke-linejoin="miter" stroke-miterlimit="10" stroke-dasharray="" stroke-dashoffset="0" style="mix-blend-mode: normal"><path d="M82.32031,275.22266c-11.37007,-9.70335 -14.16717,-27.21748 -7.42187,-40.59375c2.02502,-4.01571 5.06835,-7.43691 7.38317,-11.29285c5.69428,-9.48531 7.04556,-14.85455 15.51641,-22.17029c1.13694,-0.9819 3.28052,-1.40685 4.49216,-1.87173c2.01931,-0.77477 3.89002,-1.97555 5.98941,-2.49559c1.40637,-0.34837 6.26069,0.02943 7.68162,-0.23589c4.91406,-0.91759 9.75726,-2.37282 14.81223,-2.43365c5.57759,-0.06712 11.18313,-0.68988 16.73344,-0.13485c1.27968,0.12797 4.63696,1.31448 5.40619,1.55428c0.28489,0.08881 0.85566,0.54573 0.86038,0.24736c0.29887,-18.90405 -1.3542,-37.87687 0.20521,-56.71886c1.10579,-13.36103 3.28485,-26.02312 6.51917,-38.95192c1.85891,-7.43076 5.91408,-18.0242 6.17654,-25.34659c0.0984,-2.74527 1.92846,-9.06881 4.13594,-11.62484c2.10167,-2.43351 4.06417,-5.03102 6.51001,-7.11833c0.57208,-0.48822 2.95375,-0.99353 3.88066,-1.57087c12.92291,-8.04919 27.55752,-6.24413 42.04096,-8.96108c3.55223,-0.66636 6.78717,-2.65837 10.43064,-3.18125c11.30138,-1.62189 22.76191,-3.58696 34,-5c15.99855,-2.0116 31.99627,-4.03009 48,-6c7.42124,-0.91349 15.02075,-0.94444 22.47782,-1.13075c15.23571,-0.38065 30.92278,-2.27879 41.7168,10.48457c4.25489,5.03119 7.40474,10.80233 8.90625,17.32813c1.17649,5.11319 -0.21941,10.49817 0,15.74037c0.48984,11.70355 0.49109,24.20006 1,35.64032c0.77232,17.36153 12.96155,32.09025 14.69396,49.41436c3.33535,33.35346 -3.20009,65.4222 -9.13998,97.8303c-2.58227,14.08892 -4.54929,30.14076 -15.87631,40.17732c-12.0775,10.70154 -37.69086,15.56594 -52.25441,18.72701c-5.81983,1.26321 -11.82784,3.75109 -17.8208,3.75109c-2.29789,0 -4.82018,-0.70344 -7.0644,-0.7232c-0.86109,-0.00758 -1.75848,0.4103 -2.57907,0.1492c-22.57973,-7.18446 -18.67677,-33.00949 -19.95899,-51.32144c-0.08325,-1.18895 -1.90071,-3.42812 -2.3068,-4.6312c-1.68407,-4.98928 -2.62671,-11.43091 -2.6932,-16.62913c-0.06622,-5.17652 -0.63021,-13.83137 0.39063,-19.90625c0.92585,-5.50962 3.47804,-9.91215 6.29524,-14.51445c2.27578,-3.71782 3.07363,-8.16009 4.47209,-12.28873c1.92791,-5.69174 2.47498,-9.74025 5.67846,-14.92989c1.84346,-2.9864 4.55383,-4.99459 6.9989,-7.55133c9.95311,-10.40767 19.98582,-12.34146 34.07094,-10.41873c5.17435,0.70634 10.87647,3.5315 15.37852,5.39746c1.67608,0.69468 3.41306,1.68762 4.94548,2.65711c0.60634,0.3836 1.62792,1.92855 1.76975,1.22521c2.23116,-11.06405 -4.21485,-21.84622 -7.71708,-31.76471c-3.23265,-9.15501 -4.77865,-17.10704 -6.68759,-26.48243c-1.98027,-9.72567 -0.49284,-26.54774 -0.59532,-32.03863c-0.03363,-1.80189 1.15654,-4.95781 -0.59706,-5.37354c-5.91863,-1.40315 -12.1752,0.28233 -18.22527,0.91126c-15.61235,1.62298 -31.17091,3.73734 -46.72583,5.84073c-10.49659,1.41938 -21.15899,2.09051 -31.43001,4.67875c-4.13035,1.04082 -7.69039,3.03557 -11.94569,3.47182c-4.33615,0.44453 -13.09432,0.67408 -18.02016,1.85536c-2.15057,0.51573 -1.27741,4.23641 -1.81305,6.38211c-0.68412,2.74055 -1.20747,5.51884 -1.83826,8.27215c-1.85043,8.07691 -5.25583,22.86749 -5.40468,31.6458c-0.51458,30.34762 6.80581,61.47683 0,91.05594c-0.21317,0.92647 -2.87843,7.83076 -3,8.98214c-0.71215,6.74479 0.84538,13.76722 -1.27357,20.42677c-0.38777,1.2187 -2.23521,2.89882 -2.8505,4.12291c-1.11015,2.20859 -1.1175,13.69185 -2.93691,18.07363c-2.08793,5.02846 -5.34695,11.44159 -9.16299,15.06915c-4.76137,4.52619 -9.31163,6.02876 -15.18481,8.35564c-2.95745,1.17171 -4.92319,2.63645 -8.07942,3.60298c-11.4696,3.51232 -28.23925,3.0859 -39.01179,-1.88322c-2.12218,-0.97891 -5.12944,-4.12744 -6.80431,-5.30283c-10.14481,-7.11941 -16.51022,-14.67464 -21.36734,-26.00791c-2.46676,-0.46627 -4.80542,-1.29492 -6.95853,-2.4285c-0.85722,-0.42861 -4.30984,-1.60412 -4.82295,-2.04201z"/></g></g></svg>