<svg version="1.1" xmlns="http://www.w3.org/2000/svg" xmlns:xlink="http://www.w3.org/1999/xlink" width="818.41996" height="474.45027" viewBox="0,0,818.41996,474.45027"><g transform="translate(106.35861,79.88108)"><g fill="#f5ff4f" stroke="none" stroke-width="0.5" stroke-miterlimit="10"><path d="M-48.76052,18.63341c0,-2.13979 0.39703,-4.21679 1.14393,-6.19907l-0.04029,-1.90305l2.25354,-2.32828c1.54502,-2.27568 3.57998,-4.36728 6.01339,-6.21284l0.92538,-0.95607l1.25967,-0.56659c4.43771,-2.84198 9.91624,-4.94652 16.0079,-6.02402l9.55331,-1.84817l2.79471,-0.34167l2.76892,-0.42718l11.81502,-1l2.29514,-0.03837l2.28445,-0.15468h30.31218l1.54536,-0.20927l2.24992,-0.50781l1.85759,-0.28401l1.80867,-0.40358l9.74275,-1.46597l8.52259,-17.88911l-0.14775,-0.63779l0.7199,-1.91935l0.08705,-0.58936l0.66405,-1.41313l2.65699,-7.08381l2.57256,-1.55137l9.10592,-7.13919l3.92313,-0.71794l0.91036,-0.54899l8.31866,-1.13993l8.19333,-1.49939l1.17685,0.21537l3.98315,-0.54582l7.08526,1.99894l3.89095,-9.40923l0.07463,-0.12926l0.18005,-1.09721l1.46679,-1.75505l0.38957,-0.67473l1.26088,-1.30008l5.14201,-6.15255l2.86821,-0.96549l12.01716,-5.39439l3.93651,0.02411l0.97769,-0.32911l8.58877,0.3877l8.60748,0.05272l0.93819,0.37818l3.92795,0.17731l11.38099,5.99365l2.75231,1.10944l4.44091,6.39798l1.11224,1.36086l0.31319,0.69273l1.26679,1.82506l0.05713,1.10328l0.06001,0.13271l2.95375,10l0.32512,2.24539l0.38676,2.24091l0.55178,22.41661h20.12452l1.41537,-1.49457l1.7401,-1.48765l1.26979,-1.55548l8.58953,-4.52828l2.25063,-1.26432l0.23843,-0.04787l2.15366,-1.13537l4.52685,-0.2059l9.15914,-1.83891l5.47982,1.17308l2.89582,-0.13171l6.15493,2.06924l6.55218,1.40265l1.94983,1.45566l5.14758,1.73057l4.70922,5.62807l3.04805,2.27554l0.38676,1.82947l0.10526,0.12579h95.01846l7.74055,-0.74874l2.61611,-0.07485l2.60545,-0.17642h7.22615l0.83439,-0.17976l0.53438,-0.18092l5.418,-1.39754l2.71047,-0.28789l2.61447,-0.56327l5.76905,-0.39062h0.59746l1.46654,-0.15576l0.9058,0.15576h1.34616l1.49792,-0.25356l2.84091,-0.2815l0.34492,-0.07431l1.27903,-0.0866l1.27186,-0.12603l0.36124,0.01545l2.85692,-0.19344h14.06653l3.79938,-0.51452l3.62085,-0.24036l3.62015,-0.24512h55.9631l3.90745,-0.84183l4.18292,-1.46497l3.39841,-0.16837l0.62295,-0.13421l5.76905,-0.39062h4.20123l2.73364,-0.13544l0.34819,0.13544h69.49851l0.9058,-0.15576l1.46654,0.15576h0.59746l5.76905,0.39063l2.61447,0.56327l2.71047,0.28789l2.93947,0.75822h3.68906l4.02669,0.27265l0.41097,-0.00828l0.66201,0.08093l0.66938,0.04532l0.3918,0.08441l3.98238,0.48687l5.36601,1.0381h12.55143l5.76905,0.39063l0.12261,0.02641l0.12865,0.00119l5.65544,0.86469l4.43063,1l5.29057,1.60584l0.69599,0.34346l3.68318,0.67403l3.93608,3.08596l2.44831,1.20819l2.0088,2.28625l2.56799,2.01335l0.91857,1.95475l3.07899,3.50424l-0.22035,2.57907l0.26113,0.55569l0.57691,3.90625v31.61537l1.25105,7.62384l0.02246,1.38379l0.20337,1.377v3.2233l0.96086,4.55423l1.0265,3.47524l4.09603,10.16929l0.43417,1.74841l0.5817,1.72865l1.47688,8l0.05667,1.55405l0.22844,1.54681v57.89286l0.26548,0.56497l0.2672,0.36183l2.064,3.66855l0.42518,1.83527l0.83188,1.77027l0.57691,3.90625v0.40454l0.23004,0.993l-0.23004,0.61332v49.98913l-0.5769,3.90625l-0.36888,0.78498l-0.08807,0.8216l-1.60693,3.77194l-2.25239,3.81276l-1.74209,4.12853l-0.74912,3.55064v3.2233l-0.5769,3.90625l-0.36888,0.78498l-0.08807,0.8216l-1.60693,3.77194l-0.31298,0.52979v16.18544l-0.20337,1.377l-0.02246,1.38379l-1.25105,7.62384v33.61537l-0.20337,1.377l-0.02246,1.38379l-2.95375,18l-0.39028,1.23785l-0.00157,0.07773l-0.42026,1.26019l-0.39834,1.26345l-0.04668,0.07102l-0.41174,1.23466l-0.1992,0.40464l2.58195,4.19581l-0.67199,2.2483l0.18396,1.24556v19l-0.18396,1.24556l0.67199,2.2483l-3.68568,5.98941l-1.41761,3.01673l-0.84782,0.6647l-0.49889,0.81072l-3.35101,2.20766l-6.26348,4.91067l-3.27044,0.59849l-1.56307,0.66844l-5.90751,2l-2.4459,0.63091l-0.27225,0.10921l-1.35902,0.31157l-1.34081,0.34586l-0.31263,0.0332l-2.47912,0.56835l-38.39881,6l-0.54036,0.04677l-0.52089,0.10797l-14.76877,2l-3.62085,0.24036l-3.62015,0.24512h-2.25151l-3.79938,0.51452l-3.62085,0.24036l-3.62015,0.24512h-28.06067l-1.66725,-0.11289l-1.6755,0.01022l-16.24565,-1l-2.18355,-0.28485l-2.20991,-0.16742l-16.85158,-2.44506h-41.87167l-1.22529,-0.08296l-1.23073,0.02759l-22.15316,-1l-0.08669,-0.00985l-0.08787,0.00169l-20.67628,-1l-3.43852,-0.402l-3.4443,-0.3786l-22.15316,-4l-0.53491,-0.13644l-0.56112,-0.07377l-28.24992,-5.73844l-11.59619,-1.74485l-13.97229,-1.89214l-4.37491,-0.52275l-2.41815,2.75213l-1.27679,0.63007l-1.4074,1.70791l-6.67718,2.2817l-1.40219,0.69196l-5.29057,1.60584l-0.0929,0.02097l-1.5086,0.51551l-0.95672,0.04091l-1.87241,0.42261l-1.38473,0.21172l-1.33612,0.32476l-3.47651,0.58849l-5.0578,1.36986l-1.91036,0.37313l-0.13646,0.04731l-1.76589,0.32425l-1.75799,0.34337l-0.15292,0.00751l-1.91894,0.35236l-6.79861,0.76723l-8.32749,1.61102l-1.08581,0.13275l-1.04793,0.23383l-13.2919,2l-1.73056,0.1401l-1.69932,0.26217l-11.81502,1l-2.29514,0.03837l-2.28445,0.15468h-85.87l-1.25527,1.53771l-1.74424,0.91953l-2.80406,2.54666l-3.67205,0.86745l-5.0119,2.6422l-7.64488,0.34772l-4.54843,1.07448l-4.89384,-0.64501l-4.97448,0.22626l-4.31471,-1.45057l-7.52095,-0.99126l-4.4855,-3.04521l-3.48336,-1.17108l-2.31255,-2.76378l-0.14008,-0.0951h-41.41024l-2.85692,-0.19344l-0.36124,0.01545l-1.27186,-0.12603l-1.27903,-0.0866l-0.34492,-0.07431l-2.84091,-0.2815l-14.36087,-2.43095l-2.58208,-0.07387l-10.33814,-1l-0.99726,-0.16637l-1.02218,-0.06786l-6.80059,-0.92094l-8.274,-0.93373l-0.57654,-0.10587l-0.59452,-0.03947l-13.44596,-1.82086l-8.19552,-0.69365h-0.63903l-0.9058,0.15576l-1.46654,-0.15576h-0.59746l-5.76905,-0.39062l-2.61447,-0.56327l-0.43411,-0.04611h-0.04363l-5.76905,-0.39062l-2.61447,-0.56327l-2.71047,-0.28789l-5.418,-1.39754l-0.53438,-0.18092l-1.4146,-0.30476l-0.70729,-0.41361l-0.31514,-0.10669l-4.71469,-0.3547h-3.86258l-3.03067,-0.20521l-3.03925,-0.13494l-6.30352,-0.71136l-1.10305,0.05151l-1.42844,-0.33719l-0.02624,-0.00296l-5.59571,-1.02749l-2.68151,-0.92962l-2.84463,-0.67149l-4.96138,-2.03125l-0.02128,-0.01081l-0.03917,-0.01358l-5.10862,-1.10061l-0.63066,-0.36879l-2.25388,-0.41246l-4.54488,-3.56326l-5.2625,-3.07736l-0.60915,-1.52611l-0.54466,-0.42702l-4.03833,-8.59375l-0.5769,-3.90625v-2l0.57691,-3.90625l1.27446,-2.7121l0.33646,-3.41728l2.14816,-1.87011l0.27925,-0.59426l4.05734,-3.18101l3.81102,-3.31774l0.80583,-0.30195l2.287,-1.79305l4.88291,-0.89358l3.67772,-1.37807l5.54389,-1.14912l6.13741,-0.83113l15.01879,-2.77344l0.53721,-0.06116l0.5142,-0.1218l8.41941,-1.37606l-1.0483,-0.82188l-0.81648,-1.73751l-1.01058,-1.45065l-0.95451,-2.73114l-1.25676,-2.67445l-0.23571,-1.59598l-0.62011,-1.77434l0.27891,-1.08754v-26.44839l0.1746,-1.18217l-0.00827,-1.18806l2.95375,-21l0.20648,-0.70928l0.05653,-0.72192l2.95375,-13l0.05786,-0.15196l0.01517,-0.15659l5.40515,-21.95909v-43.93094l0.09684,-0.65572l-0.04581,-0.65826l1.47688,-19l0.53785,-2.37347l0.51351,-2.37595l3.32823,-9.01425v-92.62247l-1.93703,-0.60797l-1.46805,-1.6498c-7.00375,-4.54986 -11.3637,-10.95124 -11.3637,-18.04213zM458.55981,291.1176l2.60372,-0.66112l-1.3071,0.13844l-2.23249,0.08398z"/></g></g></svg>