<svg version="1.1" xmlns="http://www.w3.org/2000/svg" xmlns:xlink="http://www.w3.org/1999/xlink" width="109.12462" height="98.27311" viewBox="0,0,109.12462,98.27311"><g transform="translate(-373.39673,-88.16066)"><g fill="#000000" stroke="none" stroke-width="0.5" stroke-miterlimit="10"><path d="M439.06089,133.6821c-2.4809,-0.30848 -2.17242,-2.78937 -2.17242,-2.78937l0.63027,-2.92403c1.52994,-2.28996 4.85588,-6.42327 5.42351,-9.35389c0.12404,-0.64039 -0.02074,-2.60555 -0.08655,-4.43097c-8.16901,0.00802 -16.33868,0.03394 -24.50736,-0.00215c-4.69461,-0.02074 -6.76587,0.75872 -10.89398,2.73907c-0.79954,0.38356 -1.81497,0.45367 -2.42241,1.09974c-0.98232,1.04479 -1.40472,2.50072 -2.12737,3.7394c-2.4675,4.22949 -4.61115,8.62074 -6.81498,12.9877c0.69947,0.44148 1.37159,0.91648 1.96065,1.49285c0.90404,0.88457 0.91587,2.52128 1.94318,3.2591c0.61008,0.43817 1.49256,-0.17037 2.23884,-0.25555l4.89462,1.59751c0,0 2.37171,0.79057 1.58114,3.16228c-0.79057,2.37171 -3.16228,1.58114 -3.16228,1.58114l-4.11439,-1.40549c-1.25572,-0.08518 -2.70486,0.41943 -3.76716,-0.25555c-1.45579,-0.925 -1.87723,-2.93347 -3.12534,-4.12392c-0.22915,-0.21856 -0.46794,-0.43444 -0.71518,-0.64777c-0.02307,0.04364 -0.04615,0.08727 -0.06925,0.1309c0,1.5015 0.36388,3.04776 0,4.5045c-0.42052,1.68349 -1.73303,3.03111 -2.29263,4.67361c-1.60248,4.70353 -0.6435,10.85303 -0.6435,15.77303c0,1.81068 -0.39024,3.65005 -0.06688,5.43162c0.3018,1.66276 2.64419,2.11616 3.83915,3.31112c0.79136,0.79136 0.72854,2.19366 1.5015,3.003c0.59169,0.61954 1.58172,0.66085 2.35327,1.0332c2.65818,1.28282 5.51425,2.18592 8.40288,2.79204c11.03781,2.31606 22.56714,1.37537 33.84346,1.49721c2.14255,-0.92144 4.46684,-1.48759 6.44572,-2.72194c2.0993,-1.30946 3.81232,-3.18574 5.93264,-4.46088c1.86791,-1.12334 4.11779,-1.59273 5.85856,-2.90448c3.48318,-2.62474 6.45863,-6.59331 9.12029,-9.98726c2.60005,-3.31538 5.83294,-7.05891 7.63485,-10.87545c1.90584,-4.03668 1.7281,-8.82182 1.72616,-13.14522c-0.00135,-3.003 -0.0872,-6.00727 0,-9.00901c0.01989,-0.68475 0.52093,-1.44632 0.1903,-2.04629c-0.56969,-1.03376 -1.87481,-1.46485 -2.62666,-2.37474c-2.079,-2.516 -3.85533,-5.29185 -6.11342,-7.64844c-0.4095,-0.89309 -0.54632,-1.97221 -1.22849,-2.67927c-2.56266,-2.65618 -6.97313,-2.27077 -10.24425,-2.27077c-2.68256,0 -5.36511,0 -8.04767,0c0.02415,0.15528 0.03716,0.32264 0.03716,0.503c0,1.48964 -0.88761,2.09167 -1.60505,2.33497c0.05409,0.22533 0.10082,0.45023 0.10355,0.66803c0.0212,1.69298 0.27262,3.42016 -0.06688,5.07889c-0.73513,3.59171 -4.19513,8.07118 -6.1295,10.97863l0.17127,0.76748c0,0 -0.30848,2.4809 -2.78937,2.17242zM447.37988,90.66066c0,0 0,-2.5 2.5,-2.5c2.5,0 2.5,2.5 2.5,2.5c0,4.86103 0.79697,10.60991 -0.48577,15.51802c2.0243,0 3.93783,0 5.49327,0c4.7752,0 10.03169,0.07742 13.77978,3.73524c0.89946,0.8778 1.18301,2.21782 1.77451,3.32673c2.19465,2.25367 3.94912,4.89775 5.89859,7.36657c1.0247,1.29769 2.67571,2.13497 3.37935,3.63127c0.56233,1.19581 0.1606,2.63862 0.1903,3.95971c0.0675,3.00224 0.00131,6.00601 0,9.00901c-0.00223,5.12725 0.01483,10.47376 -2.19485,15.25882c-1.91563,4.14828 -5.41366,8.25836 -8.23268,11.84856c-2.95039,3.75751 -6.26231,8.06687 -10.13021,10.95676c-0.72793,0.54387 -5.18305,2.5206 -6.15345,3.10152c-2.17144,1.29991 -3.92451,3.22092 -6.07937,4.54813c-2.44016,1.50294 -5.29121,2.20379 -7.94569,3.28405c-11.90357,0.10547 -24.19861,0.9622 -35.84922,-1.50578c-4.27723,-0.90606 -9.92588,-1.95941 -13.26787,-5.18377c-0.80541,-0.77706 -0.71014,-2.21164 -1.5015,-3.003c-0.79136,-0.79136 -2.25098,-0.67267 -3.003,-1.5015c-1.05784,-1.16589 -1.73209,-2.68334 -2.16686,-4.19639c-0.08559,-0.29786 -0.06688,-5.97719 -0.06688,-6.58039c0,-5.57318 -0.85979,-11.96508 0.89037,-17.32474c0.49611,-1.51927 1.79426,-2.71957 2.17951,-4.27066c0.36193,-1.45723 0,-3.003 0,-4.5045c0.30328,-0.63277 0.60562,-1.26697 0.90784,-1.90198c-2.47021,-1.57425 -5.12672,-3.02216 -7.3191,-4.42012c-1.63994,-1.0457 -7.74196,-4.46322 -8.34613,-5.38528c-1.88214,-2.87241 0.31817,-6.01142 1.44093,-8.35579c0,0 1.11803,-2.23607 3.3541,-1.11803c2.23607,1.11803 1.11803,3.3541 1.11803,3.3541c-0.43482,0.81978 -0.93987,1.60601 -1.30445,2.45935c-0.16033,0.37528 -0.55948,0.92224 -0.25762,1.19687c0.93253,0.84843 2.29045,1.05856 3.3982,1.66049c3.4431,1.87091 6.69077,4.15863 9.93272,6.38073c2.10008,-4.36624 4.27987,-8.7058 6.80439,-12.81726c0.99416,-1.61909 1.68805,-3.47828 3.01759,-4.83553c0.94648,-0.96621 2.38165,-1.28301 3.58359,-1.90326c4.67817,-2.41415 7.81147,-3.24554 13.13005,-3.26694c6.6859,-0.02689 13.37234,-0.01597 20.05859,-0.00711c-0.02345,-0.15328 -0.03606,-0.31827 -0.03606,-0.49589c0,-2.5 2.5,-2.5 2.5,-2.5c1.63436,0 3.66406,0 5.8022,0c1.90678,-4.32501 0.70681,-11.01864 0.70681,-15.51802z"/><path d="M417.34985,152.22222c0,-1.38071 1.11929,-2.5 2.5,-2.5c1.38071,0 2.5,1.11929 2.5,2.5c0,1.38071 -1.11929,2.5 -2.5,2.5c-1.38071,0 -2.5,-1.11929 -2.5,-2.5z"/><path d="M442.87538,140.21021c0,-1.38071 1.11929,-2.5 2.5,-2.5c1.38071,0 2.5,1.11929 2.5,2.5c0,1.38071 -1.11929,2.5 -2.5,2.5c-1.38071,0 -2.5,-1.11929 -2.5,-2.5z"/><path d="M448.64464,157.96196c1.76777,1.76777 0,3.53553 0,3.53553l-3.26927,2.23373c-0.7869,0 -1.5738,0 -2.36069,0c0.01243,0.14742 0.00768,0.25521 -0.01718,0.31583c-0.49351,1.20298 -2.54353,0.54153 -3.8153,0.8123l-0.57976,1.99441c0,0 -1.11803,2.23607 -3.3541,1.11803c-2.23607,-1.11803 -1.11803,-3.3541 -1.11803,-3.3541l2.42324,-4.0116c0.28522,0.10576 0.56451,0.2342 0.84481,0.35875c-0.15452,-0.08365 -0.27764,-0.17689 -0.33868,-0.27842c-0.54303,-0.90324 -0.81841,-1.92994 -1.08385,-2.96121l-2.61246,0c0,0 0,0 0,0c-1.38071,0 -2.5,-1.11929 -2.5,-2.5c0,-1.06406 0.66476,-1.97285 1.60163,-2.33373c-0.1989,-0.7112 -0.3308,-2.09902 1.28184,-2.90534c2.23607,-1.11803 3.3541,1.11803 3.3541,1.11803c0.13839,0.54035 0.27678,1.08069 0.41517,1.62104l0.07746,0c0.77162,-0.12278 1.34455,0.11237 1.75613,0.44409c0.44397,0.28499 0.8475,0.75286 0.97587,1.52099c0.24216,0.71566 0.81576,2.39501 1.37188,4.14034c0.38368,-0.09941 0.67493,-0.09941 0.67493,-0.09941c1.001,0 2.002,0 3.003,0l-0.26627,-0.76927c0,0 1.76777,-1.76777 3.53553,0zM437.90388,161.17846c0.27325,0.1062 0.55131,0.19407 0.84037,0.23995c0.37517,0.05955 -0.24228,-0.03458 -0.84037,-0.23995z"/></g></g></svg>